SplineFontDB: 3.0
FontName: AbhayaLibreTamil-ExtraBold
FullName: AbhayaLibre ExtraBold
FamilyName: AbhayaLibre
Weight: ExtraBold
Copyright: Copyright (c) 2000, Modular Infotech, Pune, INDIA.
Version: 1.00
ItalicAngle: 0
UnderlinePosition: -282
UnderlineWidth: 20
Ascent: 700
Descent: 300
InvalidEm: 0
sfntRevision: 0x00010000
LayerCount: 2
Layer: 0 0 "Back" 1
Layer: 1 0 "Fore" 0
XUID: [1021 779 -1439063335 8111123]
FSType: 0
OS2Version: 4
OS2_WeightWidthSlopeOnly: 0
OS2_UseTypoMetrics: 1
CreationTime: 1442707200
ModificationTime: 1459413084
PfmFamily: 17
TTFWeight: 800
TTFWidth: 5
LineGap: 147
VLineGap: 0
Panose: 2 0 8 0 0 0 0 0 0 0
OS2TypoAscent: 700
OS2TypoAOffset: 0
OS2TypoDescent: -300
OS2TypoDOffset: 0
OS2TypoLinegap: 147
OS2WinAscent: 845
OS2WinAOffset: 0
OS2WinDescent: 302
OS2WinDOffset: 0
HheadAscent: 700
HheadAOffset: 0
HheadDescent: -300
HheadDOffset: 0
OS2SubXSize: 700
OS2SubYSize: 650
OS2SubXOff: 0
OS2SubYOff: 200
OS2SupXSize: 700
OS2SupYSize: 650
OS2SupXOff: 0
OS2SupYOff: 500
OS2StrikeYSize: 50
OS2StrikeYPos: 250
OS2CapHeight: 604
OS2XHeight: 409
OS2Vendor: 'MODI'
OS2CodePages: 00000003.00000000
OS2UnicodeRanges: 80108003.00000000.00000000.00000000
Lookup: 4 0 0 "'akhn' Akhand in Tamil lookup 0" { "'akhn' Akhand in Tamil lookup 0 subtable"  } ['akhn' ('taml' <'dflt' > ) ]
Lookup: 4 0 0 "'abvs' Above Base Substitutions in Tamil lookup 1" { "'abvs' Above Base Substitutions in Tamil lookup 1 subtable"  } ['abvs' ('taml' <'dflt' > ) ]
Lookup: 4 0 0 "'abvs' Above Base Substitutions in Tamil lookup 2" { "'abvs' Above Base Substitutions in Tamil lookup 2 subtable"  } ['abvs' ('taml' <'dflt' > ) ]
Lookup: 4 0 0 "'blws' Below Base Substitutions in Tamil lookup 3" { "'blws' Below Base Substitutions in Tamil lookup 3 subtable"  } ['blws' ('taml' <'dflt' > ) ]
Lookup: 4 0 0 "'haln' Halant Forms in Tamil lookup 4" { "'haln' Halant Forms in Tamil lookup 4 subtable"  } ['haln' ('taml' <'dflt' > ) ]

StartChar: .notdef
Encoding: 256 -1 0
Width: 800
GlyphClass: 2
Flags: HW
LayerCount: 2
Back
Fore
SplineSet
100 0 m 1
 100 700 l 1
 700 700 l 1
 700 0 l 1
 100 0 l 1
150 50 m 1
 650 50 l 1
 650 650 l 1
 150 650 l 1
 150 50 l 1
EndSplineSet
EndChar

StartChar: uni0B83
Encoding: 259 2947 4
Width: 720
GlyphClass: 2
Flags: HW
LayerCount: 2
Back
Fore
SplineSet
17 136 m 0
 17 224.348619643 80.5601433745 279 170 279 c 256
 259.450729688 279 323 224.355373115 323 136 c 0
 323 48.6545869423 258.335968989 -5 170 -5 c 256
 81.6479671746 -5 17 48.6506295833 17 136 c 0
52 136 m 0
 52 91.7480259761 80.0219460929 45 122 45 c 256
 164.084147769 45 193 91.159701633 193 136 c 0
 193 181.618120058 165.117634748 229 122 229 c 256
 79.1563035282 229 52 180.960978238 52 136 c 0
212 541 m 0
 212 629.348619643 275.560143375 684 365 684 c 256
 454.450729688 684 518 629.355373115 518 541 c 0
 518 453.654586942 453.335968989 400 365 400 c 256
 276.647967175 400 212 453.650629583 212 541 c 0
247 541 m 0
 247 496.748025975 275.021946093 450 317 450 c 256
 359.084147769 450 388 496.159701633 388 541 c 0
 388 586.618120058 360.117634748 634 317 634 c 256
 274.156303528 634 247 585.960978238 247 541 c 0
397 136 m 0
 397 224.348619643 460.560143375 279 550 279 c 256
 639.450729688 279 703 224.355373115 703 136 c 0
 703 48.6545869423 638.335968989 -5 550 -5 c 256
 461.647967175 -5 397 48.6506295833 397 136 c 0
432 136 m 0
 432 91.7480259761 460.021946093 45 502 45 c 256
 544.084147769 45 573 91.159701633 573 136 c 0
 573 181.618120058 545.117634748 229 502 229 c 256
 459.156303528 229 432 180.960978238 432 136 c 0
EndSplineSet
EndChar

StartChar: uni0B85
Encoding: 260 2949 5
Width: 951
GlyphClass: 2
Flags: HW
LayerCount: 2
Back
Fore
SplineSet
8 32 m 0
 8 60.2828352425 33.4785560319 83 62 83 c 2
 572 83 l 1
 592 120.333333333 602 164.333333333 602 215 c 0
 602 295.29136306 552.383995823 377 475 377 c 1
 508.008569006 358.137960568 535 320.942607049 535 272 c 0
 535 199.039426869 462.520201259 148 387 148 c 256
 312.004863924 148 239 199.489939495 239 273 c 0
 239 368.146989377 333.642371734 412 436 412 c 0
 518 412 587.666666667 392.666666667 645 354 c 0
 703 315.333333333 732 268.666666667 732 214 c 0
 732 155.333333333 724.666666667 111.666666667 710 83 c 1
 776 83 l 1
 776 400 l 1
 906 400 l 1
 906 -134 l 1
 776 -134 l 1
 776 48 l 1
 702 48 l 1
 638.489248396 -62.0853027803 471.738331943 -120 292 -120 c 0
 213.333333333 -120 146.333333333 -105 91 -75 c 0
 35.6666666667 -45.6666666667 8 -10 8 32 c 0
43 28 m 0
 43 -3.33333333333 65 -30 109 -52 c 256
 153 -74 206.333333333 -85 269 -85 c 0
 393.106287695 -85 494.226164393 -29.1494451904 544 48 c 1
 49 48 l 257
 45 44 43 33.3333333333 43 28 c 0
274 270 m 0
 274 230.659381819 300.023793553 193 337 193 c 0
 375.520923505 193 405 230.035571775 405 270 c 0
 405 312.767273905 377.879897477 358 337 358 c 0
 297.810889562 358 274 311.978796908 274 270 c 0
EndSplineSet
EndChar

StartChar: uni0B86
Encoding: 261 2950 6
Width: 1120
GlyphClass: 2
Flags: HW
LayerCount: 2
Back
Fore
SplineSet
8 32 m 0
 8 60.2828352425 33.4785560319 83 62 83 c 2
 571 83 l 1
 591.666666667 121.666666667 602 165.666666667 602 215 c 0
 602 295.29136306 552.383995823 377 475 377 c 1
 508.008569006 358.137960568 535 320.942607049 535 272 c 0
 535 199.075148765 461.15695646 148 385 148 c 0
 310.681360498 148 240 199.927318355 240 273 c 0
 240 367.738165897 333.602892559 412 436 412 c 0
 518 412 587.666666667 392.666666667 645 354 c 0
 703 315.333333333 732 268.666666667 732 214 c 0
 732 155.333333333 724.666666667 111.666666667 710 83 c 1
 776 83 l 1
 776 400 l 1
 906 400 l 1
 906 58 l 1
 938.666666667 76 967 85 991 85 c 0
 1070.40774389 85 1120 31.2611511233 1120 -48 c 0
 1120 -123.333333333 1082.33333333 -184 1007 -230 c 0
 931.666666667 -275.333333333 831.333333333 -298 706 -298 c 0
 628 -298 561.333333333 -287.666666667 506 -267 c 256
 450.666666667 -246.333333333 423 -221.666666667 423 -193 c 0
 423 -158.883551641 469.15367888 -141 507 -141 c 2
 638 -141 l 1
 638 -176 l 1
 472 -176 l 1
 462.666666667 -180 458 -189.333333333 458 -194 c 0
 458 -214.666666667 482.333333333 -231.666666667 531 -245 c 0
 577 -257 635.333333333 -263 706 -263 c 0
 857.112441117 -263 990 -193.877226027 990 -52 c 0
 990 -14.7444268541 972.211887727 30 938 30 c 0
 929.333333333 30 912.666666667 26 906 18 c 1
 906 -183 l 1
 776 -183 l 1
 776 48 l 1
 702 48 l 1
 638.489248396 -62.0853027803 471.738331943 -120 292 -120 c 0
 213.333333333 -120 146.333333333 -105 91 -75 c 0
 35.6666666667 -45.6666666667 8 -10 8 32 c 0
43 33 m 0
 43 -48.7071955923 177.418604398 -85 270 -85 c 0
 394.106287695 -85 495.226164393 -29.1494451904 545 48 c 1
 49 48 l 1
 45 44.6666666667 43 37 43 33 c 0
275 270 m 0
 275 231.259918949 300.210482627 193 337 193 c 0
 375.520923505 193 405 230.035571775 405 270 c 0
 405 312.767273905 377.879897477 358 337 358 c 0
 298.079897418 358 275 311.330588759 275 270 c 0
EndSplineSet
EndChar

StartChar: uni0B87
Encoding: 262 2951 7
Width: 914
GlyphClass: 2
Flags: HW
LayerCount: 2
Back
Fore
SplineSet
0 -186 m 0
 0 -154 12.3333333333 -122.333333333 37 -91 c 0
 61 -60.3333333333 93.6666666667 -35 135 -15 c 1
 82.0870222788 50.2183213765 46 145.016580327 46 259 c 0
 46 383.666666667 84.3333333333 483.333333333 161 558 c 0
 237 633.333333333 338.666666667 671 466 671 c 0
 590 671 689 627 763 539 c 0
 837.666666667 451 875 334 875 188 c 2
 875 -273 l 1
 840 -273 l 1
 840 189 l 2
 840 307 805.666666667 401.333333333 737 472 c 0
 669 543.333333333 578 579 464 579 c 0
 251.039534323 579 102 447.117719689 102 236 c 0
 102 152 127.333333333 75 178 5 c 1
 240.666666667 37 324.333333333 53 429 53 c 0
 470.333333333 53 511.333333333 48.3333333333 552 39 c 1
 588.804073295 87.2260270775 611 157.811291552 611 241 c 0
 611 307.890310571 565.868204263 373 502 373 c 1
 536.754563 354.381484108 562 312.25810291 562 261 c 0
 562 173.962382056 500.1336512 121 412 121 c 256
 323.387810059 121 263 177.972526631 263 266 c 0
 263 374.809846017 353.476093192 433 466 433 c 0
 609.754785513 433 736 367.753967349 736 233 c 0
 736 143.666666667 713.333333333 66.6666666667 668 2 c 1
 708 -14 740 -35 764 -61 c 0
 788 -86.3333333333 800 -112.333333333 800 -139 c 0
 800 -179 777.333333333 -213.333333333 732 -242 c 256
 686.666666667 -270.666666667 632 -285 568 -285 c 0
 487.333333333 -285 417 -269 357 -237 c 1
 299 -269 231 -285 153 -285 c 0
 83.7619608336 -285 0 -249.718573486 0 -186 c 0
37 -185 m 0
 37 -228.424813147 98.6714797217 -250 147 -250 c 0
 199.666666667 -250 251.666666667 -232.666666667 303 -198 c 1
 239 -151.333333333 189 -103.333333333 153 -54 c 1
 117.666666667 -71.3333333333 89.3333333333 -91.6666666667 68 -115 c 0
 47.3333333333 -139 37 -162.333333333 37 -185 c 0
202 -32 m 1
 251.333333333 -94.6666666667 301.333333333 -142 352 -174 c 1
 416 -132.666666667 472 -77.6666666667 520 -9 c 1
 485.333333333 1.66666666667 450 7 414 7 c 0
 324 7 253.333333333 -6 202 -32 c 1
298 264 m 0
 298 222.55804811 322.341542523 176 362 176 c 0
 403.615062859 176 432 219.066838817 432 262 c 0
 432 304.949368731 404.086449025 349 362 349 c 0
 322.727335773 349 298 304.800144825 298 264 c 0
411 -204 m 1
 443.666666667 -220.666666667 485.666666667 -229 537 -229 c 0
 599.133666247 -229 670 -194.89890063 670 -137 c 0
 670 -99.9018941728 646.004405479 -68.5011013697 616 -61 c 1
 556.666666667 -120.333333333 488.333333333 -168 411 -204 c 1
EndSplineSet
EndChar

StartChar: uni0B88
Encoding: 263 2952 8
Width: 671
GlyphClass: 2
Flags: HW
LayerCount: 2
Back
Fore
SplineSet
45 0 m 1
 45 400 l 1
 659 400 l 1
 659 370 l 1
 452 370 l 1
 452 0 l 1
 322 0 l 1
 322 370 l 1
 80 370 l 1
 80 0 l 1
 45 0 l 1
138 199 m 256
 138 237.229175038 169.14920686 269 207 269 c 256
 244.791846278 269 278 237.216315833 278 199 c 0
 278 160.672013656 245.326794384 128 207 128 c 256
 168.619908991 128 138 160.673205616 138 199 c 256
512 199 m 256
 512 236.152102323 542.099645985 269 579 269 c 0
 617.693061275 269 652 238.256178023 652 199 c 0
 652 159.619753498 618.242857393 128 579 128 c 0
 541.582352958 128 512 161.773550238 512 199 c 256
EndSplineSet
EndChar

StartChar: uni0B89
Encoding: 264 2953 9
Width: 743
GlyphClass: 2
Flags: HW
LayerCount: 2
Back
Fore
SplineSet
18 64 m 256
 18 105.391154681 66.2027382606 130 111 130 c 2
 270 130 l 2
 328.267379177 130 367 191.494896709 367 253 c 0
 367 313.752643586 325.294799299 372 267 372 c 2
 222 372 l 1
 260.479080514 362.105379296 301 329.828869691 301 285 c 0
 301 211.146523715 241.676642232 171 165 171 c 0
 95.5736585251 171 29 218.276762908 29 285 c 0
 29 381.554752099 128.053818303 407 238 407 c 0
 316.666666667 407 379.333333333 393 426 365 c 0
 473.333333333 336.333333333 497 298.666666667 497 252 c 0
 497 145.645105852 393.560677932 95 279 95 c 2
 160 95 l 1
 152 88.3333333333 148 71.6666666667 148 63 c 0
 148 53.6666666667 152.333333333 36 161 30 c 1
 740 30 l 1
 740 0 l 1
 125 0 l 2
 78.6501254566 0 18 21.1830853616 18 64 c 256
64 286 m 256
 64 252.575156944 83.9753530286 216 115 216 c 0
 147.967438575 216 171 250.678026607 171 286 c 0
 171 321.342804005 147.981008414 356 115 356 c 0
 83.9911230567 356 64 319.398000565 64 286 c 256
EndSplineSet
EndChar

StartChar: uni0B8A
Encoding: 265 2954 10
Width: 1363
GlyphClass: 2
Flags: HW
LayerCount: 2
Back
Fore
SplineSet
18 64 m 256
 18 105.391154681 66.2027382606 130 111 130 c 2
 270 130 l 2
 328.267379177 130 367 191.494896709 367 253 c 0
 367 313.752643586 325.294799299 372 267 372 c 2
 222 372 l 1
 260.479080514 362.105379296 301 329.828869691 301 285 c 0
 301 211.146523715 241.676642232 171 165 171 c 0
 95.5736585251 171 29 218.276762908 29 285 c 0
 29 381.554752099 128.053818303 407 238 407 c 0
 316.666666667 407 379.333333333 393 426 365 c 0
 473.333333333 336.333333333 497 298.666666667 497 252 c 0
 497 145.645105852 393.560677932 95 279 95 c 2
 160 95 l 1
 152 88.3333333333 148 71.6666666667 148 63 c 0
 148 53.6666666667 152.333333333 36 161 30 c 1
 1360 30 l 1
 1360 0 l 1
 110 0 l 2
 67.2145447756 0 18 23.5679736386 18 64 c 256
64 286 m 256
 64 252.575156944 83.9753530286 216 115 216 c 0
 147.967438575 216 171 250.678026607 171 286 c 0
 171 321.342804005 147.981008414 356 115 356 c 0
 83.9911230567 356 64 319.398000565 64 286 c 256
551 228 m 0
 551 275.333333333 570.666666667 316 610 350 c 0
 650 383.333333333 698 400 754 400 c 0
 841.053631624 400 919.389630697 378.330424015 958 334 c 1
 958 400 l 1
 1279 400 l 1
 1279 370 l 1
 1260 370 l 1
 1260 95 l 1
 1130 95 l 1
 1130 370 l 1
 1057 370 l 1
 1057 95 l 1
 927 95 l 1
 927 285 l 1
 889.541557767 330.404172404 831.576593296 370 755 370 c 0
 668.014781399 370 586 308.790670456 586 224 c 0
 586 179.469880364 610.051516045 146.334216465 637 125 c 1
 623.755035196 142.659953073 612 162.504675541 612 190 c 0
 612 265.629071307 670.120271889 308 748 308 c 256
 825.327277818 308 884 265.761953333 884 191 c 0
 884 115.401437378 824.519436062 73 746 73 c 0
 692 73 646 88 608 118 c 0
 570 148.666666667 551 185.333333333 551 228 c 0
647 188 m 0
 647 154.575156944 666.975353029 118 698 118 c 0
 731.426084975 118 754 153.656081001 754 189 c 0
 754 225.759741815 731.851408014 263 698 263 c 0
 665.798543693 263 647 222.689555925 647 188 c 0
EndSplineSet
EndChar

StartChar: uni0B8E
Encoding: 266 2958 11
Width: 726
GlyphClass: 2
Flags: HW
LayerCount: 2
Back
Fore
SplineSet
19 183 m 0
 19 243 41.3333333333 294 86 336 c 0
 130.666666667 378.666666667 184.333333333 400 247 400 c 2
 723 400 l 1
 723 370 l 1
 637 370 l 1
 637 0 l 1
 507 0 l 1
 507 370 l 1
 247 370 l 2
 142.388120291 370 54 284.359415581 54 180 c 0
 54 125.490281527 76.6268427186 76.5130016541 113 59 c 1
 100.992408386 74.2823893274 90 95.5963159631 90 120 c 0
 90 198.749298278 161.566082003 260 242 260 c 256
 320.096207054 260 394 205.371554574 394 130 c 0
 394 49.2858741248 318.074661092 -10 236 -10 c 0
 176 -10 125 9 83 47 c 0
 40.3333333333 84.3333333333 19 129.666666667 19 183 c 0
125 117 m 0
 125 76.7408966137 152.206764582 37 192 37 c 0
 233.678489605 37 264 76.301527888 264 119 c 0
 264 161.655961621 233.194954554 200 192 200 c 0
 151.722523299 200 125 157.84128191 125 117 c 0
EndSplineSet
EndChar

StartChar: uni0B8F
Encoding: 267 2959 12
Width: 726
GlyphClass: 2
Flags: HW
LayerCount: 2
Back
Fore
SplineSet
19 183 m 0
 19 243 41.3333333333 294 86 336 c 0
 130.666666667 378.666666667 184.333333333 400 247 400 c 2
 723 400 l 1
 723 370 l 1
 639 370 l 1
 639 0 l 1
 277 -141 l 1
 262 -117 l 1
 509 -1 l 1
 509 370 l 1
 247 370 l 2
 142.388120291 370 54 284.359415581 54 180 c 0
 54 124.935884651 76.6184080483 76.3557391205 114 59 c 1
 101.209701228 74.9878734652 90 94.8052488578 90 120 c 0
 90 199.269345805 160.416202139 260 241 260 c 256
 319.17272959 260 394 204.549274837 394 128 c 0
 394 47.9854950965 318.044145619 -10 236 -10 c 0
 176 -10 125 9 83 47 c 0
 40.3333333333 84.3333333333 19 129.666666667 19 183 c 0
125 117 m 0
 125 76.7408966137 152.206764582 37 192 37 c 0
 233.678489605 37 264 76.301527888 264 119 c 0
 264 161.655961621 233.194954554 200 192 200 c 0
 151.722523299 200 125 157.84128191 125 117 c 0
EndSplineSet
EndChar

StartChar: uni0B90
Encoding: 268 2960 13
Width: 759
GlyphClass: 2
Flags: HW
LayerCount: 2
Back
Fore
SplineSet
14 -59 m 0
 14 37.2661882111 100.291653381 85 202 85 c 2
 504 85 l 2
 569.571602627 85 610 161.557244443 610 231 c 0
 610 294.321730019 582.964637881 378 527 378 c 0
 490.086565675 378 475 313.381804828 475 270 c 2
 475 138 l 1
 345 138 l 1
 345 259 l 2
 345 329.106152784 273.971489946 378 201 378 c 0
 125.479144802 378 52 328.591298529 52 257 c 0
 52 211.996835467 76.969188391 176.6040043 111 164 c 1
 95.8424939334 179.157506067 82 202.342833022 82 229 c 0
 82 285.962822079 132.361388202 330 189 330 c 0
 252.485223177 330 296 291.930859287 296 230 c 0
 296 161.05385781 235.076315135 127 163 127 c 256
 86.4770417858 127 17 183.401862717 17 258 c 0
 17 300.666666667 35.6666666667 337.333333333 73 368 c 0
 110.333333333 398 155.666666667 413 209 413 c 0
 297.029876402 413 371.830322651 375.266635832 407 320 c 1
 425.780132253 369.297847163 473.355963797 413 538 413 c 0
 655.308872871 413 740 343.409592446 740 228 c 0
 740 108.748931267 629.809421801 50 503 50 c 2
 257 50 l 2
 196.668251002 50 147 1.03532300823 147 -59 c 0
 147 -115.031998348 187.556891185 -166 243 -166 c 0
 299.055598494 -166 345 -117.29398536 345 -61 c 2
 345 2 l 1
 475 2 l 1
 475 -71 l 2
 475 -125.007528887 514.250873536 -176 567 -176 c 0
 617.15021374 -176 649 -119.806891274 649 -67 c 2
 649 2 l 1
 684 2 l 1
 684 -67 l 2
 684 -160.485736418 620.744925142 -221 527 -221 c 0
 454.329518465 -221 395.255701913 -184.788019714 371 -135 c 1
 337.677908581 -182.602987741 276.253467442 -221 199 -221 c 0
 93.0958498182 -221 14 -161.712894715 14 -59 c 0
117 229 m 0
 117 198.29233592 133.274958873 162 161 162 c 0
 191.013266702 162 210 193.587822355 210 225 c 0
 210 258.354444963 191.316329261 295 161 295 c 0
 132.820553765 295 117 258.971318847 117 229 c 0
EndSplineSet
EndChar

StartChar: uni0B92
Encoding: 269 2962 14
Width: 767
GlyphClass: 2
Flags: HW
LayerCount: 2
Back
Fore
SplineSet
20 156 m 0
 20 329.61772238 168.164218033 420 350 420 c 0
 470.666666667 420 567 395.666666667 639 347 c 0
 711.666666667 299 748 234.666666667 748 154 c 0
 748 57.8341770349 678.570596512 -2 581 -2 c 0
 512.83860428 -2 446 42.8146965577 446 108 c 2
 446 131 l 1
 431.333333333 121 424.666666667 107.666666667 416 91 c 0
 408 75 404 58 404 40 c 0
 404 -24.3570921728 468.750796921 -69 535 -69 c 2
 644 -69 l 1
 644 -104 l 1
 489 -104 l 2
 457.876659463 -104 440 -141.982615942 440 -176 c 0
 440 -208 419.333333333 -233.666666667 378 -253 c 0
 336 -272.333333333 280.666666667 -282 212 -282 c 0
 129.109191468 -282 55 -245.625175389 55 -168 c 0
 55 -133.675242353 83.1632309286 -106.902061443 108 -92 c 1
 125 -110 l 1
 107.460213123 -123.412778201 90 -142.743699612 90 -169 c 0
 90 -221.653087036 138.087245173 -247 194 -247 c 0
 251.823680383 -247 310 -225.692835106 310 -174 c 0
 310 -115.817727321 379.782115691 -80 442 -80 c 1
 398.362749031 -65.4542496772 369 -15.2351925828 369 43 c 0
 369 113.893881757 427.401761902 173 498 173 c 1
 486.331218203 159.872620477 481 135.444955855 481 109 c 0
 481 71.1612426569 510.122954589 40 547 40 c 0
 597.603743945 40 618 96.7110683021 618 153 c 0
 618 217 591.333333333 271.666666667 538 317 c 0
 484 362.333333333 419.333333333 385 344 385 c 0
 264 385 196 362.666666667 140 318 c 0
 83.3333333333 273.333333333 55 219.333333333 55 156 c 0
 55 97.2815427775 83.9425890019 43.6572403629 127 28 c 1
 107.336407215 45.4787491423 90 72.1099321988 90 105 c 0
 90 170.701040858 148.526353095 223 215 223 c 0
 289.662748049 223 340 174.752242765 340 100 c 0
 340 28.8243158726 281.991888539 -10 208 -10 c 0
 100.010096757 -10 20 50.8132057435 20 156 c 0
125 106 m 0
 125 71.8799534255 150.558850652 40 185 40 c 0
 217.751997117 40 243 70.0418455973 243 104 c 0
 243 139.512564824 219.186642265 173 185 173 c 0
 151.080353835 173 125 140.696934422 125 106 c 0
EndSplineSet
EndChar

StartChar: uni0B93
Encoding: 270 2963 15
Width: 767
GlyphClass: 2
Flags: HW
LayerCount: 2
Back
Fore
SplineSet
20 156 m 0
 20 329.61772238 168.164218033 420 350 420 c 0
 470.666666667 420 567 395.666666667 639 347 c 0
 711.666666667 299 748 234.666666667 748 154 c 0
 748 57.8341770349 678.570596512 -2 581 -2 c 0
 512.83860428 -2 446 42.8146965577 446 108 c 2
 446 131 l 1
 431.333333333 121 424.666666667 107.666666667 416 91 c 0
 408 75 404 58 404 40 c 0
 404 -24.3570921728 468.750796921 -69 535 -69 c 2
 644 -69 l 1
 644 -104 l 1
 534 -104 l 2
 489.918569783 -104 446 -133.423305307 446 -176 c 0
 446 -214 424.666666667 -244.666666667 382 -268 c 0
 340 -290.666666667 283.666666667 -302 213 -302 c 0
 129.30764755 -302 40 -251.5625214 40 -173 c 256
 40 -98.0096503207 113.386640522 -44 191 -44 c 0
 246.375639595 -44 297 -82.8967429099 297 -137 c 256
 297 -186.959342011 260.172510284 -230 211 -230 c 0
 165.509158003 -230 120 -200.998198114 120 -158 c 0
 120 -140.613152025 127.966038698 -123.919076712 138 -115 c 1
 105.733077053 -115 80 -142.161425868 80 -174 c 0
 80 -237.896595739 144.012592401 -267 214 -267 c 0
 271.929223904 -267 310 -230.948490669 310 -174 c 0
 310 -115.817727321 379.782115691 -80 442 -80 c 1
 399.515675992 -65.8385586641 369 -18.5149077126 369 38 c 0
 369 110.32234459 426.888712141 173 498 173 c 1
 486.331218203 159.872620477 481 135.444955855 481 109 c 0
 481 71.2237956231 510.130611029 38 547 38 c 0
 592.866599618 38 618 101.844619085 618 153 c 0
 618 301.750377211 498.462706905 385 344 385 c 0
 186.256431493 385 55 306.703927934 55 156 c 0
 55 97.2815427775 83.9425890019 43.6572403629 127 28 c 1
 107.336407215 45.4787491423 90 72.1099321988 90 105 c 0
 90 171.226749404 148.098085955 223 214 223 c 0
 288.7622184 223 340 175.266544946 340 100 c 0
 340 28.8243158726 281.991888539 -10 208 -10 c 0
 100.010096757 -10 20 50.8132057435 20 156 c 0
125 106 m 0
 125 71.8799534255 150.558850652 40 185 40 c 0
 218.735368737 40 243 71.9218214183 243 106 c 0
 243 140.686901694 218.228666208 173 185 173 c 0
 151.080353835 173 125 140.696934422 125 106 c 0
162 -159 m 256
 162 -182.500059437 182.960813875 -200 207 -200 c 0
 230.24084933 -200 251 -181.999216503 251 -159 c 0
 251 -135.881835698 230.790847827 -117 207 -117 c 0
 182.39615005 -117 162 -135.356815091 162 -159 c 256
EndSplineSet
EndChar

StartChar: uni0B95
Encoding: 272 2965 17
Width: 619
GlyphClass: 2
Flags: HW
LayerCount: 2
Back
Fore
SplineSet
13 134 m 0
 13 189.362956441 55.974809285 220 113 220 c 2
 138 220 l 1
 138 400 l 1
 522 400 l 1
 522 370 l 1
 399 370 l 1
 399 220 l 1
 480 220 l 2
 550.655435155 220 605 182.089534357 605 114 c 0
 605 73.3333333333 589 44 557 26 c 0
 525 8.66666666667 472.333333333 0 399 0 c 1
 399 30 l 1
 457.605437758 30 475 53.3652777125 475 113 c 0
 475 155.863795391 460.046902649 185 420 185 c 2
 399 185 l 1
 399 131 l 2
 399 87 379.333333333 54 340 32 c 0
 301.333333333 9.33333333333 243.666666667 -2 167 -2 c 0
 86.843424522 -2 13 55.9396249616 13 134 c 0
48 135 m 0
 48 70.0669384985 100.840256842 33 168 33 c 0
 228.631693167 33 283 79.1169699263 283 138 c 2
 283 185 l 1
 115 185 l 2
 79.8863313287 185 48 168.973632678 48 135 c 0
173 220 m 1
 283 220 l 1
 283 370 l 1
 173 370 l 1
 173 220 l 1
EndSplineSet
EndChar

StartChar: uni0B99
Encoding: 273 2969 18
Width: 790
GlyphClass: 2
Flags: HW
LayerCount: 2
Back
Fore
SplineSet
45 0 m 1
 45 400 l 1
 509 400 l 1
 509 370 l 1
 348 370 l 1
 348 257 l 1
 376 275.666666667 407.333333333 285 442 285 c 0
 522.709022824 285 574 228.950351982 574 147 c 0
 574 89.8005415924 533.789062699 47.285156329 490 30 c 1
 615 30 l 1
 615 400 l 1
 745 400 l 1
 745 0 l 1
 218 0 l 1
 218 30 l 1
 384 30 l 1
 419.332035575 48.9278762004 444 93.4261450333 444 147 c 256
 444 189.753618046 422.153715003 240 383 240 c 0
 373.666666667 240 355.333333333 235.666666667 348 227 c 1
 348 110 l 1
 218 110 l 1
 218 370 l 1
 80 370 l 1
 80 0 l 1
 45 0 l 1
EndSplineSet
EndChar

StartChar: uni0B9A
Encoding: 274 2970 19
Width: 532
GlyphClass: 2
Flags: HW
LayerCount: 2
Back
Fore
SplineSet
14 137 m 0
 14 191.102073584 58.7397723807 220 114 220 c 2
 128 220 l 1
 128 400 l 1
 524 400 l 1
 524 370 l 1
 414 370 l 1
 414 220 l 1
 524 220 l 1
 524 185 l 1
 414 185 l 1
 414 137 l 2
 414 37.6555243065 302.359478442 -2 193 -2 c 0
 95.9594122207 -2 14 44.8960913682 14 137 c 0
49 137 m 0
 49 66.3187709098 117.247720289 33 194 33 c 0
 251.687653541 33 284 78.4137858266 284 137 c 2
 284 185 l 1
 116 185 l 2
 80.9775779956 185 49 170.242525197 49 137 c 0
163 220 m 1
 284 220 l 1
 284 370 l 1
 163 370 l 1
 163 220 l 1
EndSplineSet
EndChar

StartChar: uni0B9C
Encoding: 275 2972 20
Width: 771
GlyphClass: 2
Flags: HW
LayerCount: 2
Back
Fore
SplineSet
8 -64 m 0
 8 27.9566734745 115.0896674 85 212 85 c 2
 494 85 l 2
 567.585536931 85 621 155.674518282 621 231 c 0
 621 289.837645744 598.440480702 373 548 373 c 0
 503.810575907 373 477 318.395690824 477 271 c 2
 477 138 l 1
 347 138 l 1
 347 259 l 2
 347 329.682014676 265.482048178 373 190 373 c 0
 119.722483741 373 52 325.373284531 52 257 c 0
 52 208.000662968 78.2411457407 158.423329751 121 154 c 1
 96.3197734923 162.710668179 82 194.650400774 82 229 c 0
 82 291.468996133 126.051317658 330 189 330 c 256
 253.047850854 330 296 289.135600426 296 225 c 0
 296 160.090321857 236.771307249 127 168 127 c 0
 81.8996068428 127 17 174.775656308 17 258 c 0
 17 348.670047659 113.947211781 408 209 408 c 0
 298.393092686 408 371.412874363 374.039709301 407 320 c 1
 426.689519493 372.505385314 487.986689662 408 560 408 c 0
 682.378059894 408 751 352.914749234 751 233 c 0
 751 95.7466708134 641.739729873 50 493 50 c 2
 237 50 l 2
 171.942283273 50 117 -0.14677983364 117 -64 c 0
 117 -122.117334188 152.148242035 -183 207 -183 c 0
 227 -183 250.333333333 -174.666666667 277 -158 c 0
 303.666666667 -142 331.666666667 -118.666666667 361 -88 c 0
 408.490226834 -39.4544347918 475.536821837 9 560 9 c 0
 655.594033498 9 751 -26.8882519784 751 -114 c 0
 751 -196.949381563 651.63633994 -228 558 -228 c 0
 503.25076752 -228 458.545460935 -209.79752734 431 -181 c 1
 446 -157 l 1
 472.450331527 -178.41217314 510.911925819 -193 558 -193 c 0
 596.341527922 -193 621 -153.129617637 621 -113 c 0
 621 -68.7876076033 592.081893329 -26 549 -26 c 0
 502.333333333 -26 444.666666667 -58 376 -122 c 256
 307.333333333 -186 249.666666667 -218 203 -218 c 0
 96.562297264 -218 8 -165.958409491 8 -64 c 0
117 229 m 0
 117 198.29233592 133.274958873 162 161 162 c 0
 191.013266702 162 210 193.587822355 210 225 c 0
 210 258.354444963 191.316329261 295 161 295 c 0
 132.820553765 295 117 258.971318847 117 229 c 0
EndSplineSet
EndChar

StartChar: uni0B9E
Encoding: 276 2974 21
Width: 1016
GlyphClass: 2
Flags: HW
LayerCount: 2
Back
Fore
SplineSet
24 126 m 0
 24 240.338035328 84.6023207929 330.602320793 149 395 c 1
 169 373 l 1
 133.666666667 336.333333333 106.666666667 296.666666667 88 254 c 0
 68.6666666667 211.333333333 59 168.333333333 59 125 c 0
 59 24.3333333333 96.6666666667 -59 172 -125 c 0
 246.666666667 -191 341.333333333 -224 456 -224 c 0
 688.728200392 -224 868 -130.049344758 868 89 c 0
 868 145.261162297 832.665605843 202 779 202 c 0
 756.396217716 202 741 178.323828724 741 155 c 2
 741 0 l 1
 611 0 l 1
 611 370 l 1
 442 370 l 2
 376.666666667 370 320.666666667 352 274 316 c 0
 228 280 205 236.333333333 205 185 c 0
 205 123.521210297 227.727743711 71.8698607361 266 50 c 1
 251.83486737 65.4528719605 244 91.1334389096 244 120 c 0
 244 207.00610368 305.851526682 262 394 262 c 256
 480.437632111 262 544 212.791391955 544 129 c 256
 544 41.0244431096 463.625506996 -3 370 -3 c 0
 252.487370549 -3 170 68.5750487908 170 184 c 0
 170 246.666666667 196 298.333333333 248 339 c 0
 299.333333333 379.666666667 364.666666667 400 444 400 c 2
 837 400 l 1
 837 370 l 1
 741 370 l 1
 741 228 l 1
 765.666666667 244 793.333333333 252 824 252 c 0
 926.110354664 252 998 188.28850745 998 88 c 0
 998 -22 950.666666667 -107.333333333 856 -168 c 0
 760.666666667 -228.666666667 627.333333333 -259 456 -259 c 0
 331.333333333 -259 228 -222.666666667 146 -150 c 0
 64.6666666667 -77.3333333333 24 14.6666666667 24 126 c 0
279 117 m 0
 279 75.5495632586 304.462383126 32 344 32 c 0
 386.072883188 32 414 76.0705242386 414 119 c 0
 414 161.184827926 384.606940319 203 344 203 c 0
 304.039702149 203 279 159.188697535 279 117 c 0
EndSplineSet
EndChar

StartChar: uni0B9F
Encoding: 277 2975 22
Width: 802
GlyphClass: 2
Flags: HW
LayerCount: 2
Back
Fore
SplineSet
45 0 m 1
 45 400 l 1
 175 400 l 1
 175 30 l 1
 799 30 l 1
 799 0 l 1
 45 0 l 1
EndSplineSet
EndChar

StartChar: uni0BA3
Encoding: 278 2979 23
Width: 1229
GlyphClass: 2
Flags: HW
LayerCount: 2
Back
Fore
SplineSet
20 173 m 0
 20 324.386282681 147.173412165 405 306 405 c 0
 360 405 406 401 444 393 c 0
 482 385.666666667 510 374.666666667 528 360 c 1
 559.97993489 386.057724725 605.910127203 405 660 405 c 0
 732.067710337 405 792.621189624 387.957087954 833 357 c 1
 872.333333333 385.666666667 914.666666667 400 960 400 c 2
 1226 400 l 1
 1226 370 l 1
 1144 370 l 1
 1144 0 l 1
 1014 0 l 1
 1014 370 l 1
 963 370 l 2
 929.666666667 370 899.666666667 360 873 340 c 1
 923.330949699 292.951503542 970 224.7411475 970 137 c 0
 970 58.4233895744 909.650863162 -11 831 -11 c 0
 752.908779867 -11 693 57.8904816538 693 137 c 0
 693 212.994987911 724.033042601 276.280473299 762 320 c 1
 738.129426854 347.280655024 700.454564944 370 653 370 c 0
 616.71867335 370 586.684043413 353.363273238 564 335 c 1
 616.248784439 289.149025901 667 223.114966679 667 137 c 0
 667 57.3062757762 603.590024698 -11 524 -11 c 256
 444.41495954 -11 381 57.3098336752 381 137 c 0
 381 213.178514196 410.485279331 276.287863553 450 317 c 1
 413.354671184 349.854432731 353.958571873 370 286 370 c 0
 222 370 167.666666667 351 123 313 c 0
 77.6666666667 275 55 229 55 175 c 0
 55 113.930946 77.8320248451 54.8282575567 121 39 c 1
 104.872384864 56.3682009148 95 85.5466133069 95 118 c 0
 95 199.830682702 148.483490342 254 230 254 c 0
 304.041410685 254 366 194.091498188 366 120 c 0
 366 31.6611959859 282.730109777 -11 189 -11 c 0
 93.2131107591 -11 20 75.2844492162 20 173 c 0
130 117 m 256
 130 83.5795235357 148.008182123 44 180 44 c 0
 213.834878832 44 236 81.2686054016 236 118 c 0
 236 153.361536841 213.441262257 189 180 189 c 0
 148.426729356 189 130 150.451592793 130 117 c 256
416 137 m 0
 416 94.9253162186 437.17184 44 476 44 c 256
 515.127236825 44 537 94.2921647411 537 137 c 0
 537 201.395406251 509.722043567 254.115127343 476 289 c 1
 442.495836139 253.185204148 416 200.479320871 416 137 c 0
728 137 m 0
 728 95.0488210897 747.932877399 44 786 44 c 0
 821.928120503 44 840 96.6579990845 840 137 c 0
 840 200.720997338 816.845018042 253.938499808 784 288 c 1
 750.60309772 254.60309772 728 201.164503601 728 137 c 0
EndSplineSet
EndChar

StartChar: uni0BA4
Encoding: 279 2980 24
Width: 638
GlyphClass: 2
Flags: HW
LayerCount: 2
Back
Fore
SplineSet
-7 -169 m 0
 -7 -107.830203651 51.6023017447 -63 115 -63 c 2
 341 -63 l 2
 424.348691687 -63 492 4.65360054314 492 88 c 0
 492 128.780445568 474.562138768 185 438 185 c 2
 413 185 l 1
 413 131 l 2
 413 87 393.333333333 54 354 32 c 0
 315.333333333 9.33333333333 257.666666667 -2 181 -2 c 0
 96.5707902813 -2 13 53.2355742672 13 134 c 0
 13 190.256493164 58.5078466948 220 117 220 c 2
 133 220 l 1
 133 400 l 1
 522 400 l 1
 522 370 l 1
 413 370 l 1
 413 220 l 1
 484 220 l 2
 558.423054698 220 622 159.983395186 622 85 c 0
 622 -40.6600073036 497.430320536 -98 362 -98 c 2
 111 -98 l 2
 75.8155803644 -98 33 -115.194167269 33 -147 c 1
 41.1329488886 -140.028900953 51.135603539 -135 65 -135 c 0
 92.491504997 -135 123 -151.605618795 123 -178 c 256
 123 -206.10139717 85.5999632748 -222 55 -222 c 0
 23.4393353148 -222 -7 -199.898704008 -7 -169 c 0
48 135 m 0
 48 67.4527019034 109.883953125 33 182 33 c 0
 237.938943017 33 283 82.253429903 283 138 c 2
 283 185 l 1
 115 185 l 2
 82.8266117193 185 48 165.382807605 48 135 c 0
168 220 m 1
 283 220 l 1
 283 370 l 1
 168 370 l 1
 168 220 l 1
EndSplineSet
EndChar

StartChar: uni0BA8
Encoding: 280 2984 25
Width: 614
GlyphClass: 2
Flags: HW
LayerCount: 2
Back
Fore
SplineSet
5 -169 m 0
 5 -107.34834907 64.5526029438 -63 128 -63 c 2
 304 -63 l 2
 417.152734909 -63 466 -9.45544927413 466 105 c 0
 466 156.333533858 438.610496291 217 391 217 c 0
 369.149563624 217 351 200.176469203 351 179 c 2
 351 0 l 1
 221 0 l 1
 221 370 l 1
 80 370 l 1
 80 0 l 1
 45 0 l 1
 45 400 l 1
 512 400 l 1
 512 370 l 1
 351 370 l 1
 351 230 l 1
 375.666666667 248 405.333333333 257 440 257 c 0
 525.329389725 257 596 187.653588769 596 103 c 0
 596 -42.1972688245 459.892794081 -98 301 -98 c 2
 124 -98 l 2
 91.4723553172 -98 50 -113.28074028 50 -142 c 1
 54.2679857784 -141.146402844 68.4415077059 -135 73 -135 c 0
 102.354279778 -135 130 -153.771889363 130 -181 c 0
 130 -207.028517813 95.4993483943 -220 67 -220 c 256
 35.4894679075 -220 5 -199.187378902 5 -169 c 0
EndSplineSet
EndChar

StartChar: uni0BA9
Encoding: 281 2985 26
Width: 926
GlyphClass: 2
Flags: HW
LayerCount: 2
Back
Fore
SplineSet
21 170 m 0
 21 324.338134393 142.190578451 412 302 412 c 0
 397.358896906 412 484.977788465 397.01698529 536 358 c 1
 559.521816156 385.67272489 607.088096369 400 660 400 c 2
 922 400 l 1
 922 367 l 1
 840 367 l 1
 840 0 l 1
 710 0 l 1
 710 367 l 1
 659 367 l 2
 624.022951604 367 589.183752433 359.655002655 573 342 c 1
 624.025278995 299.478934171 661 226.588285324 661 137 c 0
 661 53.091197931 607.052274769 -5 523 -5 c 256
 438.944111562 -5 385 53.0970442454 385 137 c 0
 385 214.934690374 411.239359269 280.45943936 453 317 c 1
 411.604865857 350.346080282 358.062674747 377 289 377 c 0
 155.513170271 377 56 301.410469567 56 172 c 0
 56 109.010159177 84.3309109217 49.1421482056 131 35 c 1
 107.909293718 50.8748605685 96 86.4726057227 96 127 c 0
 96 205.41156114 152.166449347 254 231 254 c 0
 311.749861691 254 367 204.909770919 367 125 c 256
 367 40.716413297 295.252118648 -5 207 -5 c 0
 98.1575297302 -5 21 62.5629606154 21 170 c 0
131 122 m 0
 131 86.7591256647 148.011409739 42 181 42 c 0
 215.767872232 42 237 82.6702333709 237 120 c 0
 237 158.102964156 216.218858573 199 181 199 c 0
 149.174571674 199 131 156.648724773 131 122 c 0
420 137 m 0
 420 97.5193320137 437.522261821 42 473 42 c 0
 510.958652606 42 531 95.2794969876 531 137 c 0
 531 202.997136187 509.466567504 259.045319552 473 289 c 1
 437.354517639 261.909433406 420 202.25932194 420 137 c 0
EndSplineSet
EndChar

StartChar: uni0BAA
Encoding: 282 2986 27
Width: 692
GlyphClass: 2
Flags: HW
LayerCount: 2
Back
Fore
SplineSet
45 0 m 1
 45 400 l 1
 175 400 l 1
 175 30 l 1
 517 30 l 1
 517 400 l 1
 647 400 l 1
 647 0 l 1
 45 0 l 1
EndSplineSet
EndChar

StartChar: uni0BAE
Encoding: 283 2990 28
Width: 667
GlyphClass: 2
Flags: HW
LayerCount: 2
Back
Fore
SplineSet
45 0 m 1
 45 400 l 1
 175 400 l 1
 175 30 l 1
 319 30 l 1
 319 272 l 2
 319 347.63524244 385.640456619 406 462 406 c 0
 581.512748952 406 643 303.172534007 643 178 c 0
 643 86.3699602738 605.882560395 0 522 0 c 2
 45 0 l 1
449 30 m 1
 512 30 l 2
 580.434572331 30 608 104.806609076 608 180 c 0
 608 266.060039199 581.428169892 361 505 361 c 0
 468.719518948 361 449 314.969073208 449 275 c 2
 449 30 l 1
EndSplineSet
EndChar

StartChar: uni0BAF
Encoding: 284 2991 29
Width: 712
GlyphClass: 2
Flags: HW
LayerCount: 2
Back
Fore
SplineSet
40 119 m 2
 40 400 l 1
 170 400 l 1
 170 69 l 257
 175.333333333 57 190 51 198 51 c 0
 206.666666667 51 223 57 229 69 c 257
 229 400 l 1
 359 400 l 1
 359 30 l 1
 537 30 l 1
 537 400 l 1
 667 400 l 1
 667 0 l 1
 247 0 l 1
 247 66 l 1
 237.450731987 26.609269444 201.717629443 -9 155 -9 c 0
 88.6300820659 -9 40 52.1716962248 40 119 c 2
EndSplineSet
EndChar

StartChar: uni0BB0
Encoding: 285 2992 30
Width: 454
GlyphClass: 2
Flags: HW
LayerCount: 2
Back
Fore
SplineSet
42 -142 m 1
 224 0 l 1
 224 370 l 1
 80 370 l 1
 80 0 l 1
 45 0 l 1
 45 400 l 1
 451 400 l 1
 451 370 l 1
 354 370 l 1
 354 14 l 1
 58 -165 l 1
 42 -142 l 1
EndSplineSet
EndChar

StartChar: uni0BB1
Encoding: 286 2993 31
Width: 647
GlyphClass: 2
Flags: HW
LayerCount: 2
Back
Fore
SplineSet
9 -169 m 0
 9 -108.787403904 65.100590515 -63 127 -63 c 2
 337 -63 l 2
 379.666666667 -63 416.333333333 -40 447 6 c 0
 477 52 492 107.333333333 492 172 c 0
 492 228 483.666666667 275.666666667 467 315 c 256
 450.333333333 354.333333333 430.333333333 374 407 374 c 0
 362.246961381 374 338 315.230501412 338 266 c 2
 338 0 l 1
 208 0 l 1
 208 305 l 2
 208 343.380091009 177.379082427 374 139 374 c 0
 103.455213212 374 76 341.125126689 76 304 c 2
 76 0 l 1
 41 0 l 1
 41 307 l 2
 41 365.526869948 96.9247390355 409 157 409 c 0
 223.501650109 409 279.122775288 378.193061781 298 331 c 1
 315.223178536 371.187416584 355.469780291 409 410 409 c 0
 562.414200816 409 622 328.546779445 622 172 c 0
 622 97.3333333333 594.666666667 33.6666666667 540 -19 c 0
 484.666666667 -71.6666666667 418.333333333 -98 341 -98 c 2
 128 -98 l 2
 89.5955553468 -98 52.4965825957 -113.512986135 45 -142 c 1
 73 -142 l 2
 87 -142 99 -139.333333333 109 -148 c 0
 119 -157.333333333 124 -168.333333333 124 -181 c 0
 124 -204.628212726 96.9838076274 -220 71 -220 c 0
 39.4894679075 -220 9 -199.187378902 9 -169 c 0
EndSplineSet
EndChar

StartChar: uni0BB2
Encoding: 287 2994 32
Width: 746
GlyphClass: 2
Flags: HW
LayerCount: 2
Back
Fore
SplineSet
19 180 m 0
 19 242 43 294.666666667 91 338 c 0
 139 382 197 404 265 404 c 0
 391.851074961 404 522 359.986256694 522 246 c 2
 522 117 l 2
 522 76.1285990588 549.716399688 36 589 36 c 0
 658.468086525 36 683 125.482129005 683 204 c 0
 683 230.666666667 675.333333333 257.666666667 660 285 c 0
 645.333333333 312.333333333 624.333333333 337.333333333 597 360 c 0
 589.804062731 366.16794623 583 375.883949086 583 387 c 0
 583 406.645048638 601.722018089 422 623 422 c 0
 649 422 671.333333333 400.666666667 690 358 c 256
 708.666666667 315.333333333 718 264 718 204 c 0
 718 77.4653640877 668.327458504 -4 548 -4 c 0
 463.766963375 -4 392 34.8910295432 392 114 c 2
 392 247 l 2
 392 322.196433563 337.69726837 369 261 369 c 0
 203.666666667 369 155 350.666666667 115 314 c 0
 74.3333333333 277.333333333 54 233.333333333 54 182 c 0
 54 118.993207667 80.537814114 69.6414572572 119 44 c 1
 102.925559097 60.0744409028 93 90.4751792088 93 123 c 0
 93 196.407546722 153.267979166 258 226 258 c 0
 307.389388367 258 360 201.958208314 360 120 c 0
 360 39.9384983876 293.440099788 -4 210 -4 c 0
 107.149439224 -4 19 77.9293570969 19 180 c 0
128 114 m 0
 128 78.3831354187 143.516496964 31 176 31 c 0
 210.698544055 31 230 76.7498349424 230 114 c 0
 230 152.003077719 210.252957557 198 176 198 c 0
 143.983104729 198 128 150.304349268 128 114 c 0
EndSplineSet
EndChar

StartChar: uni0BB3
Encoding: 288 2995 33
Width: 917
GlyphClass: 2
Flags: HW
LayerCount: 2
Back
Fore
SplineSet
19 193 m 0
 19 251 43 300.333333333 91 341 c 256
 139 381.666666667 196.666666667 402 264 402 c 0
 357.54532598 402 431.099398357 362.656290896 475 309 c 1
 475 400 l 1
 913 400 l 1
 913 367 l 1
 844 367 l 1
 844 0 l 1
 714 0 l 1
 714 367 l 1
 582 367 l 1
 582 0 l 1
 452 0 l 1
 452 218 l 1
 425.282385446 292.586673965 357.209510392 367 264 367 c 0
 206 367 156.666666667 350.333333333 116 317 c 0
 74.6666666667 283 54 242.333333333 54 195 c 0
 54 124.727056599 83.387534772 57.8708217427 134 41 c 1
 116.672858166 59.6599988978 107 91.1799315821 107 127 c 0
 107 207.838702701 161.176504566 260 243 260 c 256
 325.354038676 260 379 205.019622154 379 122 c 0
 379 38.1478711249 295.318522678 -1 205 -1 c 0
 101.465536026 -1 19 88.3130092677 19 193 c 0
142 118 m 0
 142 80.8006005777 159.833761658 34 193 34 c 0
 228.883883349 34 249 79.7568644602 249 119 c 0
 249 155.702981916 227.848595855 195 193 195 c 0
 160.867413062 195 142 153.324513402 142 118 c 0
EndSplineSet
EndChar

StartChar: uni0BB4
Encoding: 289 2996 34
Width: 667
GlyphClass: 2
Flags: HW
LayerCount: 2
Back
Fore
SplineSet
24 -173 m 0
 24 -107.830904539 90.8763021144 -63 159 -63 c 0
 200.95117891 -63 252 -82.9328773981 252 -121 c 0
 252 -150.106391102 203.883913097 -163 170 -163 c 0
 146.531778681 -163 122 -148.23180552 122 -126 c 0
 119.327616897 -113.974276034 123.642046438 -102.905302375 131 -98 c 1
 90.2781394619 -98 59 -133.465542284 59 -174 c 0
 59 -221.253251308 127.820988213 -245 180 -245 c 0
 227.102118111 -245 266 -206.806202744 266 -160 c 0
 266 -106.984361789 308.554133209 -63 362 -63 c 1
 335.563169699 -58.8257636367 319 -30.2651387044 319 0 c 1
 45 0 l 1
 45 400 l 1
 175 400 l 1
 175 30 l 1
 319 30 l 1
 319 267 l 2
 319 349.869308118 396.659903904 411 482 411 c 0
 526.666666667 411 564.666666667 389.666666667 596 347 c 256
 627.333333333 304.333333333 643 253 643 193 c 0
 643 96.2259980513 607.607803396 0 521 0 c 2
 448 0 l 1
 448 -33.407949503 474.031716406 -63 508 -63 c 2
 616 -63 l 1
 616 -98 l 1
 508 -98 l 2
 452.554571781 -98 396 -132.501810529 396 -185 c 0
 396 -211 375 -233.333333333 333 -252 c 256
 291 -270.666666667 240.333333333 -280 181 -280 c 0
 100.215400116 -280 24 -247.628109103 24 -173 c 0
449 30 m 1
 522 30 l 2
 581.977401742 30 608 127.203700506 608 195 c 0
 608 272.010198993 570.969771847 370 500 370 c 0
 464.78350164 370 449 311.401798786 449 271 c 2
 449 30 l 1
EndSplineSet
EndChar

StartChar: uni0BB5
Encoding: 290 2997 35
Width: 819
GlyphClass: 2
Flags: HW
LayerCount: 2
Back
Fore
SplineSet
21 182 m 0
 21 332.970159971 135.075501454 421 290 421 c 0
 440.776199824 421 560 342.128995621 560 198 c 0
 560 124.669579905 537.017017433 59.8185285007 495 30 c 1
 644 30 l 1
 644 400 l 1
 774 400 l 1
 774 0 l 1
 343 0 l 1
 343 27 l 1
 395.269554713 51.8280384883 430 119.441619893 430 196 c 0
 430 296.121368558 343.170882799 376 243 376 c 256
 139.625125489 376 56 286.146271905 56 182 c 0
 56 118.993207667 82.537814114 69.6414572572 121 44 c 1
 105.067241663 62.3839519271 95 90.7922669525 95 123 c 0
 95 203.470335938 148.125064876 258 229 258 c 256
 310.397014449 258 363 203.298373906 363 122 c 0
 363 39.5069023473 284.608821543 1 197 1 c 0
 89.2046311766 1 21 74.039175504 21 182 c 0
130 120 m 0
 130 82.9250204651 146.59574056 36 179 36 c 0
 213.698544055 36 233 81.7498349424 233 119 c 0
 233 155.797734333 213.001497623 198 179 198 c 0
 147.222068702 198 130 155.146960533 130 120 c 0
EndSplineSet
EndChar

StartChar: uni0BB7
Encoding: 291 2999 36
Width: 1060
GlyphClass: 2
Flags: HW
LayerCount: 2
Back
Fore
SplineSet
20 185 m 0
 20 332.716677216 139.343158919 415 292 415 c 256
 442.189409453 415 564 339.120969327 564 195 c 0
 564 121.089510913 534.032569764 61.6415954146 491 30 c 1
 707 30 l 1
 707 164 l 1
 637.650910095 164 574 213.870178195 574 281 c 0
 574 354.594315247 626.341132996 400 700 400 c 256
 764.862699886 400 837 364.608300411 837 304 c 2
 837 193 l 1
 859 193 881.333333333 203 904 223 c 0
 927.333333333 243 947.666666667 270 965 304 c 1
 1026 304 l 1
 1026 0 l 1
 837 0 l 1
 837 -242 l 1
 707 -242 l 1
 707 0 l 1
 347 0 l 1
 347 30 l 1
 397.314205332 57.6728129323 434 119.0428513 434 196 c 0
 434 304.258643953 353.824492593 370 244 370 c 256
 129.912941712 370 55 295.006033255 55 182 c 0
 55 120.506092943 85.4205099986 69.1869481827 125 44 c 1
 109.674685805 61.6830548403 99 87.5347551745 99 118 c 0
 99 195.226051609 154.270875977 243 233 243 c 256
 310.626589531 243 367 197.537982273 367 122 c 256
 367 40.451715472 292.877324333 0 206 0 c 0
 104.040052824 0 20 82.6116460385 20 185 c 0
134 120 m 0
 134 85.3100957536 151.915478067 46 183 46 c 0
 216.281905929 46 237 84.2010663559 237 119 c 0
 237 153.820545318 216.3017738 192 183 192 c 0
 151.876659463 192 134 154.017384058 134 120 c 0
609 281 m 0
 609 230.538330708 655.090569466 192 707 192 c 1
 707 302 l 2
 707 328.230177841 689.616064842 354 664 354 c 0
 629.80859105 354 609 316.435596163 609 281 c 0
837 30 m 1
 896 30 l 1
 896 179 l 1
 882.661143236 169.662800265 860.259102699 164 837 164 c 1
 837 30 l 1
EndSplineSet
EndChar

StartChar: uni0BB8
Encoding: 292 3000 37
Width: 1049
GlyphClass: 2
Flags: HW
LayerCount: 2
Back
Fore
SplineSet
20 188 m 0
 20 328.543942353 126.487387085 411 270 411 c 0
 378.611402359 411 481.683337531 374.220658439 517 305 c 1
 533.157873281 363.416926473 591.846234417 411 664 411 c 0
 753.847387854 411 832 343.8625327 832 256 c 2
 832 117 l 2
 832 80.2897115554 852.481989645 39 887 39 c 0
 959.14927382 39 987 122.982236919 987 204 c 0
 987 234 978.333333333 262 961 288 c 0
 947.666666667 308.666666667 927.333333333 332.666666667 900 360 c 0
 895.100760408 364.899239592 892 372.273441027 892 382 c 0
 892 403.288189782 907.346674551 422 927 422 c 0
 953 422 975.333333333 400.666666667 994 358 c 256
 1012.66666667 315.333333333 1022 264 1022 204 c 0
 1022 87.3513235138 966.848759887 -11 857 -11 c 0
 771.457039208 -11 702 31.7038131339 702 114 c 2
 702 257 l 2
 702 307.800621609 679.41591269 376 634 376 c 0
 586.409194967 376 558 319.729494049 558 269 c 2
 558 0 l 1
 428 0 l 1
 428 235 l 2
 428 315.35089638 352.240257039 376 269 376 c 0
 147.322853812 376 55 308.388614041 55 190 c 0
 55 123.044135274 82.0306414607 57.9303618372 130 41 c 1
 112.640023267 60.8399734101 102 88.2510144749 102 124 c 0
 102 204.361376891 159.496582088 255 241 255 c 256
 323.594641724 255 380 203.354796451 380 122 c 0
 380 44.4053176992 301.834595724 -11 221 -11 c 0
 165.666666667 -11 118.333333333 8.33333333333 79 47 c 0
 39.6666666667 86.3333333333 20 133.333333333 20 188 c 0
137 122 m 0
 137 85.9420977884 157.40932014 44 191 44 c 0
 226.207500949 44 250 81.5803428464 250 119 c 0
 250 156.395402139 226.803376684 195 191 195 c 0
 157.718094071 195 137 156.798933644 137 122 c 0
EndSplineSet
EndChar

StartChar: uni0BB9
Encoding: 293 3001 38
Width: 1230
GlyphClass: 2
Flags: HW
LayerCount: 2
Back
Fore
SplineSet
20 -164 m 0
 20 -105.66460409 77.8686336503 -63 138 -63 c 2
 906 -63 l 2
 952 -63 991.333333333 -40.3333333333 1024 5 c 256
 1056.66666667 50.3333333333 1073 105.333333333 1073 170 c 0
 1073 230.666666667 1065.33333333 279 1050 315 c 0
 1034 351.666666667 1013 370 987 370 c 0
 950.516150822 370 926 331.440763749 926 294 c 2
 926 0 l 1
 796 0 l 1
 796 295 l 2
 796 332.440584258 772.224445787 370 737 370 c 0
 703.646617322 370 684 328.730552631 684 294 c 2
 684 0 l 1
 343 0 l 1
 343 30 l 1
 392.141706219 57.0279384202 430 116.664950661 430 191 c 0
 430 301.109443901 352.844265986 370 242 370 c 256
 128.08144876 370 55 292.159043097 55 177 c 0
 55 117.625516421 83.0694637914 68.4713136825 121 44 c 1
 105.051962243 59.9480377569 95 89.477257034 95 122 c 0
 95 199.36163439 149.725863194 248 229 248 c 256
 308.286646789 248 363 199.371257743 363 122 c 0
 363 41.7133269924 292.470974841 0 207 0 c 0
 106.818052352 0 20 79.8807879021 20 180 c 0
 20 331.000060705 135.036630332 420 290 420 c 256
 442.617441403 420 560 336.814428158 560 190 c 0
 560 120.248825248 537.098626537 59.4056594606 497 30 c 1
 649 30 l 1
 649 292 l 2
 649 359.240040924 697.255171841 400 766 400 c 0
 822.391571679 400 871.320991789 372.368114052 886 331 c 1
 900.949439493 373.130238574 952.045867626 400 1010 400 c 0
 1145.33505685 400 1203 312.526449513 1203 172 c 0
 1203 -20.5118440249 1103.31728142 -98 906 -98 c 2
 139 -98 l 2
 102.778408495 -98 55 -112.73864483 55 -144 c 1
 88 -144 l 2
 99.3333333333 -144 109.333333333 -139.333333333 118 -148 c 0
 126 -157.333333333 130 -168.333333333 130 -181 c 0
 130 -204.250754106 106.697294093 -220 82 -220 c 0
 48.70617822 -220 20 -196.089738317 20 -164 c 0
130 122 m 0
 130 87.4537252244 147.119720278 46 179 46 c 0
 212.638452697 46 233 86.6093557337 233 122 c 0
 233 154.845725971 210.977786188 188 179 188 c 0
 148.597852608 188 130 154.035773069 130 122 c 0
EndSplineSet
EndChar

StartChar: uni0BBE
Encoding: 294 3006 39
Width: 454
GlyphClass: 2
Flags: HW
LayerCount: 2
Back
Fore
SplineSet
45 0 m 1
 45 400 l 1
 451 400 l 1
 451 370 l 1
 354 370 l 1
 354 0 l 1
 224 0 l 1
 224 370 l 1
 80 370 l 1
 80 0 l 1
 45 0 l 1
EndSplineSet
EndChar

StartChar: uni0BBF
Encoding: 295 3007 40
Width: 390
GlyphClass: 2
Flags: HW
LayerCount: 2
Back
Fore
SplineSet
45 505 m 0
 45 588.669419412 111.435454813 660 195 660 c 256
 281.897851482 660 345 574.136053129 345 484 c 2
 345 0 l 1
 310 0 l 1
 310 482 l 2
 310 544.485501104 249.707162721 591 185 591 c 0
 128.161660986 591 80 542.836596921 80 486 c 0
 80 449.298956794 99.6899452309 420.310054769 120 400 c 1
 81 400 l 1
 57 440 45 475 45 505 c 0
EndSplineSet
EndChar

StartChar: uni0BC0
Encoding: 296 3008 41
Width: 495
GlyphClass: 2
Flags: HW
LayerCount: 2
Back
Fore
SplineSet
45 489 m 0
 45 534.333333333 64.6666666667 573.333333333 104 606 c 0
 142.666666667 638 189.666666667 654 245 654 c 0
 342.62517183 654 450 621.786806028 450 535 c 0
 450 462.489255481 395.500127662 421 321 421 c 0
 247.284910229 421 193 462.959548651 193 535 c 0
 193 566.508719925 206.014529741 594.227777616 223 610 c 1
 150.811115443 610 80 561.951591809 80 493 c 0
 80 452.989952845 103.728929231 421.155518879 127 400 c 1
 82 400 l 1
 64.3412891114 425.507026839 45 453.810658154 45 489 c 0
228 536 m 0
 228 505.978278937 246.345467184 476 274 476 c 256
 302.130167398 476 320 505.622568583 320 535 c 0
 320 565.021721063 301.654532816 595 274 595 c 256
 245.869832602 595 228 565.377431417 228 536 c 0
EndSplineSet
EndChar

StartChar: uni0BC1
Encoding: 297 3009 42
Width: 356
GlyphClass: 4
Flags: HW
LayerCount: 2
Back
Fore
SplineSet
-87 370 m 1
 -87 400 l 1
 340 400 l 1
 340 320 l 2
 340 252.826457675 273.1736962 206 203 206 c 0
 133.573658526 206 67 253.276762908 67 320 c 2
 67 370 l 1
 -87 370 l 1
102 320 m 2
 102 287.207366204 124.961139009 256 156 256 c 256
 187.502513483 256 210 288.191890776 210 321 c 2
 210 370 l 1
 102 370 l 1
 102 320 l 2
EndSplineSet
Substitution2: "Single Substitution lookup 7 subtable" uni0BC1.abvs
EndChar

StartChar: uni0BC2
Encoding: 298 3010 43
Width: 621
GlyphClass: 4
Flags: HW
LayerCount: 2
Back
Fore
SplineSet
-87 370 m 1
 -87 400 l 1
 143 400 l 1
 143 485.131642775 230.138400079 544 319 544 c 0
 497.170871043 544 598 463.502173496 598 289 c 0
 598 107.45685253 466.600914725 39 274 39 c 0
 143.073116307 39 55 124.335370486 55 255 c 1
 84 255 l 1
 84 144.426487608 160.514169976 74 273 74 c 0
 394.997945276 74 468 163.45265512 468 288 c 0
 468 401.278634208 421.350960087 509 316 509 c 0
 245.801708475 509 170 466.580737061 170 400 c 1
 410 400 l 1
 410 320 l 2
 410 253.237902988 343.801723296 205 275 205 c 256
 204.997288015 205 140 254.894138148 140 322 c 2
 140 370 l 1
 -87 370 l 1
175 320 m 2
 175 287.2242451 195.502341151 255 227 255 c 256
 258.832275538 255 280 288.823103942 280 321 c 2
 280 370 l 1
 175 370 l 1
 175 320 l 2
EndSplineSet
Substitution2: "Single Substitution lookup 7 subtable" uni0BC2.abvs
EndChar

StartChar: uni0BC6
Encoding: 299 3014 44
Width: 703
GlyphClass: 2
Flags: HW
LayerCount: 2
Back
Fore
SplineSet
24 312 m 0
 24 421.333333333 52.6666666667 508.666666667 110 574 c 0
 167.333333333 640 243.333333333 673 338 673 c 0
 434.666666667 673 512.333333333 643.666666667 571 585 c 0
 629 525.666666667 658 447 658 349 c 2
 658 0 l 1
 623 0 l 1
 623 349 l 2
 623 418.333333333 595.333333333 477.333333333 540 526 c 0
 485.333333333 574.666666667 419 599 341 599 c 0
 169.97700745 599 59 483.261744094 59 311 c 0
 59 155.224066536 147.051417822 37 299 37 c 0
 314.333333333 37 326 38.3333333333 334 41 c 1
 289.929258058 61.8756146042 250 107.496897724 250 168 c 0
 250 247.037656241 324.068232291 306 406 306 c 0
 497.023725508 306 563 251.017541399 563 161 c 0
 563 44.2542212844 429.426535809 -3 300 -3 c 0
 125.025375672 -3 24 131.56491067 24 312 c 0
285 164 m 0
 285 106.728577766 322.425992995 63.7391695854 365 46 c 1
 404.991148628 60.1904075775 433 105.684284989 433 159 c 0
 433 205.104894059 404.963232812 254 361 254 c 0
 316.429536557 254 285 210.111290905 285 164 c 0
EndSplineSet
EndChar

StartChar: uni0BC7
Encoding: 300 3015 45
Width: 649
GlyphClass: 2
Flags: HW
LayerCount: 2
Back
Fore
SplineSet
21 330 m 0
 21 422 52.3333333333 500.333333333 115 565 c 0
 177.666666667 630.333333333 253.333333333 663 342 663 c 0
 484.091519803 663 633 614.665255076 633 487 c 0
 633 410.899765325 573.935463365 369 496 369 c 256
 419.250809144 369 360 410.422796154 360 485 c 0
 360 538.258711145 394.937988645 579.507525404 436 594 c 1
 411.333333333 606 377.666666667 612 335 612 c 0
 257.666666667 612 192 584.666666667 138 530 c 0
 83.3333333333 474.666666667 56 408.333333333 56 331 c 0
 56 252.333333333 83 185 137 129 c 0
 191 73.6666666667 256 46 332 46 c 0
 371.67559679 46 412.411509869 49.0541222179 434 64 c 1
 390.397103851 72.1755430281 360 121.786025429 360 175 c 0
 360 252.198772966 417.487240182 298 496 298 c 256
 576.29136879 298 633 249.557975103 633 170 c 0
 633 118 606 76.6666666667 552 46 c 0
 498 14.6666666667 426.333333333 -1 337 -1 c 0
 249.666666667 -1 175.333333333 31.3333333333 114 96 c 0
 52 160.666666667 21 238.666666667 21 330 c 0
395 174 m 256
 395 138.496899743 416.191886204 100 449 100 c 256
 481.790058049 100 503 138.526511258 503 174 c 0
 503 209.503100257 481.808113796 248 449 248 c 256
 416.209941951 248 395 209.473488742 395 174 c 256
395 482 m 0
 395 448.519537479 417.070088379 414 449 414 c 256
 480.919089925 414 503 448.540671463 503 482 c 0
 503 516.854708719 481.866622112 554 449 554 c 256
 416.15165554 554 395 516.83109384 395 482 c 0
EndSplineSet
EndChar

StartChar: uni0BC8
Encoding: 301 3016 46
Width: 916
GlyphClass: 2
Flags: HW
LayerCount: 2
Back
Fore
SplineSet
19 170 m 0
 19 236.666666667 47 293.666666667 103 341 c 256
 159 388.333333333 226.333333333 412 305 412 c 0
 393.542024551 412 479.756947034 403.682289724 526 369 c 1
 554.529315872 397.529315872 602.560878459 412 660 412 c 0
 795.512213223 412 895 335.108374404 895 203 c 0
 895 93.9909342057 816.661505185 3.52389388645 718 -7 c 1
 718 25 l 1
 755.333333333 76.3333333333 765 135.333333333 765 202 c 0
 765 278.87928025 729.201715325 377 659 377 c 0
 620.669583492 377 584.258316972 368.27238254 563 351 c 1
 615.432279914 305.261202628 661 235.784595538 661 147 c 0
 661 59.3847221488 606.870685198 -3 520 -3 c 256
 432.962382056 -3 380 58.8663487999 380 147 c 0
 380 220.622558289 415.622638624 280.160373911 454 326 c 1
 416.312145287 358.489529926 355.985780943 377 286 377 c 0
 222 377 167.333333333 357 122 317 c 256
 76.6666666667 277 54 228.666666667 54 172 c 0
 54 109.010159177 82.3309109217 49.1421482056 129 35 c 1
 106.690238819 50.3379608113 94 83.0226158863 94 122 c 0
 94 202.203710341 148.537018411 254 229 254 c 0
 308.088436268 254 365 207.363993449 365 130 c 0
 365 37.7482058622 282.158409686 -8 185 -8 c 0
 91.3096829743 -8 19 75.4256551285 19 170 c 0
129 120 m 0
 129 83.1008426389 145.55990636 32 179 32 c 0
 215.208751271 32 235 80.1946245064 235 120 c 0
 235 158.102964156 214.218858573 199 179 199 c 0
 146.404628671 199 129 155.289758327 129 120 c 0
415 147 m 0
 415 98.5599941701 428.675209887 42 470 42 c 0
 514.353039923 42 531 96.8509193899 531 147 c 0
 531 209.319051795 504.237431574 260.123770603 470 292 c 1
 438.376448689 258.033963407 415 208.543419143 415 147 c 0
EndSplineSet
EndChar

StartChar: uni0BCD
Encoding: 305 3021 50
Width: 320
GlyphClass: 2
Flags: HW
LayerCount: 2
Back
Fore
SplineSet
80 543 m 256
 80 583.197157782 118.157964723 613 159 613 c 0
 200.503759153 613 240 583.167073297 240 543 c 0
 240 502.675571161 201.063355036 472 159 472 c 0
 117.567949548 472 80 502.641075006 80 543 c 256
EndSplineSet
EndChar

StartChar: uni0BE6
Encoding: 307 3046 52
Width: 515
GlyphClass: 2
Flags: HW
LayerCount: 2
Back
Fore
SplineSet
50 204 m 0
 50 318.02175273 142.852713123 413 257 413 c 256
 314.333333333 413 363.333333333 392.666666667 404 352 c 256
 444.666666667 311.333333333 465 262 465 204 c 0
 465 146.666666667 444.666666667 97.6666666667 404 57 c 256
 363.333333333 16.3333333333 314.333333333 -4 257 -4 c 256
 199.666666667 -4 151 16.3333333333 111 57 c 0
 70.3333333333 97.6666666667 50 146.666666667 50 204 c 0
180 204 m 256
 180 156 187.666666667 115.333333333 203 82 c 0
 217.666666667 48 235.666666667 31 257 31 c 256
 278.333333333 31 296.666666667 48 312 82 c 0
 327.333333333 115.333333333 335 156 335 204 c 0
 335 252 327.333333333 293 312 327 c 256
 296.666666667 361 278.333333333 378 257 378 c 256
 235.666666667 378 217.666666667 361 203 327 c 0
 187.666666667 293 180 252 180 204 c 256
EndSplineSet
EndChar

StartChar: uni0BE7
Encoding: 308 3047 53
Width: 707
GlyphClass: 2
Flags: HW
LayerCount: 2
Back
Fore
SplineSet
50 134 m 0
 50 191.167014077 99.4462176274 220 160 220 c 2
 175 220 l 1
 175 400 l 1
 559 400 l 1
 559 370 l 1
 450 370 l 1
 450 220 l 1
 532 220 l 2
 602.655435155 220 657 182.089534357 657 114 c 0
 657 73.3333333333 641 44 609 26 c 0
 577 8.66666666667 524.333333333 0 451 0 c 1
 451 30 l 1
 507.572038944 30 527 55.4310374997 527 113 c 0
 527 153.900814421 514.76104509 185 477 185 c 2
 450 185 l 1
 450 131 l 2
 450 87 429.333333333 54 388 32 c 0
 346.666666667 9.33333333333 285.333333333 -2 204 -2 c 0
 123.843424522 -2 50 55.9396249616 50 134 c 0
85 135 m 0
 85 70.0669384985 137.840256842 33 205 33 c 0
 265.631693167 33 320 79.1169699263 320 138 c 2
 320 185 l 1
 152 185 l 2
 116.886331329 185 85 168.973632678 85 135 c 0
210 220 m 1
 320 220 l 1
 320 370 l 1
 210 370 l 1
 210 220 l 1
EndSplineSet
EndChar

StartChar: uni0BE8
Encoding: 309 3048 54
Width: 617
GlyphClass: 2
Flags: HW
LayerCount: 2
Back
Fore
SplineSet
50 64 m 256
 50 105.391154681 98.2027382606 130 143 130 c 2
 302 130 l 2
 360.267379177 130 399 191.494896709 399 253 c 0
 399 319.351400775 341.455474231 372 275 372 c 2
 244 372 l 1
 288.337720021 364.041947688 333 331.690829081 333 283 c 0
 333 214.090885463 273.969713753 177 202 177 c 256
 130.665781506 177 71 211.90933815 71 280 c 0
 71 375.211725869 167.035795103 417 270 417 c 0
 341.333333333 417 402.333333333 401 453 369 c 0
 503.666666667 336.333333333 529 297.333333333 529 252 c 0
 529 144.479864781 421.873770649 95 306 95 c 2
 194 95 l 1
 184 88.3333333333 179 71.6666666667 179 63 c 0
 179 53.6666666667 184 36 194 30 c 1
 567 30 l 1
 567 0 l 1
 157 0 l 2
 110.650125456 0 50 21.1830853616 50 64 c 256
106 278 m 0
 106 248.612027995 123.855014694 219 152 219 c 0
 182.136062178 219 203 250.874856935 203 283 c 0
 203 315.772960874 183.078655929 351 152 351 c 0
 121.535080016 351 106 311.162966663 106 278 c 0
EndSplineSet
EndChar

StartChar: uni0BE9
Encoding: 310 3049 55
Width: 690
GlyphClass: 2
Flags: HW
LayerCount: 2
Back
Fore
SplineSet
50 0 m 1
 50 400 l 1
 514 400 l 1
 514 370 l 1
 353 370 l 1
 353 257 l 1
 375.666666667 272.333333333 405.333333333 280 442 280 c 0
 523.404388718 280 579 227.908550245 579 146 c 0
 579 88.9796211419 530.440463381 47.3106527166 485 30 c 1
 640 30 l 1
 640 0 l 1
 223 0 l 1
 223 30 l 1
 389 30 l 1
 424.980430835 49.2752308041 449 94.468416634 449 149 c 0
 449 189.863742359 426.080505913 235 388 235 c 0
 378.666666667 235 360.333333333 230.333333333 353 221 c 1
 353 110 l 1
 223 110 l 1
 223 370 l 1
 85 370 l 1
 85 0 l 1
 50 0 l 1
EndSplineSet
EndChar

StartChar: uni0BEA
Encoding: 311 3050 56
Width: 700
GlyphClass: 2
Flags: HW
LayerCount: 2
Back
Fore
SplineSet
50 134 m 0
 50 191.167014077 99.4462176274 220 160 220 c 1
 160 400 l 1
 550 400 l 1
 550 370 l 1
 450 370 l 1
 450 220 l 1
 520 220 l 1
 520 264 l 1
 650 264 l 1
 650 185 l 1
 450 185 l 1
 450 131 l 2
 450 87 431 54 393 32 c 0
 355 9.33333333333 298.666666667 -2 224 -2 c 0
 129.045186167 -2 50 44.1243032423 50 134 c 0
85 135 m 0
 85 65.8139169361 150.756088491 33 225 33 c 0
 284.088843982 33 320 77.09483271 320 138 c 2
 320 185 l 1
 153 185 l 2
 117.216473744 185 85 168.487148699 85 135 c 0
200 220 m 1
 320 220 l 1
 320 370 l 1
 200 370 l 1
 200 220 l 1
EndSplineSet
EndChar

StartChar: uni0BEB
Encoding: 312 3051 57
Width: 853
GlyphClass: 2
Flags: HW
LayerCount: 2
Back
Fore
SplineSet
50 200 m 0
 50 312 89.6666666667 407.666666667 169 487 c 0
 247.666666667 566.333333333 343 606 455 606 c 0
 599.492070483 606 735.902732601 530.551181929 757 411 c 1
 726 411 l 1
 700.85414341 510.186434328 582.088746718 571 455 571 c 0
 379 571 314.333333333 534.666666667 261 462 c 0
 207 390 180 302.666666667 180 200 c 0
 180 11.9195481362 261.881452751 -157 437 -157 c 0
 502.333333333 -157 558 -135.666666667 604 -93 c 0
 650 -51 673 0 673 60 c 0
 673 113.213204899 650.753041757 188 603 188 c 0
 595 188 580 184 574 176 c 1
 574 0 l 1
 444 0 l 1
 444 370 l 1
 303 370 l 1
 303 0 l 1
 268 0 l 1
 268 400 l 1
 673 400 l 1
 673 370 l 1
 574 370 l 1
 574 214 l 1
 598.666666667 230 625.666666667 238 655 238 c 0
 695.666666667 238 730.666666667 220.333333333 760 185 c 0
 788.666666667 150.333333333 803 108 803 58 c 0
 803 -11.3333333333 767.333333333 -70.3333333333 696 -119 c 0
 624 -167.666666667 537.333333333 -192 436 -192 c 0
 319.333333333 -192 225.666666667 -156.333333333 155 -85 c 0
 85 -13.6666666667 50 81.3333333333 50 200 c 0
EndSplineSet
EndChar

StartChar: uni0BEC
Encoding: 313 3052 58
Width: 916
GlyphClass: 2
Flags: HW
LayerCount: 2
Back
Fore
SplineSet
50 134 m 0
 50 189.362956441 92.974809285 220 150 220 c 2
 165 220 l 1
 165 400 l 1
 596 400 l 1
 596 370 l 1
 450 370 l 1
 450 220 l 1
 866 220 l 1
 866 185 l 1
 800 185 l 1
 800 0 l 1
 670 0 l 1
 670 185 l 1
 616 185 l 1
 616 0 l 1
 486 0 l 1
 486 185 l 1
 450 185 l 1
 450 131 l 2
 450 87 430.666666667 54 392 32 c 0
 352.666666667 9.33333333333 295 -2 219 -2 c 0
 125.347786297 -2 50 44.6016678607 50 134 c 0
85 135 m 0
 85 67.0212376674 147.898247475 33 220 33 c 0
 280.910355702 33 320 75.4376233875 320 138 c 2
 320 185 l 1
 153 185 l 2
 117.216473744 185 85 168.487148699 85 135 c 0
200 220 m 1
 320 220 l 1
 320 370 l 1
 200 370 l 1
 200 220 l 1
EndSplineSet
EndChar

StartChar: uni0BED
Encoding: 314 3053 59
Width: 714
GlyphClass: 2
Flags: HW
LayerCount: 2
Back
Fore
SplineSet
50 183 m 0
 50 243 72.3333333333 294 117 336 c 0
 161.666666667 378.666666667 215.333333333 400 278 400 c 2
 664 400 l 1
 664 370 l 1
 588 370 l 1
 588 0 l 1
 458 0 l 1
 458 370 l 1
 278 370 l 2
 173.388120291 370 85 284.359415581 85 180 c 0
 85 121.758415343 108.069781939 64.5252551267 149 49 c 1
 134.174174065 67.0027886364 121 91.1829175481 121 120 c 0
 121 198.749298278 192.566082003 260 273 260 c 256
 352.874575021 260 425 200.931784897 425 123 c 0
 425 44.5078885463 344.274678136 -10 262 -10 c 0
 203.333333333 -10 153.333333333 9 112 47 c 0
 70.6666666667 84.3333333333 50 129.666666667 50 183 c 0
156 117 m 0
 156 75.5530478706 184.147151725 37 225 37 c 256
 265.640483084 37 295 77.4767655977 295 119 c 0
 295 160.503759153 265.167073297 200 225 200 c 256
 183.720051365 200 156 159.110927769 156 117 c 0
EndSplineSet
EndChar

StartChar: uni0BEE
Encoding: 315 3054 60
Width: 1003
GlyphClass: 2
Flags: HW
LayerCount: 2
Back
Fore
SplineSet
50 27 m 0
 50 59.0626419242 80.0603801589 83 114 83 c 2
 614 83 l 1
 637.333333333 127 649 171 649 215 c 0
 649 295.29136306 599.383995823 377 522 377 c 1
 557.27480585 356.055584026 592 317.796608917 592 267 c 0
 592 183.366704741 524.716780766 138 438 138 c 0
 350.820468533 138 285 188.058993656 285 273 c 0
 285 373.266326487 401.860881973 412 513 412 c 0
 655.289286481 412 779 347.247080733 779 214 c 0
 779 162 770 118.333333333 752 83 c 1
 823 83 l 1
 823 400 l 1
 953 400 l 1
 953 -134 l 1
 823 -134 l 1
 823 48 l 1
 734 48 l 1
 671.721790306 -59.9488968035 513.53393332 -120 339 -120 c 0
 259 -120 191 -105.666666667 135 -77 c 0
 78.3333333333 -48.3333333333 50 -13.6666666667 50 27 c 0
85 28 m 0
 85 -3.33333333333 107.666666667 -30 153 -52 c 0
 197.666666667 -74 252 -85 316 -85 c 0
 440.106287695 -85 541.226164393 -29.1494451904 591 48 c 1
 93 48 l 1
 87.6666666667 44 85 33.3333333333 85 28 c 0
320 270 m 0
 320 224.50296642 357.930587519 188 403 188 c 0
 450.287233051 188 492 223.494221546 492 270 c 0
 492 318.113076001 451.404854229 358 403 358 c 0
 356.879839557 358 320 317.031136752 320 270 c 0
EndSplineSet
EndChar

StartChar: uni0BEF
Encoding: 316 3055 61
Width: 929
GlyphClass: 2
Flags: HW
LayerCount: 2
Back
Fore
SplineSet
50 134 m 0
 50 184.588571724 98.5812904158 220 150 220 c 2
 165 220 l 1
 165 400 l 1
 550 400 l 1
 550 370 l 1
 440 370 l 1
 440 220 l 1
 553 220 l 1
 589 245.333333333 633 258 685 258 c 0
 790.170214752 258 879 207.657849884 879 108 c 0
 879 58.768006467 858.031903695 17.9378660688 826 0 c 1
 713 0 l 1
 713 30 l 1
 735.56673484 43.274549906 749 76.2457613298 749 112 c 0
 749 163.413942429 714.514948393 213 666 213 c 0
 658.666666667 213 647.666666667 211.333333333 633 208 c 256
 618.333333333 204.666666667 614.666666667 203 622 203 c 0
 663.446092525 193.933667259 694 150.97509329 694 101 c 0
 694 35.9532423249 652.098037138 -8 587 -8 c 256
 521.382093676 -8 480 34.7882824465 480 100 c 0
 480 137.314891857 493.693911224 167.232172322 514 185 c 1
 440 185 l 1
 440 131 l 2
 440 39.8651614724 315.895738731 -8 217 -8 c 0
 132.053562111 -8 50 51.2163861378 50 134 c 0
85 135 m 0
 85 72.162669297 145.469481854 27 209 27 c 0
 265.962822079 27 310 77.3613882017 310 134 c 2
 310 185 l 1
 142 185 l 2
 112.580444848 185 85 163.619506536 85 135 c 0
200 220 m 1
 310 220 l 1
 310 370 l 1
 200 370 l 1
 200 220 l 1
515 103 m 256
 515 70.6940927553 529.556232977 27 559 27 c 0
 590.900673956 27 609 67.981324794 609 102 c 0
 609 135.764647705 593.987580492 179 564 179 c 0
 532.147820872 179 515 137.51506805 515 103 c 256
EndSplineSet
EndChar

StartChar: uni0BF0
Encoding: 317 3056 62
Width: 600
GlyphClass: 2
Flags: HW
LayerCount: 2
Back
Fore
SplineSet
41 98 m 2
 41 400 l 1
 76 400 l 1
 76 98 l 2
 76 66.5940782167 93.8320378368 30 123 30 c 0
 154.893264598 30 175 64.5997631697 175 98 c 2
 175 400 l 1
 305 400 l 1
 305 97 l 2
 305 64.2046484645 325.364194711 30 356 30 c 0
 380.666666667 30 402 49.6666666667 420 89 c 0
 437.333333333 128.333333333 446 175.666666667 446 231 c 0
 446 329.28604659 399.078747698 453 310 453 c 2
 41 453 l 1
 41 488 l 1
 320 488 l 2
 390.666666667 488 451 462.666666667 501 412 c 0
 551 362 576 301.333333333 576 230 c 0
 576 97.421455867 504.420227675 -5 376 -5 c 0
 318.137782516 -5 273.550754241 26.1073594142 253 66 c 1
 238.82854127 24.7739382371 192.935478117 -5 139 -5 c 0
 83.8570209711 -5 41 42.7481640354 41 98 c 2
EndSplineSet
EndChar

StartChar: uni0BF1
Encoding: 318 3057 63
Width: 628
GlyphClass: 2
Flags: HW
LayerCount: 2
Back
Fore
SplineSet
40 0 m 1
 40 309 l 2
 40 365.161180076 102.739998236 400 161 400 c 256
 220.212398668 400 278.718099802 377.797233972 292 335 c 1
 304.212613598 370.416579433 341.545092134 400 388 400 c 2
 625 400 l 1
 625 370 l 1
 566 370 l 1
 566 0 l 1
 436 0 l 1
 436 370 l 1
 398 370 l 2
 362.084433943 370 336 337.699787821 336 301 c 2
 336 0 l 1
 206 0 l 1
 206 305 l 2
 206 339.439710158 174.114191051 365 140 365 c 256
 105.994053325 365 75 341.561904623 75 309 c 2
 75 0 l 1
 40 0 l 1
EndSplineSet
EndChar

StartChar: uni0BF2
Encoding: 319 3058 64
Width: 788
GlyphClass: 2
Flags: HW
LayerCount: 2
Back
Fore
SplineSet
13 122 m 0
 13 173.609215012 56.4444483693 215 108 215 c 2
 126 215 l 1
 126 400 l 1
 520 400 l 1
 520 370 l 1
 385 370 l 1
 385 215 l 1
 682 215 l 1
 682 180 l 1
 575 180 l 1
 575 107 l 1
 603.666666667 121.666666667 633.666666667 129 665 129 c 256
 726.175380605 129 779 81.0720888965 779 20 c 0
 779 -27.3333333333 751.666666667 -65.3333333333 697 -94 c 0
 641.666666667 -122.666666667 568.333333333 -137 477 -137 c 2
 117 -137 l 1
 101.666666667 -142.333333333 92.3333333333 -156 89 -164 c 1
 97.6666666665 -160.666666667 106.083333333 -159 114.25 -159 c 0
 139.173384727 -159 161 -174.122810025 161 -195 c 0
 161 -219.672033041 117.887956037 -231 90 -231 c 0
 63.406196217 -231 43 -204.35807913 43 -177 c 0
 43 -126.799435214 116.894336241 -102 173 -102 c 2
 476 -102 l 2
 554.680772273 -102 649 -61.6278756444 649 10 c 0
 649 42.7086006527 632.778780336 79 603 79 c 0
 585.688275776 79 575 61.3627084285 575 44 c 2
 575 0 l 1
 445 0 l 1
 445 180 l 1
 385 180 l 1
 385 134 l 2
 385 43.8482963825 266.099236688 -5 169 -5 c 0
 90.0788219972 -5 13 46.5986185298 13 122 c 0
48 124 m 0
 48 75.1235349506 92.5923044529 41.0171605109 136 31 c 0
 143.479674797 29.3739837398 150.761054928 28.5609756097 157.844140393 28.5609756097 c 0
 212.819382052 28.5609756097 255 79.4830598055 255 132 c 2
 255 180 l 1
 109 180 l 2
 76.5079342723 180 48 155.584764149 48 124 c 0
161 215 m 1
 255 215 l 1
 255 370 l 1
 161 370 l 1
 161 215 l 1
EndSplineSet
EndChar

StartChar: uni0BF3
Encoding: 320 3059 65
Width: 740
GlyphClass: 2
Flags: HW
LayerCount: 2
Back
Fore
SplineSet
20 182 m 0
 20 248 47 304.333333333 101 351 c 256
 155 397.666666667 220.333333333 421 297 421 c 256
 373.666666667 421 439 399.333333333 493 356 c 0
 547 312 574 259.333333333 574 198 c 0
 574 123.743791743 542.913935541 62.6217806881 499 30 c 1
 737 30 l 1
 737 0 l 1
 357 0 l 1
 357 27 l 1
 409.269554713 51.8280384883 444 119.441619893 444 196 c 0
 444 298.131496064 352.258628757 376 249 376 c 0
 143.21911264 376 55 287.777769928 55 182 c 0
 55 118.993207667 81.537814114 69.6414572572 120 44 c 1
 104.067241663 62.3839519271 94 90.7922669525 94 123 c 0
 94 200.226051609 149.270875977 248 228 248 c 256
 307.286646789 248 362 199.371257743 362 122 c 256
 362 37.3254509883 285.566726972 -4 196 -4 c 0
 87.7172644491 -4 20 72.6255500172 20 182 c 0
129 120 m 0
 129 85.3100957536 146.915478067 46 178 46 c 0
 211.281905929 46 232 84.2010663559 232 119 c 0
 232 154.427398859 212.739756949 193 180 193 c 0
 147.727435532 193 129 154.056280786 129 120 c 0
EndSplineSet
EndChar

StartChar: uni0BF4
Encoding: 321 3060 66
Width: 667
GlyphClass: 2
Flags: HW
LayerCount: 2
Back
Fore
SplineSet
45 0 m 1
 45 400 l 1
 175 400 l 1
 175 30 l 1
 319 30 l 1
 319 271 l 2
 319 336.027523089 367.752303848 383.745161198 420 400 c 1
 405.741856842 417.313459549 391 439.60510689 391 467 c 0
 391 532.332437062 466.530329206 571 536 571 c 1
 567.769677967 602.769677967 619.753126252 622 682 622 c 0
 720 622 753.333333333 613.333333333 782 596 c 1
 812 613.333333333 841.666666667 622 871 622 c 0
 905.659114203 622 934.554620258 609.975438163 951 591 c 1
 936 573 l 1
 919.333333333 582.333333333 897 587 869 587 c 0
 862.333333333 587 852.333333333 583.666666667 839 577 c 1
 857.461407189 567.769296406 879 550.839497241 879 527 c 0
 879 487.254551585 831.017260851 465 789 465 c 0
 746.737031888 465 702 490.867419165 702 532 c 0
 702 553.545261228 719.003268558 569.468409898 735 578 c 1
 722.324137446 587.859004209 701.840018522 592 679 592 c 0
 646.490191776 592 616.709168059 585.180084863 602 569 c 1
 641.888735338 569 677 539.400975079 677 500 c 0
 677 458.850318404 625.052835659 436 581 436 c 0
 537.73731912 436 486 457.970796022 486 498 c 0
 486 518.309681434 494.520910736 532.07181946 506 541 c 1
 463.349969169 541 426 508.547016084 426 466 c 0
 426 439.377601597 439.872896474 416.127103526 455 401 c 1
 483 401 l 2
 591.330810001 401 642 296.193136919 642 179 c 0
 642 88.745493524 606.003063184 0 523 0 c 2
 45 0 l 1
426 30 m 1
 512 30 l 2
 579.462320718 30 607 105.487784331 607 180 c 0
 607 273.966898569 574.238040507 371 490 371 c 0
 448.850318404 371 426 319.052835659 426 275 c 2
 426 30 l 1
521 501 m 256
 521 483.668213259 538.582484972 471 556 471 c 0
 576.022990273 471 596 482.108981341 596 500 c 0
 596 520.19039077 576.729011816 536 556 536 c 1
 540.25542092 531.801445578 521 519.472929459 521 501 c 256
766 527 m 0
 766 513.657772059 774.14625469 500 787 500 c 256
 800.0366233 500 809 513.053272473 809 527 c 0
 809 543.591803417 801.264412431 563 787 563 c 256
 773.080776212 563 766 542.875516366 766 527 c 0
EndSplineSet
EndChar

StartChar: uni0BF5
Encoding: 322 3061 67
Width: 1410
GlyphClass: 2
Flags: HW
LayerCount: 2
Back
Fore
SplineSet
28 220 m 0
 28 347.333333333 90.6666666667 449.666666667 216 527 c 0
 341.333333333 603.666666667 508 642 716 642 c 0
 844 642 953.333333333 620 1044 576 c 0
 1134.66666667 532.666666667 1180 480 1180 418 c 2
 1180 308 l 1
 1186 301.333333333 1203.66666667 298 1213 298 c 2
 1248 298 l 2
 1253.33333333 298 1263.66666667 301.666666667 1267 309 c 1
 1267 400 l 1
 1397 400 l 1
 1397 335 l 2
 1397 292.83802977 1356.74844408 263 1314 263 c 2
 1214 263 l 2
 1176.15334614 263 1145 293.449404757 1145 331 c 2
 1145 418 l 2
 1145 475.333333333 1106 521 1028 555 c 0
 950.666666667 589.666666667 847.333333333 607 718 607 c 0
 520 607 361.333333333 571.666666667 242 501 c 256
 122.666666667 430.333333333 63 336.333333333 63 219 c 0
 63 91 116 -11.6666666667 222 -89 c 256
 328 -166.333333333 469 -205 645 -205 c 0
 776.333333333 -205 881.666666667 -178.666666667 961 -126 c 0
 1040.33333333 -74 1080 -4.33333333333 1080 83 c 0
 1080 123.328105507 1061.50729577 177 1026 177 c 0
 1018 177 1003 174.333333333 997 169 c 1
 997 0 l 1
 867 0 l 1
 867 370 l 1
 728 370 l 1
 728 0 l 1
 421 0 l 1
 421 30 l 1
 458.870725319 57.6747608105 477 123.233454628 477 192 c 0
 477 286.59367895 404.695075717 370 311 370 c 0
 217.80490609 370 151 279.625606163 151 184 c 0
 151 119.883906115 175.353549278 62.6353793813 218 42 c 1
 201.222865266 59.9755015011 189 87.4104909353 189 120 c 0
 189 185.520760332 248.464171718 236 315 236 c 256
 382.671646671 236 441 183.185245857 441 116 c 0
 441 44.7062974063 375.274525537 -10 302 -10 c 0
 250.666666667 -10 206.666666667 8.66666666667 170 46 c 0
 134 83.3333333333 116 128.666666667 116 182 c 0
 116 244.666666667 138.666666667 298.333333333 184 343 c 256
 229.333333333 387.666666667 284.333333333 410 349 410 c 0
 420.333333333 410 481 390.333333333 531 351 c 0
 581.666666667 311.666666667 607 264.333333333 607 209 c 0
 607 128.519541316 569.861092553 65.0514778418 520 31 c 1
 693 31 l 1
 693 400 l 1
 1100 400 l 1
 1100 370 l 1
 997 370 l 1
 997 205 l 1
 1011.84544379 219.845443794 1036.7413921 227 1066 227 c 0
 1145.90393879 227 1210 161.477093679 1210 82 c 0
 1210 -16.6666666667 1158.66666667 -96 1056 -156 c 0
 953.333333333 -215.333333333 816.666666667 -245 646 -245 c 0
 459.333333333 -245 309.666666667 -202.666666667 197 -118 c 256
 84.3333333333 -33.3333333333 28 79.3333333333 28 220 c 0
224 119 m 256
 224 89.0827570252 238.347587174 52 265 52 c 0
 293.618504595 52 311 83.2578870966 311 114 c 0
 311 147.277545765 295.104780079 186 265 186 c 0
 238.365230652 186 224 148.876969134 224 119 c 256
EndSplineSet
EndChar

StartChar: uni0BF6
Encoding: 323 3062 68
Width: 828
GlyphClass: 2
Flags: HW
LayerCount: 2
Back
Fore
SplineSet
45 0 m 1
 45 400 l 1
 175 400 l 1
 175 32 l 1
 394 32 l 1
 394 400 l 1
 524 400 l 1
 524 -63 l 1
 653 -63 l 1
 653 400 l 1
 783 400 l 1
 783 -98 l 1
 485 -98 l 1
 485 -129.333333333 461.333333333 -156.333333333 414 -179 c 0
 366.666666667 -201 309.333333333 -212 242 -212 c 0
 187.333333333 -212 141 -203 103 -185 c 0
 64.3333333333 -167 45 -145.333333333 45 -120 c 0
 45 -83.6735369017 91.3292946627 -63 130 -63 c 2
 394 -63 l 1
 394 0 l 1
 45 0 l 1
78.6721311475 -124.153184628 m 0
 78.6721311475 -135.919914002 93.4480874317 -147.202185792 123 -158 c 256
 157.666666667 -170.666666667 197.333333333 -177 242 -177 c 0
 310.438490385 -177 379.38157161 -149.16449936 394 -98 c 1
 94 -98 l 1
 84.6666666667 -102 80 -112.666666667 80 -118 c 0
 79.1147540984 -120.06557377 78.6721311475 -122.116635313 78.6721311475 -124.153184628 c 0
EndSplineSet
EndChar

StartChar: uni0BF7
Encoding: 324 3063 69
Width: 1159
GlyphClass: 2
Flags: HW
LayerCount: 2
Back
Fore
SplineSet
19 184 m 0
 19 243.333333333 45.6666666667 294.333333333 99 337 c 0
 151.666666667 379 215.666666667 400 291 400 c 2
 705 400 l 1
 705 370 l 1
 620 370 l 1
 620 218 l 1
 730 218 l 2
 768.228195008 218 810 195.086715767 810 158 c 1
 828.023450554 194.04690111 873.080009214 218 927 218 c 0
 995.873955104 218 1067 176.096699248 1067 111 c 0
 1067 71.9666202647 1048.0012608 40.0007564837 1023 25 c 1
 1156 25 l 1
 1156 0 l 1
 870 0 l 1
 870 29 l 1
 905.946076314 37.6766391104 937 70.2390386834 937 113 c 0
 937 145.417709437 906.76800865 168 874 168 c 0
 840.158147881 168 815 133.95301369 815 98 c 2
 815 0 l 1
 685 0 l 1
 685 183 l 1
 620 183 l 1
 620 0 l 1
 490 0 l 1
 490 370 l 1
 292 370 l 2
 226 370 170 352 124 316 c 0
 77.3333333333 280 54 236.333333333 54 185 c 0
 54 124.181337494 78.6007742765 71.0129203859 118 50 c 1
 102.235541395 67.0781634893 94 95.8642260283 94 129 c 0
 94 212.828362658 157.188641897 263 243 263 c 256
 329.437632111 263 393 213.791391955 393 130 c 0
 393 35.4598315506 305.054327805 -10 204 -10 c 0
 100.584633719 -10 19 79.862331579 19 184 c 0
129 117 m 0
 129 74.2145447756 152.567973638 25 193 25 c 0
 235.349704703 25 263 74.156279933 263 119 c 0
 263 161.184827926 233.606940319 203 193 203 c 0
 153.294295913 203 129 158.557798926 129 117 c 0
EndSplineSet
EndChar

StartChar: uni0BF8
Encoding: 325 3064 70
Width: 1285
GlyphClass: 2
Flags: HW
LayerCount: 2
Back
Fore
SplineSet
26 274 m 0
 26 362.666666667 54.6666666667 438.333333333 112 501 c 256
 169.333333333 563.666666667 238.666666667 595 320 595 c 0
 392.666666667 595 456.666666667 569 512 517 c 256
 567.333333333 465 600.666666667 399.666666667 612 321 c 1
 617.333333333 323 631 324 653 324 c 0
 709 324 757 307.333333333 797 274 c 0
 836.333333333 240.666666667 856 200.666666667 856 154 c 0
 856 102.025025653 838.621988755 58.5432645485 809 37 c 1
 989 37 l 1
 929.375369479 68.6375590514 882 139.751328166 882 228 c 0
 882 316.150929841 944.174736366 397 1030 397 c 0
 1101.51648259 397 1170 348.517496377 1170 280 c 2
 1170 37 l 1
 1281 37 l 1
 1281 0 l 1
 1170 0 l 1
 1170 -209 l 1
 1040 -209 l 1
 1040 0 l 1
 660 0 l 1
 660 38 l 1
 699.344660659 55.0493529522 726 104.182991136 726 161 c 0
 726 216.707902229 700.110051569 289 649 289 c 0
 634.333333333 289 624 288 618 286 c 1
 629.333333333 246.666666667 635 194 635 128 c 0
 635 61.1886705509 587.681772672 0 522 0 c 0
 455.285307271 0 404 59.6412069493 404 127 c 0
 404 207.902828138 443.81203989 272.275927385 498 300 c 1
 486 374.666666667 461 436.666666667 423 486 c 0
 385.666666667 535.333333333 344 560 298 560 c 0
 232.666666667 560 176.666666667 532.333333333 130 477 c 0
 84 421.666666667 61 354.666666667 61 276 c 0
 61 188.218969075 78.2789292954 104.247930336 121 63 c 1
 111.666666667 82.3333333333 107 102.666666667 107 124 c 0
 107 196.946076734 163.205045894 260 235 260 c 256
 306.27124504 260 363 197.851131497 363 125 c 256
 363 49.51147884 297.163146615 -10 222 -10 c 0
 168 -10 121.666666667 17.6666666667 83 73 c 0
 45 128.333333333 26 195.333333333 26 274 c 0
142 124 m 0
 142 89.5727128105 154.558721049 37 185 37 c 0
 216.739803513 37 233 82.2143820955 233 118 c 0
 233 154.811421203 218.085919827 205 185 205 c 0
 155.815086394 205 142 157.442224008 142 124 c 0
439 131 m 0
 439 98.1096046662 452.699546185 52 482 52 c 0
 506.045064623 52 515 101.488225848 515 130 c 0
 515 172.666666667 511 214.666666667 503 256 c 1
 466.40984317 232.826234007 439 188.373240111 439 131 c 0
917 221 m 0
 917 133.26841372 972.795802027 64.2159956614 1040 41 c 1
 1040 286 l 2
 1040 316.025864398 1022.10077238 347 994 347 c 0
 943.656609967 347 917 276.025268136 917 221 c 0
EndSplineSet
EndChar

StartChar: uni0BF9
Encoding: 326 3065 71
Width: 1050
GlyphClass: 2
Flags: HW
LayerCount: 2
Back
Fore
SplineSet
30 200 m 0
 30 312 68 407.666666667 144 487 c 256
 220 566.333333333 312 606 420 606 c 0
 562.764245164 606 692.328308846 540.271097222 728 436 c 1
 742.835771082 476.798370475 784.347959782 510 838 510 c 0
 906.183921426 510 974 465.647967987 974 400 c 1
 1047 400 l 1
 1047 374 l 1
 888 374 l 1
 888 419.97382066 864.732197859 475 823 475 c 0
 784.341251095 475 761.917997758 422.46698543 756 384 c 1
 708 384 l 1
 689.653803977 498.310913677 557.777834795 571 420 571 c 0
 348 571 286.666666667 534.666666667 236 462 c 0
 185.333333333 390 160 302.666666667 160 200 c 0
 160 11.9195481362 241.881452751 -157 417 -157 c 0
 482.333333333 -157 538 -135.666666667 584 -93 c 0
 630 -51 653 0 653 60 c 0
 653 112.097665265 633.696228075 188 588 188 c 0
 578.666666667 188 560.666666667 184 554 176 c 1
 554 0 l 1
 424 0 l 1
 424 370 l 1
 283 370 l 1
 283 0 l 1
 248 0 l 1
 248 400 l 1
 653 400 l 1
 653 370 l 1
 554 370 l 1
 554 214 l 1
 572.245469784 231.029105131 601.561247698 243 635 243 c 0
 731.636347765 243 783 160.193258684 783 58 c 0
 783 -115.680409694 605.219219657 -192 416 -192 c 0
 299.333333333 -192 205.666666667 -156.333333333 135 -85 c 0
 65 -13.6666666667 30 81.3333333333 30 200 c 0
EndSplineSet
EndChar

StartChar: uni0BFA
Encoding: 327 3066 72
Width: 1057
GlyphClass: 2
Flags: HW
LayerCount: 2
Back
Fore
SplineSet
45 0 m 1
 45 400 l 1
 282 400 l 1
 262.871876382 415.54160044 249 443.387194015 249 476 c 0
 249 558.568177723 349.921853455 606 438 606 c 0
 510 606 573.666666667 586.666666667 629 548 c 0
 684.333333333 510 719.666666667 460.666666667 735 400 c 1
 804.333333333 400 863.333333333 381.333333333 912 344 c 256
 960.666666667 306.666666667 985 261.333333333 985 208 c 0
 985 113.683543427 891.200740737 51.2668471027 808 31 c 1
 1053 31 l 1
 1053 0 l 1
 662 0 l 1
 662 29 l 1
 715.333333333 29 760.666666667 46.6666666667 798 82 c 0
 836 118 855 161 855 211 c 0
 855 286.62074316 811.112263738 370 740 370 c 1
 746.666666667 343.333333333 750 315.666666667 750 287 c 0
 750 217.813676127 704.264360792 172 634 172 c 0
 567.485376754 172 523 215.072768741 523 282 c 0
 523 357.379392399 620.990301466 400 703 400 c 1
 672.757293628 488.207893584 578.712801732 557 462 557 c 0
 390.323810869 557 300 523.468027038 300 458 c 0
 300 432.176787688 307.038781947 411.521082713 320 400 c 1
 511 400 l 1
 511 370 l 1
 348 370 l 1
 348 251 l 1
 358.697774259 258.641267326 377.083753401 262 397 262 c 0
 465.222239708 262 523 206.978580163 523 139 c 0
 523 62.9257866119 461.398687501 0 386 0 c 2
 218 0 l 1
 218 31 l 1
 340 31 l 2
 391.42627038 31 428 84.8198866657 428 139 c 0
 428 175.587951951 413.853651874 227 382 227 c 0
 372.666666667 227 354.666666667 223 348 215 c 1
 348 106 l 1
 218 106 l 1
 218 370 l 1
 80 370 l 1
 80 0 l 1
 45 0 l 1
653 288 m 0
 653 265.24307491 665.749013811 240 687 240 c 0
 706.009752519 240 715 268.227030249 715 290 c 0
 715 320 712.333333333 346.666666667 707 370 c 1
 672.694556883 370 653 325.326905542 653 288 c 0
EndSplineSet
EndChar

StartChar: uni0964
Encoding: 328 2404 73
Width: 265
GlyphClass: 2
Flags: HW
LayerCount: 2
Back
Fore
SplineSet
90 0 m 1
 90 400 l 1
 220 400 l 1
 220 0 l 1
 90 0 l 1
EndSplineSet
EndChar

StartChar: uni0965
Encoding: 329 2405 74
Width: 485
GlyphClass: 2
Flags: HW
LayerCount: 2
Back
Fore
SplineSet
90 0 m 1
 90 400 l 1
 220 400 l 1
 220 0 l 1
 90 0 l 1
310 0 m 1
 310 400 l 1
 440 400 l 1
 440 0 l 1
 310 0 l 1
EndSplineSet
EndChar

StartChar: uni0BB6
Encoding: 330 2998 75
Width: 761
GlyphClass: 2
Flags: HW
LayerCount: 2
Back
Fore
SplineSet
38 130 m 2
 38 400 l 1
 73 400 l 1
 73 130 l 2
 73 92.4507863843 104.156914004 62 142 62 c 0
 181.325402529 62 217 91.4523287682 217 130 c 2
 217 400 l 1
 724 400 l 1
 724 131 l 2
 724 51.9524574201 637.530528965 0 554 0 c 0
 479.017163944 0 415 57.8962945805 415 131 c 2
 415 370 l 1
 347 370 l 1
 347 133 l 2
 347 53.227332177 260.589812334 0 177 0 c 0
 102.56828428 0 38 57.0261635091 38 130 c 2
450 131 m 2
 450 92.6199089911 480.620917573 62 519 62 c 0
 558.888735338 62 594 91.599024921 594 131 c 2
 594 370 l 1
 450 370 l 1
 450 131 l 2
EndSplineSet
EndChar

StartChar: uni0BD0
Encoding: 331 3024 76
Width: 768
GlyphClass: 2
Flags: HW
LayerCount: 2
Back
Fore
SplineSet
12 -130 m 0
 12 -85.4060098429 44.8456380198 -45 88 -45 c 0
 120.510386933 -45 149 -72.0659455804 149 -105 c 2
 149 -148 l 1
 224 -148 l 1
 224 -111 l 2
 224 -76.0906989093 261.491153457 -54 297 -54 c 0
 342.095751739 -54 381 -88.8228402812 381 -133 c 2
 381 -183 l 1
 114 -183 l 1
 114 -87 l 1
 109.333333333 -82.3333333333 95.3333333333 -80 88 -80 c 0
 63.5697883728 -80 47 -104.22827103 47 -129 c 0
 47 -214.989192692 150.060820482 -247 247 -247 c 0
 315.724127782 -247 393 -225.046859759 393 -164 c 0
 393 -120.607625516 424.647551455 -80 467 -80 c 1
 417.8841312 -67.0747713681 380 -18.7402039784 380 43 c 0
 380 112.778393544 432.668154786 173 501 173 c 1
 489.331218203 159.872620477 484 135.444955855 484 109 c 0
 484 72.6527116947 513.647078675 43 550 43 c 0
 595.645072981 43 621 103.012704733 621 153 c 0
 621 209 594.333333333 256.666666667 541 296 c 0
 487 335.333333333 422.333333333 355 347 355 c 0
 265.666666667 355 196.333333333 335.666666667 139 297 c 0
 81.6666666667 257.666666667 53 210.666666667 53 156 c 0
 53 95.6130130771 84.9927991274 44.7169603244 130 28 c 1
 113.300422328 43.3079461991 104 72.1007699588 104 105 c 0
 104 169.152370385 156.522880434 223 220 223 c 256
 284.00842159 223 336 169.580344594 336 106 c 256
 336 39.5055264827 274.047922853 -10 206 -10 c 0
 108.459692342 -10 18 60.3828586295 18 156 c 0
 18 317.40460113 179.147774407 390 353 390 c 0
 473.666666667 390 570 368.666666667 642 326 c 0
 714.666666667 282.666666667 751 225.333333333 751 154 c 0
 751 56.6388440095 663.192998331 8 560 8 c 0
 501.495103595 8 449 51.6131600702 449 108 c 0
 449 116.666666667 450.666666667 124.333333333 454 131 c 1
 430.294959955 113.8796933 415 81.0799895321 415 40 c 0
 415 -31.2650485583 512.383990969 -69 590 -69 c 2
 699 -69 l 1
 699 -104 l 1
 594 -104 l 2
 555.142592858 -104 523 -136.850468424 523 -176 c 0
 523 -208 497.666666667 -233.666666667 447 -253 c 0
 397 -272.333333333 330 -282 246 -282 c 0
 128.912019764 -282 12 -236.979301319 12 -130 c 0
139 96 m 0
 139 62.6127351783 158.546180145 25 190 25 c 0
 223.426084975 25 246 60.6560810008 246 96 c 0
 246 133.388620769 224.361875399 173 190 173 c 0
 157.867413062 173 139 131.324513402 139 96 c 0
290 -109 m 2
 290 -148 l 1
 346 -148 l 1
 346 -134 l 2
 346 -112.575734912 334.884456275 -89 315 -89 c 0
 302.940860201 -89 290 -96.9558268016 290 -109 c 2
301 -13 m 0
 301 5.41338587148 315.684832477 20 333 20 c 0
 350.876488708 20 366 4.86929697284 366 -13 c 0
 366 -30.3114457025 351.408783778 -45 333 -45 c 0
 315.163064367 -45 301 -30.8431187883 301 -13 c 0
EndSplineSet
EndChar

StartChar: uni20B9
Encoding: 332 8377 77
Width: 651
GlyphClass: 2
Flags: HW
LayerCount: 2
Back
Fore
SplineSet
45 302 m 1
 45 346 l 1
 316 346 l 1
 312.264992199 394.555101418 274.123405223 438 223 438 c 2
 45 438 l 1
 45 480 l 1
 606 480 l 1
 606 438 l 1
 400 438 l 1
 430.096393086 420.165100393 459.934643335 387.382314987 463 346 c 1
 606 346 l 1
 606 302 l 1
 463 302 l 1
 450.03742943 217.743291286 311.547178817 182 203 182 c 1
 240.103376443 112.033632992 309.807578426 39 406 39 c 0
 431.333333333 39 456.333333333 46.3333333333 481 61 c 1
 498 34 l 1
 456 6.66666666667 412.333333333 -7 367 -7 c 0
 297 -7 233 11.3333333333 175 48 c 0
 117.666666667 84.6666666667 76 133.666666667 50 195 c 1
 50 209 l 1
 120.666666667 209 180.666666667 217.666666667 230 235 c 256
 279.333333333 252.333333333 307 274.666666667 313 302 c 1
 45 302 l 1
EndSplineSet
EndChar

StartChar: uni0B95_uni0BBF
Encoding: 333 -1 78
Width: 726
GlyphClass: 2
Flags: HW
LayerCount: 2
Back
Fore
SplineSet
16 134 m 0
 16 187.844057622 62.3927578673 215 119 215 c 1
 80.2718012138 257.047758682 46 314.986224137 46 388 c 0
 46 575.481454225 174.018972663 696 363 696 c 256
 556.79623272 696 681 563.531493427 681 369 c 2
 681 0 l 1
 646 0 l 1
 646 370 l 2
 646 432 618.333333333 484.666666667 563 528 c 0
 507.666666667 572 441 594 363 594 c 256
 285 594 218.666666667 573 164 531 c 0
 108.666666667 488.333333333 81 437.333333333 81 378 c 0
 81 318.24373257 110.156675583 271.224701882 141 234 c 1
 141 400 l 1
 525 400 l 1
 525 370 l 1
 403 370 l 1
 403 220 l 1
 483 220 l 2
 553.655435155 220 608 182.089534357 608 114 c 0
 608 73.3333333333 592 44 560 26 c 0
 528.666666667 8.66666666667 476.333333333 0 403 0 c 1
 403 30 l 1
 461.421577314 30 478 53.9025408597 478 113 c 0
 478 155.863795391 463.046902649 185 423 185 c 2
 403 185 l 1
 403 131 l 2
 403 87 383.333333333 54 344 32 c 0
 304.666666667 9.33333333333 246.666666667 -2 170 -2 c 0
 89.843424522 -2 16 55.9396249616 16 134 c 0
51 135 m 0
 51 70.0669384985 103.840256842 33 171 33 c 0
 231.631693167 33 286 79.1169699263 286 138 c 2
 286 185 l 1
 119 185 l 2
 83.216473744 185 51 168.487148699 51 135 c 0
176 220 m 1
 286 220 l 1
 286 370 l 1
 176 370 l 1
 176 220 l 1
EndSplineSet
Ligature2: "'abvs' Above Base Substitutions in Tamil lookup 2 subtable" uni0B95 uni0BBF
EndChar

StartChar: uni0B99_uni0BBF
Encoding: 334 -1 79
Width: 894
GlyphClass: 2
Flags: HW
LayerCount: 2
Back
Fore
SplineSet
45 0 m 1
 45 400 l 1
 454 400 l 1
 454 370 l 1
 348 370 l 1
 348 257 l 1
 367.927683094 275.50427716 402.128037495 285 442 285 c 0
 522.709022824 285 574 228.950351982 574 147 c 0
 574 89.8005415924 533.789062699 47.285156329 490 30 c 1
 615 30 l 1
 615 308 l 1
 545.133351165 320.092304606 496 393.283868966 496 475 c 0
 496 595.06914313 554.912595045 696 670 696 c 0
 791.088283058 696 849 580.404260863 849 451 c 2
 849 0 l 1
 814 0 l 1
 814 449 l 2
 814 536.524974402 756.444177269 594 670 594 c 0
 589.60515665 594 531 546.384847746 531 467 c 0
 531 414.235472429 566.372837671 339 615 339 c 1
 615 400 l 1
 745 400 l 1
 745 0 l 1
 218 0 l 1
 218 30 l 1
 384 30 l 1
 420.32133986 49.4578606392 444 96.6702512114 444 152 c 0
 444 192.70997318 421.013556497 240 383 240 c 0
 373.666666667 240 355.333333333 235.666666667 348 227 c 1
 348 110 l 1
 218 110 l 1
 218 370 l 1
 80 370 l 1
 80 0 l 1
 45 0 l 1
EndSplineSet
Ligature2: "'abvs' Above Base Substitutions in Tamil lookup 2 subtable" uni0B99 uni0BBF
EndChar

StartChar: uni0B9A_uni0BBF
Encoding: 335 -1 80
Width: 651
GlyphClass: 2
Flags: HW
LayerCount: 2
Back
Fore
SplineSet
22 137 m 0
 22 187.441016001 63.918907254 215 117 215 c 1
 68.9206954225 248.655513205 32 311.39558756 32 389 c 0
 32 567.620821546 139.794765807 696 316 696 c 0
 516.162960886 696 606 575.020478302 606 369 c 2
 606 0 l 1
 571 0 l 1
 571 370 l 2
 571 511.844197202 462.166834442 594 316 594 c 0
 174.325290319 594 67 516.776499124 67 380 c 0
 67 317.748972192 97.3090272553 265.257891747 137 240 c 1
 137 400 l 1
 522 400 l 1
 522 370 l 1
 422 370 l 1
 422 220 l 1
 522 220 l 1
 522 185 l 1
 422 185 l 1
 422 137 l 2
 422 27.9400414215 318.495822676 -2 196 -2 c 0
 100.398857645 -2 22 46.315863872 22 137 c 0
57 137 m 0
 57 66.6182833933 121.499075397 33 197 33 c 0
 256.600421642 33 292 76.6654248267 292 137 c 2
 292 185 l 1
 125 185 l 2
 89.2970464263 185 57 169.766146309 57 137 c 0
172 220 m 1
 292 220 l 1
 292 370 l 1
 172 370 l 1
 172 220 l 1
EndSplineSet
Ligature2: "'abvs' Above Base Substitutions in Tamil lookup 2 subtable" uni0B9A uni0BBF
EndChar

StartChar: uni0B9C_uni0BBF
Encoding: 336 -1 81
Width: 897
GlyphClass: 2
Flags: HW
LayerCount: 2
Back
Fore
SplineSet
8 -64 m 0
 8 27.9566734745 115.0896674 85 212 85 c 2
 494 85 l 2
 567.585536931 85 621 155.674518282 621 231 c 0
 621 289.837645744 598.440480702 373 548 373 c 0
 503.810575907 373 477 318.395690824 477 271 c 2
 477 138 l 1
 347 138 l 1
 347 259 l 2
 347 329.682014676 265.482048178 373 190 373 c 0
 119.722483741 373 52 325.373284531 52 257 c 0
 52 208.000662968 78.2411457407 158.423329751 121 154 c 1
 96.3197734923 162.710668179 82 194.650400774 82 229 c 0
 82 291.468996133 126.051317658 330 189 330 c 256
 253.047850854 330 296 289.135600426 296 225 c 0
 296 160.090321857 236.771307249 127 168 127 c 0
 81.8996068428 127 17 174.775656308 17 258 c 0
 17 348.670047659 113.947211781 408 209 408 c 0
 298.393092686 408 371.412874363 374.039709301 407 320 c 1
 425.851652768 368.475678547 479.944104179 401.828675348 542 407 c 1
 530.666666667 441.666666667 525 468.333333333 525 487 c 0
 525 600.299210839 578.789201874 696 686 696 c 0
 796.928568083 696 852 596.18187322 852 479 c 2
 852 0 l 1
 817 0 l 1
 817 477 l 2
 817 544.571782665 751.026078745 594 681 594 c 0
 616.976972615 594 560 545.386205676 560 482 c 0
 560 456.666666667 564.666666667 432 574 408 c 1
 669.885078335 404.112767095 751 327.184169913 751 228 c 0
 751 93.7125568872 639.721752315 50 493 50 c 2
 237 50 l 2
 171.942283273 50 117 -0.14677983364 117 -64 c 0
 117 -122.117334188 152.148242035 -183 207 -183 c 0
 227 -183 250.333333333 -174.666666667 277 -158 c 0
 303.666666667 -142 331.666666667 -118.666666667 361 -88 c 0
 408.490226834 -39.4544347918 475.536821837 9 560 9 c 0
 655.594033498 9 751 -26.8882519784 751 -114 c 0
 751 -196.949381563 651.63633994 -228 558 -228 c 0
 503.25076752 -228 458.545460935 -209.79752734 431 -181 c 1
 446 -157 l 1
 472.450331527 -178.41217314 510.911925819 -193 558 -193 c 0
 596.341527922 -193 621 -153.129617637 621 -113 c 0
 621 -68.7876076033 592.081893329 -26 549 -26 c 0
 502.333333333 -26 444.666666667 -58 376 -122 c 256
 307.333333333 -186 249.666666667 -218 203 -218 c 0
 96.562297264 -218 8 -165.958409491 8 -64 c 0
117 229 m 0
 117 198.29233592 133.274958873 162 161 162 c 0
 191.013266702 162 210 193.587822355 210 225 c 0
 210 258.354444963 191.316329261 295 161 295 c 0
 132.820553765 295 117 258.971318847 117 229 c 0
EndSplineSet
LCarets2: 1 0
Ligature2: "'abvs' Above Base Substitutions in Tamil lookup 2 subtable" uni0B9C uni0BBF
EndChar

StartChar: uni0B9E_uni0BBF
Encoding: 337 -1 82
Width: 1131
GlyphClass: 2
Flags: HW
LayerCount: 2
Back
Fore
SplineSet
24 126 m 0
 24 240.338035328 84.6023207929 330.602320793 149 395 c 1
 169 373 l 1
 133.666666667 336.333333333 106.666666667 296.666666667 88 254 c 0
 68.6666666667 211.333333333 59 168.333333333 59 125 c 0
 59 24.3333333333 96.6666666667 -59 172 -125 c 0
 246.666666667 -191 341.333333333 -224 456 -224 c 0
 688.728200392 -224 868 -130.049344758 868 89 c 0
 868 145.261162297 832.665605843 202 779 202 c 0
 756.396217716 202 741 178.323828724 741 155 c 2
 741 0 l 1
 611 0 l 1
 611 370 l 1
 442 370 l 2
 376.666666667 370 320.666666667 352 274 316 c 0
 228 280 205 236.333333333 205 185 c 0
 205 123.521210297 227.727743711 71.8698607361 266 50 c 1
 251.83486737 65.4528719605 244 91.1334389096 244 120 c 0
 244 207.00610368 305.851526682 262 394 262 c 256
 479.871759295 262 544 213.623656549 544 130 c 256
 544 41.7711445233 464.239838247 -3 370 -3 c 0
 252.487370549 -3 170 68.5750487908 170 184 c 0
 170 246.666666667 196 298.333333333 248 339 c 0
 299.333333333 379.666666667 364.666666667 400 444 400 c 2
 628 400 l 1
 611.333333333 428.666666667 603 455.666666667 603 481 c 0
 603 540.333333333 624.666666667 591 668 633 c 0
 710.666666667 675 762.666666667 696 824 696 c 0
 1014.35439437 696 1086 591.404958827 1086 394 c 2
 1086 0 l 1
 1051 0 l 1
 1051 397 l 2
 1051 534.592693862 963.772289684 594 822 594 c 0
 738.060009959 594 638 551.403969802 638 474 c 0
 638 442.787383468 644.463310027 414.536689973 659 400 c 1
 837 400 l 1
 837 370 l 1
 741 370 l 1
 741 228 l 1
 765.666666667 244 793.333333333 252 824 252 c 0
 926.110354664 252 998 188.28850745 998 88 c 0
 998 -22 950.666666667 -107.333333333 856 -168 c 0
 760.666666667 -228.666666667 627.333333333 -259 456 -259 c 0
 331.333333333 -259 228 -222.666666667 146 -150 c 0
 64.6666666667 -77.3333333333 24 14.6666666667 24 126 c 0
279 117 m 0
 279 75.5495632586 304.462383126 32 344 32 c 0
 386.072883188 32 414 76.0705242386 414 119 c 0
 414 161.184827926 384.606940319 203 344 203 c 0
 304.039702149 203 279 159.188697535 279 117 c 0
EndSplineSet
LCarets2: 1 0
Ligature2: "'abvs' Above Base Substitutions in Tamil lookup 2 subtable" uni0B9E uni0BBF
EndChar

StartChar: uni0B9F_uni0BBF
Encoding: 338 -1 83
Width: 777
GlyphClass: 2
Flags: HW
LayerCount: 2
Back
Fore
SplineSet
45 0 m 1
 45 400 l 1
 175 400 l 1
 175 30 l 1
 416 30 l 1
 353.216035311 57.769830535 302 126.208685918 302 213 c 0
 302 319.233914277 344.586622157 400 444 400 c 0
 518.322464051 400 591 350.147174446 591 278 c 2
 591 30 l 1
 774 30 l 1
 774 0 l 1
 591 0 l 1
 591 -231 l 1
 461 -231 l 1
 461 0 l 1
 45 0 l 1
337 215 m 0
 337 127.130114673 395.742684653 59.9674208632 461 32 c 1
 461 282 l 2
 461 316.19535731 449.018398387 350 419 350 c 0
 365.356343644 350 337 274.661771172 337 215 c 0
EndSplineSet
Ligature2: "'abvs' Above Base Substitutions in Tamil lookup 2 subtable" uni0B9F uni0BBF
EndChar

StartChar: uni0BA3_uni0BBF
Encoding: 339 -1 84
Width: 1356
GlyphClass: 2
Flags: HW
LayerCount: 2
Back
Fore
SplineSet
20 173 m 0
 20 324.386282681 147.173412165 405 306 405 c 0
 360 405 406 401 444 393 c 0
 482 385.666666667 510 374.666666667 528 360 c 1
 559.97993489 386.057724725 605.910127203 405 660 405 c 0
 732.067710337 405 792.621189624 387.957087954 833 357 c 1
 872.333333333 385.666666667 914.666666667 400 960 400 c 2
 1036 400 l 1
 1020 428.666666667 1012 458.666666667 1012 490 c 0
 1012 598.553713988 1059.95456119 696 1162 696 c 0
 1211.33333333 696 1248.33333333 673.333333333 1273 628 c 0
 1298.33333333 583.333333333 1311 516.666666667 1311 428 c 2
 1311 0 l 1
 1276 0 l 1
 1276 432 l 2
 1276 524.421214237 1246.98466485 594 1162 594 c 0
 1093.90867497 594 1047 553.265190424 1047 486 c 0
 1047 452.666666667 1055 424 1071 400 c 1
 1226 400 l 1
 1226 370 l 1
 1144 370 l 1
 1144 0 l 1
 1014 0 l 1
 1014 370 l 1
 963 370 l 2
 926.333333333 370 894.666666667 360 868 340 c 1
 900.666666667 310 925.666666667 277.333333333 943 242 c 0
 961 206.666666667 970 171.666666667 970 137 c 0
 970 58.4233895744 909.650863162 -11 831 -11 c 0
 752.908779867 -11 693 57.8904816538 693 137 c 0
 693 210.849532875 728.030133363 270.617651886 767 315 c 1
 740.25974328 343.968611446 703.395319703 370 653 370 c 0
 616.71867335 370 586.684043413 353.363273238 564 335 c 1
 616.248784439 289.149025901 667 223.114966679 667 137 c 0
 667 57.3062757762 603.590024698 -11 524 -11 c 256
 444.41495954 -11 381 57.3098336752 381 137 c 0
 381 211.261324883 411.226000975 272.051031307 450 312 c 1
 411.612591639 345.588982317 354.618875541 370 286 370 c 0
 222 370 167.666666667 351 123 313 c 0
 77.6666666667 275 55 229 55 175 c 0
 55 113.930946 77.8320248451 54.8282575567 121 39 c 1
 104.872384864 56.3682009148 95 85.5466133069 95 118 c 0
 95 199.830682702 148.483490342 254 230 254 c 0
 304.041410685 254 366 194.091498188 366 120 c 0
 366 31.6611959859 282.730109777 -11 189 -11 c 0
 93.2131107591 -11 20 75.2844492162 20 173 c 0
130 117 m 256
 130 83.5795235357 148.008182123 44 180 44 c 0
 213.834878832 44 236 81.2686054016 236 118 c 0
 236 153.361536841 213.441262257 189 180 189 c 0
 148.426729356 189 130 150.451592793 130 117 c 256
416 137 m 0
 416 94.9253162186 437.17184 44 476 44 c 256
 515.127236825 44 537 94.2921647411 537 137 c 0
 537 201.395406251 509.722043567 254.115127343 476 289 c 1
 442.495836139 253.185204148 416 200.479320871 416 137 c 0
728 137 m 0
 728 95.0488210897 747.932877399 44 786 44 c 0
 821.928120503 44 840 96.6579990845 840 137 c 0
 840 200.720997338 816.845018042 253.938499808 784 288 c 1
 750.60309772 254.60309772 728 201.164503601 728 137 c 0
EndSplineSet
Ligature2: "'abvs' Above Base Substitutions in Tamil lookup 2 subtable" uni0BA3 uni0BBF
EndChar

StartChar: uni0BA4_uni0BBF
Encoding: 340 -1 85
Width: 756
GlyphClass: 2
Flags: HW
LayerCount: 2
Back
Fore
SplineSet
-4 -169 m 0
 -4 -107.34834907 55.5526029438 -63 119 -63 c 2
 344 -63 l 2
 424.893957725 -63 490 6.27869506284 490 88 c 0
 490 128.780445568 472.562138768 185 436 185 c 2
 416 185 l 1
 416 137 l 2
 416 26.9795616927 308.655832978 -2 185 -2 c 0
 99.8921808044 -2 16 54.1700310403 16 137 c 0
 16 187.853358219 60.2557331723 215 114 215 c 1
 73.8427897525 251.392471786 46 313.729970528 46 388 c 0
 46 577.497601078 179.577594878 696 371 696 c 0
 582.168243978 696 711 578.791295209 711 369 c 2
 711 0 l 1
 676 0 l 1
 676 375 l 2
 676 432.333333333 645 483 583 527 c 0
 521.666666667 571.666666667 451 594 371 594 c 0
 215.813455171 594 81 523.703149407 81 378 c 0
 81 313.12634969 100.421831641 256.367821814 136 229 c 1
 136 400 l 1
 526 400 l 1
 526 370 l 1
 416 370 l 1
 416 220 l 1
 487 220 l 2
 559.1967143 220 620 161.952588221 620 90 c 0
 620 -55.1683616684 516.834552493 -98 360 -98 c 2
 114 -98 l 2
 77.6646739852 -98 31 -114.1478085 31 -147 c 1
 48.3333333333 -139 59.3333333333 -135 64 -135 c 0
 92.8327310575 -135 126 -150.837870201 126 -178 c 256
 126 -206.10139717 88.5999632748 -222 58 -222 c 0
 26.4393353148 -222 -4 -199.898704008 -4 -169 c 0
51 137 m 0
 51 67.8570929845 112.667274207 33 186 33 c 0
 241.903417482 33 286 80.5595054231 286 137 c 2
 286 185 l 1
 119 185 l 2
 86.9411992355 185 51 167.095351859 51 137 c 0
171 220 m 1
 286 220 l 1
 286 370 l 1
 171 370 l 1
 171 220 l 1
EndSplineSet
Ligature2: "'abvs' Above Base Substitutions in Tamil lookup 2 subtable" uni0BA4 uni0BBF
EndChar

StartChar: uni0BA8_uni0BBF
Encoding: 341 -1 86
Width: 719
GlyphClass: 2
Flags: HW
LayerCount: 2
Back
Fore
SplineSet
5 -169 m 0
 5 -107.34834907 64.5526029438 -63 128 -63 c 2
 304 -63 l 2
 417.152734909 -63 466 -9.45544927413 466 105 c 0
 466 156.333533858 438.610496291 217 391 217 c 0
 367.565019124 217 346 201.643769244 346 179 c 2
 346 0 l 1
 216 0 l 1
 216 370 l 1
 80 370 l 1
 80 0 l 1
 45 0 l 1
 45 400 l 1
 261 400 l 1
 247.666666667 420.666666667 241 447.333333333 241 480 c 0
 241 610.145620016 326.856213769 696 457 696 c 0
 531.666666667 696 586.333333333 672 621 624 c 0
 656.333333333 576.666666667 674 502 674 400 c 2
 674 0 l 1
 639 0 l 1
 639 400 l 2
 639 530.352917823 585.453086656 594 457 594 c 0
 375.087380945 594 276 553.064098679 276 478 c 0
 276 446.666666667 283.333333333 420.666666667 298 400 c 1
 512 400 l 1
 512 370 l 1
 346 370 l 1
 346 230 l 1
 370.666666667 248 401.666666667 257 439 257 c 0
 524.426853886 257 596 188.182208931 596 103 c 0
 596 -42.5886401078 458.841518034 -98 300 -98 c 2
 123 -98 l 2
 91.2058956975 -98 50 -112.825331476 50 -142 c 1
 54.1174839778 -142 67.8200442719 -135 73 -135 c 0
 103.75948894 -135 135 -152.360055865 135 -181 c 0
 135 -207.232103227 96.6498189594 -220 67 -220 c 0
 35.4894679075 -220 5 -199.187378902 5 -169 c 0
EndSplineSet
Ligature2: "'abvs' Above Base Substitutions in Tamil lookup 2 subtable" uni0BA8 uni0BBF
EndChar

StartChar: uni0BA9_uni0BBF
Encoding: 342 -1 87
Width: 1064
GlyphClass: 2
Flags: HW
LayerCount: 2
Back
Fore
SplineSet
21 170 m 0
 21 324.338134393 142.190578451 412 302 412 c 0
 397.358896906 412 484.977788465 397.01698529 536 358 c 1
 559.521816156 385.67272489 607.088096369 400 660 400 c 2
 737 400 l 1
 721.666666667 431.333333333 714 465 714 501 c 0
 714 606.157896267 763.904985255 696 864 696 c 0
 970.84867952 696 1019 590.147551647 1019 475 c 2
 1019 0 l 1
 984 0 l 1
 984 477 l 2
 984 540.029911694 934.219267085 594 871 594 c 0
 806.388307638 594 749 544.86141231 749 482 c 256
 749 451.333333333 755.333333333 424 768 400 c 1
 922 400 l 1
 922 367 l 1
 840 367 l 1
 840 0 l 1
 710 0 l 1
 710 367 l 1
 610 367 l 1
 596 363 585.333333333 350 578 342 c 1
 627.166333645 300.397717685 661 225.789417233 661 137 c 256
 661 53.091197931 607.052274769 -5 523 -5 c 256
 438.944111562 -5 385 53.0970442454 385 137 c 0
 385 214.934690374 411.239359269 280.45943936 453 317 c 1
 411.604865857 350.346080282 358.062674747 377 289 377 c 0
 155.513170271 377 56 301.410469567 56 172 c 0
 56 109.010159177 84.3309109217 49.1421482056 131 35 c 1
 107.909293718 50.8748605685 96 86.4726057227 96 127 c 0
 96 205.41156114 152.166449347 254 231 254 c 0
 311.749861691 254 367 204.909770919 367 125 c 0
 367 40.5293792399 303.445981592 -10 217 -10 c 0
 102.720590657 -10 21 58.0703256339 21 170 c 0
131 122 m 0
 131 86.7591256647 148.011409739 42 181 42 c 0
 215.767872232 42 237 82.6702333709 237 120 c 0
 237 158.102964156 216.218858573 199 181 199 c 0
 149.174571674 199 131 156.648724773 131 122 c 0
420 137 m 0
 420 97.5193320137 437.522261821 42 473 42 c 0
 510.958652606 42 531 95.2794969876 531 137 c 0
 531 202.997136187 509.466567504 259.045319552 473 289 c 1
 437.354517639 261.909433406 420 202.25932194 420 137 c 0
EndSplineSet
Ligature2: "'abvs' Above Base Substitutions in Tamil lookup 2 subtable" uni0BA9 uni0BBF
EndChar

StartChar: uni0BAA_uni0BBF
Encoding: 343 -1 88
Width: 804
GlyphClass: 2
Flags: HW
LayerCount: 2
Back
Fore
SplineSet
45 0 m 1
 45 400 l 1
 175 400 l 1
 175 30 l 1
 516 30 l 1
 516 308 l 1
 442.043925529 308 395 388.509508556 395 466 c 0
 395 590.664564382 455.635648966 696 574 696 c 0
 712.326633449 696 759 584.429790496 759 435 c 2
 759 0 l 1
 724 0 l 1
 724 434 l 2
 724 519.077641508 658.057078843 594 574 594 c 0
 497.359866506 594 430 534.984740279 430 459 c 0
 430 401.462773897 461.950501179 339 516 339 c 1
 516 400 l 1
 646 400 l 1
 646 0 l 1
 45 0 l 1
EndSplineSet
Ligature2: "'abvs' Above Base Substitutions in Tamil lookup 2 subtable" uni0BAA uni0BBF
EndChar

StartChar: uni0BAE_uni0BBF
Encoding: 344 -1 89
Width: 846
GlyphClass: 2
Flags: HW
LayerCount: 2
Back
Fore
SplineSet
45 0 m 1
 45 400 l 1
 175 400 l 1
 175 30 l 1
 319 30 l 1
 319 272 l 2
 319 348.269895881 394.03387152 402.38256531 470 406 c 1
 449.333333333 443.333333333 439 474.666666667 439 500 c 0
 439 614.828830456 507.921968714 696 620 696 c 0
 680 696 725 673.333333333 755 628 c 0
 785.666666667 583.333333333 801 516.666666667 801 428 c 2
 801 0 l 1
 766 0 l 1
 766 427 l 2
 766 532.216325688 721.137730919 594 619 594 c 0
 540.873985686 594 474 558.63277192 474 486 c 0
 474 455.333333333 481.666666667 428.333333333 497 405 c 1
 588.028324043 394.722608575 643 284.500678502 643 178 c 0
 643 86.3699602738 605.882560395 0 522 0 c 2
 45 0 l 1
449 30 m 1
 512 30 l 2
 580.434572331 30 608 104.806609076 608 180 c 0
 608 263.706012116 583.166929972 361 510 361 c 0
 471.942623427 361 449 315.830019276 449 275 c 2
 449 30 l 1
EndSplineSet
Ligature2: "'abvs' Above Base Substitutions in Tamil lookup 2 subtable" uni0BAE uni0BBF
EndChar

StartChar: uni0BAF_uni0BBF
Encoding: 345 -1 90
Width: 825
GlyphClass: 2
Flags: HW
LayerCount: 2
Back
Fore
SplineSet
40 119 m 2
 40 400 l 1
 170 400 l 1
 170 69 l 257
 175.333333333 57 190 51 198 51 c 0
 206.666666667 51 223 57 229 69 c 257
 229 400 l 1
 359 400 l 1
 359 30 l 1
 537 30 l 1
 537 308 l 1
 460.838387067 308 419 408.14228196 419 490 c 0
 419 606.317228402 483.259066112 696 597 696 c 0
 723.065700586 696 780 570.386624883 780 435 c 2
 780 0 l 1
 745 0 l 1
 745 434 l 2
 745 519.063421154 680.37799356 594 597 594 c 0
 521.169717963 594 454 534.474283023 454 459 c 0
 454 402.939112824 485.014875765 340 537 340 c 1
 537 400 l 1
 667 400 l 1
 667 0 l 1
 247 0 l 1
 247 66 l 1
 239.634017771 25.4870977413 205.323586853 -10 160 -10 c 0
 92.3174346102 -10 40 50.595164848 40 119 c 2
EndSplineSet
Ligature2: "'abvs' Above Base Substitutions in Tamil lookup 2 subtable" uni0BAF uni0BBF
EndChar

StartChar: uni0BB0_uni0BBF
Encoding: 346 -1 91
Width: 567
GlyphClass: 2
Flags: HW
LayerCount: 2
Back
Fore
SplineSet
38 -142 m 1
 224 0 l 1
 224 370 l 1
 80 370 l 1
 80 0 l 1
 45 0 l 1
 45 400 l 1
 233 400 l 1
 219 422.666666667 212 451 212 485 c 0
 212 584.664990785 269.85218836 696 364 696 c 0
 474.324252581 696 522 583.132603957 522 464 c 2
 522 0 l 1
 487 0 l 1
 487 462 l 2
 487 531.880838816 435.178587759 594 367 594 c 256
 302.492491144 594 247 544.724274399 247 481 c 0
 247 447.828511257 254.399459684 418.582505857 269 400 c 1
 451 400 l 1
 451 370 l 1
 354 370 l 1
 354 14 l 1
 57 -165 l 1
 38 -142 l 1
EndSplineSet
Ligature2: "'abvs' Above Base Substitutions in Tamil lookup 2 subtable" uni0BB0 uni0BBF
EndChar

StartChar: uni0BB1_uni0BBF
Encoding: 347 -1 92
Width: 774
GlyphClass: 2
Flags: HW
LayerCount: 2
Back
Fore
SplineSet
9 -169 m 0
 9 -108.787403904 65.100590515 -63 127 -63 c 2
 337 -63 l 2
 379.666666667 -63 416.333333333 -40 447 6 c 0
 477 52 492 107.333333333 492 172 c 0
 492 228 483.666666667 275.666666667 467 315 c 256
 450.333333333 354.333333333 430.333333333 374 407 374 c 0
 362.246961381 374 338 315.230501412 338 266 c 2
 338 0 l 1
 208 0 l 1
 208 305 l 2
 208 343.380091009 177.379082427 374 139 374 c 0
 103.455213212 374 76 341.125126689 76 304 c 2
 76 0 l 1
 41 0 l 1
 41 307 l 2
 41 365.526869948 96.9247390355 409 157 409 c 0
 223.501650109 409 279.122775288 378.193061781 298 331 c 1
 314.119268519 367.84404233 344.584382123 401.940626017 387 408 c 1
 376.333333333 428 371 452.666666667 371 482 c 0
 371 601.20579971 432.19310636 696 547 696 c 0
 664.719310249 696 729 600.116925764 729 479 c 2
 729 0 l 1
 694 0 l 1
 694 477 l 2
 694 545.460454383 624.124604718 594 552 594 c 0
 481.110745238 594 406 549.537027697 406 482 c 256
 406 451.333333333 410.666666667 427 420 409 c 1
 561.341753348 409 622 318.51666071 622 172 c 0
 622 97.3333333333 594.666666667 33.6666666667 540 -19 c 0
 484.666666667 -71.6666666667 418.333333333 -98 341 -98 c 2
 128 -98 l 2
 89.5955553468 -98 52.4965825957 -113.512986135 45 -142 c 1
 73 -142 l 2
 87 -142 99 -139.333333333 109 -148 c 0
 119 -157.333333333 124 -168.333333333 124 -181 c 0
 124 -204.628212726 96.9838076274 -220 71 -220 c 0
 39.4894679075 -220 9 -199.187378902 9 -169 c 0
EndSplineSet
Ligature2: "'abvs' Above Base Substitutions in Tamil lookup 2 subtable" uni0BB1 uni0BBF
EndChar

StartChar: uni0BB2_uni0BBF
Encoding: 348 -1 93
Width: 883
GlyphClass: 2
Flags: HW
LayerCount: 2
Back
Fore
SplineSet
19 180 m 0
 19 240.666666667 43 292.666666667 91 336 c 0
 139 378.666666667 196.666666667 400 264 400 c 0
 389.324179357 400 521 357.850826812 521 246 c 2
 521 117 l 2
 521 75.5341065758 549.533221103 36 589 36 c 0
 658.468086525 36 683 125.482129005 683 204 c 0
 683 241.333333333 670 277.333333333 644 312 c 1
 636 309.333333333 629 308 623 308 c 0
 535.475585532 308 466 383.700455716 466 472 c 0
 466 596.028702554 528.978128037 696 648 696 c 0
 700.666666667 696 745.333333333 671.333333333 782 622 c 0
 819.333333333 573.333333333 838 514.333333333 838 445 c 2
 838 0 l 1
 803 0 l 1
 803 444 l 2
 803 525.989306021 734.986922101 594 653 594 c 0
 575.527761684 594 501 541.499773148 501 467 c 0
 501 401.669600817 550.594217995 343 616 343 c 1
 596 360 l 2
 588.587730298 367.412269702 583 377.700539126 583 392 c 0
 583 410.24548218 603.215771889 422 622 422 c 0
 648.666666667 422 671.333333333 400.666666667 690 358 c 256
 708.666666667 315.333333333 718 264 718 204 c 0
 718 80.7131022665 670.181915848 1 552 1 c 0
 468.344082375 1 392 36.9570366869 392 114 c 2
 392 247 l 2
 392 322.196433563 337.69726837 369 261 369 c 0
 203.666666667 369 155 350.666666667 115 314 c 0
 74.3333333333 277.333333333 54 233.333333333 54 182 c 0
 54 118.993207667 80.537814114 69.6414572572 119 44 c 1
 101.892375856 61.1076241439 92 89.2494381763 92 123 c 0
 92 196.940704229 152.439387343 258 226 258 c 0
 307.389388367 258 360 201.958208314 360 120 c 0
 360 38.4594458379 277.343713069 1 189 1 c 0
 93.8529521436 1 19 84.2141991605 19 180 c 0
127 114 m 0
 127 78.8155803644 144.194167269 36 176 36 c 0
 210.698544055 36 230 81.7498349424 230 119 c 0
 230 155.797734333 210.001497623 198 176 198 c 0
 143.625158397 198 127 151.022915722 127 114 c 0
EndSplineSet
Ligature2: "'abvs' Above Base Substitutions in Tamil lookup 2 subtable" uni0BB2 uni0BBF
EndChar

StartChar: uni0BB3_uni0BBF
Encoding: 349 -1 94
Width: 1064
GlyphClass: 2
Flags: HW
LayerCount: 2
Back
Fore
SplineSet
19 193 m 0
 19 251 43 300.333333333 91 341 c 256
 139 381.666666667 196.666666667 402 264 402 c 0
 357.54532598 402 431.099398357 362.656290896 475 309 c 1
 475 400 l 1
 750 400 l 1
 736 432.666666667 729 465 729 497 c 0
 729 600.134682354 771.995519262 696 868 696 c 0
 972.776064482 696 1019 591.419031854 1019 479 c 2
 1019 0 l 1
 984 0 l 1
 984 482 l 2
 984 543.337724909 931.296897091 594 869 594 c 0
 811.125218739 594 764 542.074003531 764 483 c 0
 764 457.666666667 771 430 785 400 c 1
 933 400 l 1
 933 367 l 1
 844 367 l 1
 844 0 l 1
 714 0 l 1
 714 367 l 1
 582 367 l 1
 582 0 l 1
 452 0 l 1
 452 218 l 1
 425.282385446 292.586673965 357.209510392 367 264 367 c 0
 206 367 156.666666667 350.333333333 116 317 c 0
 74.6666666667 283 54 242.333333333 54 195 c 0
 54 124.727056599 83.387534772 57.8708217427 134 41 c 1
 116.672858166 59.6599988978 107 91.1799315821 107 127 c 0
 107 207.838702701 161.176504566 260 243 260 c 256
 325.354038676 260 379 205.019622154 379 122 c 0
 379 38.1478711249 295.318522678 -1 205 -1 c 0
 101.465536026 -1 19 88.3130092677 19 193 c 0
142 118 m 0
 142 80.8006005777 159.833761658 34 193 34 c 0
 228.883883349 34 249 79.7568644602 249 119 c 0
 249 155.702981916 227.848595855 195 193 195 c 0
 160.867413062 195 142 153.324513402 142 118 c 0
EndSplineSet
Ligature2: "'abvs' Above Base Substitutions in Tamil lookup 2 subtable" uni0BB3 uni0BBF
EndChar

StartChar: uni0BB4_uni0BBF
Encoding: 350 -1 95
Width: 830
GlyphClass: 2
Flags: HW
LayerCount: 2
Back
Fore
SplineSet
24 -173 m 0
 24 -107.830904539 90.8763021144 -63 159 -63 c 0
 200.95117891 -63 252 -82.9328773981 252 -121 c 0
 252 -150.106391102 203.883913097 -163 170 -163 c 0
 146.531778681 -163 122 -148.23180552 122 -126 c 0
 119.327616897 -113.974276034 123.642046438 -102.905302375 131 -98 c 1
 90.2781394619 -98 59 -133.465542284 59 -174 c 0
 59 -221.253251308 127.820988213 -245 180 -245 c 0
 227.194128571 -245 267 -207.332274563 267 -160 c 0
 267 -107.524069691 308.671644589 -63 362 -63 c 1
 335.563169699 -58.8257636367 319 -30.2651387044 319 0 c 1
 45 0 l 1
 45 400 l 1
 175 400 l 1
 175 30 l 1
 319 30 l 1
 319 267 l 2
 319 343.847375991 382.643950368 401.359783378 453 410 c 1
 443 437.333333333 438 460.666666667 438 480 c 0
 438 539.333333333 454.666666667 590.333333333 488 633 c 0
 521.333333333 675 561.666666667 696 609 696 c 0
 657.666666667 696 699 673.333333333 733 628 c 0
 767.666666667 582.666666667 785 528 785 464 c 2
 785 0 l 1
 750 0 l 1
 750 462 l 2
 750 536.6706056 683.588254022 594 609 594 c 0
 540.769033849 594 473 547.659204667 473 482 c 0
 473 454.18290462 474.466009532 425.25438475 484 410 c 1
 528 410 565.333333333 388.666666667 596 346 c 0
 627.333333333 304 643 253 643 193 c 0
 643 96.2259980513 607.607803396 0 521 0 c 2
 448 0 l 1
 448 -33.407949503 474.031716406 -63 508 -63 c 2
 606 -63 l 1
 606 -98 l 1
 498 -98 l 2
 445.378252462 -98 397 -134.743139665 397 -185 c 0
 397 -211 376 -233.333333333 334 -252 c 0
 291.333333333 -270.666666667 240.333333333 -280 181 -280 c 0
 100.215400116 -280 24 -247.628109103 24 -173 c 0
448 30 m 1
 522 30 l 2
 581.977401742 30 608 127.203700506 608 195 c 0
 608 272.010198993 570.969771847 370 500 370 c 0
 463.752410741 370 448 312.162751252 448 271 c 2
 448 30 l 1
EndSplineSet
Ligature2: "'abvs' Above Base Substitutions in Tamil lookup 2 subtable" uni0BB4 uni0BBF
EndChar

StartChar: uni0BB5_uni0BBF
Encoding: 351 -1 96
Width: 936
GlyphClass: 2
Flags: HW
LayerCount: 2
Back
Fore
SplineSet
21 182 m 0
 21 332.970159971 135.075501454 421 290 421 c 0
 440.776199824 421 560 342.128995621 560 198 c 0
 560 124.669579905 537.017017433 59.8185285007 495 30 c 1
 644 30 l 1
 644 309 l 1
 574.722897404 314.655273682 529 391.862319687 529 470 c 0
 529 595.207242007 591.53235212 696 710 696 c 0
 760 696 802.666666667 671.333333333 838 622 c 0
 873.333333333 573.333333333 891 514.333333333 891 445 c 2
 891 0 l 1
 856 0 l 1
 856 452 l 2
 856 530.93740035 786.709651464 594 707 594 c 0
 633.579015109 594 564 543.71470028 564 473 c 0
 564 412.733842614 592.732615229 346.523592774 644 342 c 1
 644 400 l 1
 774 400 l 1
 774 0 l 1
 343 0 l 1
 343 27 l 1
 395.269554713 51.8280384883 430 119.441619893 430 196 c 0
 430 296.121368558 343.170882799 376 243 376 c 256
 139.625125489 376 56 286.146271905 56 182 c 0
 56 118.993207667 82.537814114 69.6414572572 121 44 c 1
 105.067241663 62.3839519271 95 90.7922669525 95 123 c 0
 95 203.470335938 148.125064876 258 229 258 c 256
 310.397014449 258 363 203.298373906 363 122 c 0
 363 39.5069023473 284.608821543 1 197 1 c 0
 89.2046311766 1 21 74.039175504 21 182 c 0
130 120 m 0
 130 82.9250204651 146.59574056 36 179 36 c 0
 213.698544055 36 233 81.7498349424 233 119 c 0
 233 155.797734333 213.001497623 198 179 198 c 0
 147.222068702 198 130 155.146960533 130 120 c 0
EndSplineSet
Ligature2: "'abvs' Above Base Substitutions in Tamil lookup 2 subtable" uni0BB5 uni0BBF
EndChar

StartChar: uni0BB7_uni0BBF
Encoding: 352 -1 97
Width: 1171
GlyphClass: 2
Flags: HW
LayerCount: 2
Back
Fore
SplineSet
20 185 m 0
 20 332.530893098 139.931062371 414 292 414 c 256
 441.553006537 414 564 338.436611036 564 195 c 0
 564 121.089510913 534.032569764 61.6415954146 491 30 c 1
 707 30 l 1
 707 164 l 1
 637.650910095 164 574 213.870178195 574 281 c 0
 574 344.21715105 625.943231047 392.973892003 685 398 c 1
 673 424 667 451.333333333 667 480 c 0
 667 612.706658395 758.555670009 696 892 696 c 0
 1032.76018202 696 1126 604.091481107 1126 464 c 2
 1126 0 l 1
 1091 0 l 1
 1091 462 l 2
 1091 546.704156899 982.615087095 594 892 594 c 0
 807.64368036 594 702 553.969267498 702 478 c 0
 702 450 707.333333333 423.333333333 718 398 c 1
 774.407021966 393.575919845 837 359.317585481 837 304 c 2
 837 193 l 1
 859 193 881.333333333 203 904 223 c 0
 927.333333333 243 947.666666667 270 965 304 c 1
 1026 304 l 1
 1026 0 l 1
 837 0 l 1
 837 -242 l 1
 707 -242 l 1
 707 0 l 1
 347 0 l 1
 347 27 l 1
 397.676396701 54.8720181853 434 118.197040892 434 196 c 0
 434 294.133047722 343.9281891 369 244 369 c 0
 130.436139282 369 55 294.888884964 55 182 c 0
 55 120.506092943 85.4205099986 69.1869481827 125 44 c 1
 109.674685805 61.6830548403 99 87.5347551745 99 118 c 0
 99 195.226051609 154.270875977 243 233 243 c 256
 310.626589531 243 367 197.537982273 367 122 c 0
 367 37.0639785873 294.883309008 -9 206 -9 c 0
 102.465536026 -9 20 80.3130092677 20 185 c 0
134 120 m 0
 134 85.3100957536 151.915478067 46 183 46 c 0
 216.281905929 46 237 84.2010663559 237 119 c 0
 237 154.503100257 215.808113796 193 183 193 c 0
 151.470888817 193 134 153.956006132 134 120 c 0
609 281 m 0
 609 230.538330708 655.090569466 192 707 192 c 1
 707 302 l 2
 707 328.230177841 689.616064842 354 664 354 c 0
 629.80859105 354 609 316.435596163 609 281 c 0
837 30 m 1
 896 30 l 1
 896 179 l 1
 882.661143236 169.662800265 860.259102699 164 837 164 c 1
 837 30 l 1
EndSplineSet
Ligature2: "'abvs' Above Base Substitutions in Tamil lookup 2 subtable" uni0BB7 uni0BBF
EndChar

StartChar: uni0BB8_uni0BBF
Encoding: 353 -1 98
Width: 1176
GlyphClass: 2
Flags: HW
LayerCount: 2
Back
Fore
SplineSet
21 188 m 0
 21 328.543942353 127.487387085 411 271 411 c 0
 379.611402359 411 482.683337531 374.220658439 518 305 c 1
 534.157873281 363.416926473 592.846234417 411 665 411 c 0
 754.847387854 411 833 343.8625327 833 256 c 2
 833 117 l 2
 833 80.7977296588 857.138993875 44 893 44 c 0
 961.657299938 44 988 126.369474656 988 204 c 0
 988 248.479062487 974.329083035 285.588646207 954 311 c 1
 944 307.666666667 930.666666667 306 914 306 c 0
 831.975044835 306 781 400.070054856 781 487 c 0
 781 603.486176864 841.329981227 696 953 696 c 0
 1072.61589368 696 1131 583.427540975 1131 456 c 2
 1131 0 l 1
 1096 0 l 1
 1096 459 l 2
 1096 533.973339857 1031.07655225 594 956 594 c 256
 887.126044896 594 816 552.096699248 816 487 c 0
 816 420.010282197 851.628816054 337.057692307 914.586168639 337.057692307 c 0
 918.336415187 337.057692307 922.14102564 337.371794871 926 338 c 1
 901 360 l 2
 896.100760408 364.899239592 893 372.273441027 893 382 c 0
 893 403.288189782 908.346674551 422 928 422 c 0
 954 422 976.333333333 400.666666667 995 358 c 256
 1013.66666667 315.333333333 1023 264 1023 204 c 0
 1023 87.3513235138 967.848759887 -11 858 -11 c 0
 772.457039208 -11 703 31.7038131339 703 114 c 2
 703 257 l 2
 703 307.800621609 680.41591269 376 635 376 c 0
 587.409194967 376 559 319.729494049 559 269 c 2
 559 0 l 1
 429 0 l 1
 429 235 l 2
 429 315.35089638 353.240257039 376 270 376 c 0
 148.322853812 376 56 308.388614041 56 190 c 0
 56 123.044135274 83.0306414607 57.9303618372 131 41 c 1
 113.640023267 60.8399734101 103 88.2510144749 103 124 c 0
 103 204.361376891 160.496582088 255 242 255 c 256
 324.594641724 255 381 203.354796451 381 122 c 0
 381 44.4053176992 302.834595724 -11 222 -11 c 0
 101.161660986 -11 21 67.8300868275 21 188 c 0
138 122 m 0
 138 85.9420977884 158.40932014 44 192 44 c 0
 227.207500949 44 251 81.5803428464 251 119 c 0
 251 156.395402139 227.803376684 195 192 195 c 0
 158.718094071 195 138 156.798933644 138 122 c 0
EndSplineSet
Ligature2: "'abvs' Above Base Substitutions in Tamil lookup 2 subtable" uni0BB8 uni0BBF
EndChar

StartChar: uni0BB9_uni0BBF
Encoding: 354 -1 99
Width: 1349
GlyphClass: 2
Flags: HW
LayerCount: 2
Back
Fore
SplineSet
20 -164 m 0
 20 -105.66460409 77.8686336503 -63 138 -63 c 2
 906 -63 l 2
 952 -63 991.333333333 -40.3333333333 1024 5 c 256
 1056.66666667 50.3333333333 1073 105.333333333 1073 170 c 0
 1073 230.666666667 1065.33333333 279 1050 315 c 0
 1034 351.666666667 1013 370 987 370 c 0
 950.516150822 370 926 331.440763749 926 294 c 2
 926 0 l 1
 796 0 l 1
 796 295 l 2
 796 332.440584258 772.224445787 370 737 370 c 0
 703.646617322 370 684 328.730552631 684 294 c 2
 684 0 l 1
 343 0 l 1
 343 30 l 1
 392.141706219 57.0279384202 430 116.664950661 430 191 c 0
 430 301.109443901 352.844265986 370 242 370 c 256
 128.588810089 370 55 295.003242774 55 182 c 0
 55 120.253650936 82.4802127522 68.8514756433 121 44 c 1
 105.051962243 59.9480377569 95 89.477257034 95 122 c 0
 95 199.36163439 149.725863194 248 229 248 c 256
 308.286646789 248 363 199.371257743 363 122 c 0
 363 41.7133269924 292.470974841 0 207 0 c 0
 106.818052352 0 20 79.8807879021 20 180 c 0
 20 330.462419198 134.499074809 419 290 419 c 256
 442.037631629 419 560 336.628446632 560 190 c 0
 560 120.248825248 537.098626537 59.4056594606 497 30 c 1
 649 30 l 1
 649 292 l 2
 649 359.240040924 697.255171841 400 766 400 c 0
 822.391571679 400 871.320991789 372.368114052 886 331 c 1
 898.995795504 368.543409233 940.345818105 392.596619152 986 400 c 1
 973.333333333 422 967 457.666666667 967 507 c 0
 967 615.607484665 1029.62889971 696 1135 696 c 0
 1249.10760007 696 1304 590.300639365 1304 469 c 2
 1304 0 l 1
 1269 0 l 1
 1269 467 l 2
 1269 538.670842955 1207.45117202 594 1135 594 c 0
 1067.44029849 594 1002 547.226198483 1002 482 c 0
 1002 449.333333333 1009.33333333 422 1024 400 c 1
 1149.43831434 392.952903689 1203 308.376936956 1203 172 c 0
 1203 -20.5118440249 1103.31728142 -98 906 -98 c 2
 139 -98 l 2
 102.778408495 -98 55 -112.73864483 55 -144 c 1
 88 -144 l 2
 99.3333333333 -144 109.333333333 -139.333333333 118 -148 c 0
 126 -157.333333333 130 -168.333333333 130 -181 c 0
 130 -204.250754106 106.697294093 -220 82 -220 c 0
 48.70617822 -220 20 -196.089738317 20 -164 c 0
130 122 m 0
 130 87.4537252244 147.119720278 46 179 46 c 0
 212.638452697 46 233 86.6093557337 233 122 c 0
 233 154.845725971 210.977786188 188 179 188 c 0
 148.597852608 188 130 154.035773069 130 122 c 0
EndSplineSet
Ligature2: "'abvs' Above Base Substitutions in Tamil lookup 2 subtable" uni0BB9 uni0BBF
EndChar

StartChar: uni0B95_uni0BC0
Encoding: 355 -1 100
Width: 627
GlyphClass: 2
Flags: HW
LayerCount: 2
Back
Fore
SplineSet
16 134 m 0
 16 188.659971118 64.9831121779 215 123 215 c 1
 79.32746559 248.967526764 46 307.312110064 46 382 c 0
 46 466 76 535.333333333 136 590 c 0
 195.333333333 644.666666667 270.666666667 672 362 672 c 0
 474.475973999 672 583 640.168737484 583 540 c 0
 583 463.50646786 520.253629044 422 441 422 c 0
 373.959992696 422 330 467.287584239 330 535 c 0
 330 563.547658952 337.102809253 590.457099319 352 604 c 1
 192.117052598 604 81 530.99348692 81 378 c 0
 81 318.718294965 104.670427689 267.354725056 141 244 c 1
 141 400 l 1
 526 400 l 1
 526 370 l 1
 416 370 l 1
 416 220 l 1
 488 220 l 2
 558.655435155 220 613 182.089534357 613 114 c 0
 613 73.3333333333 596.333333333 44 563 26 c 0
 529 8.66666666667 473.333333333 0 396 0 c 1
 396 30 l 1
 459.873249052 30 483 49.7861222313 483 113 c 0
 483 155.863795391 468.046902649 185 428 185 c 2
 416 185 l 1
 416 131 l 2
 416 87 395.333333333 54 354 32 c 0
 312.666666667 9.33333333333 251.333333333 -2 170 -2 c 0
 89.843424522 -2 16 55.9396249616 16 134 c 0
51 135 m 0
 51 70.0669384985 103.840256842 33 171 33 c 0
 231.631693167 33 286 79.1169699263 286 138 c 2
 286 185 l 1
 119 185 l 2
 83.216473744 185 51 168.487148699 51 135 c 0
176 220 m 1
 286 220 l 1
 286 370 l 1
 176 370 l 1
 176 220 l 1
365 535 m 0
 365 507.592383411 380.327043869 477 406 477 c 0
 433.500305042 477 453 506.199323968 453 535 c 0
 453 567.14559943 435.577608033 604 406 604 c 0
 378.626197511 604 365 565.488519737 365 535 c 0
EndSplineSet
LCarets2: 1 0
Ligature2: "'abvs' Above Base Substitutions in Tamil lookup 2 subtable" uni0B95 uni0BC0
EndChar

StartChar: uni0B99_uni0BC0
Encoding: 356 -1 101
Width: 790
GlyphClass: 2
Flags: HW
LayerCount: 2
Back
Fore
SplineSet
45 0 m 1
 45 400 l 1
 464 400 l 1
 464 370 l 1
 348 370 l 1
 348 257 l 1
 376 275.666666667 407.333333333 285 442 285 c 0
 522.709022824 285 574 228.950351982 574 147 c 0
 574 89.8005415924 533.789062699 47.285156329 490 30 c 1
 615 30 l 1
 615 307 l 1
 546.44872426 318.864643878 496 387.605209439 496 467 c 0
 496 594.836726099 582.919141859 677 712 677 c 0
 824.871288403 677 926 641.775091731 926 540 c 0
 926 463.946309705 862.439767533 423 783 423 c 0
 715.286575659 423 670 466.954267987 670 534 c 0
 670 567.99160592 683.109196036 595.887356829 702 611 c 1
 603.467797858 611 531 555.598867539 531 460 c 0
 531 400.267319809 565.837522618 348.629724839 615 338 c 1
 615 400 l 1
 745 400 l 1
 745 0 l 1
 218 0 l 1
 218 30 l 1
 384 30 l 1
 420.733138154 49.6784668678 444 100.187007378 444 157 c 0
 444 196.469900082 420.721658883 240 383 240 c 0
 373.666666667 240 355.333333333 235.666666667 348 227 c 1
 348 110 l 1
 218 110 l 1
 218 370 l 1
 80 370 l 1
 80 0 l 1
 45 0 l 1
705 535 m 0
 705 506.167268942 720.837870201 473 748 473 c 0
 777.32899162 473 796 504.192747059 796 535 c 0
 796 567.803505304 778.511293067 604 748 604 c 0
 719.844903662 604 705 565.626530783 705 535 c 0
EndSplineSet
Ligature2: "'abvs' Above Base Substitutions in Tamil lookup 2 subtable" uni0B99 uni0BC0
EndChar

StartChar: uni0B9A_uni0BC0
Encoding: 357 -1 102
Width: 516
GlyphClass: 2
Flags: HW
LayerCount: 2
Back
Fore
SplineSet
19 137 m 0
 19 185.625498917 53.8165726382 215 104 215 c 1
 65.9639510988 250.500312308 41 309.269296427 41 382 c 0
 41 466 70.3333333333 535.333333333 129 590 c 0
 188.333333333 644.666666667 263 672 353 672 c 0
 463.902141824 672 576 630.428790434 576 530 c 0
 576 457.348880406 510.439426961 422 433 422 c 0
 361.271431378 422 320 463.340863285 320 534 c 0
 320 565.075111651 332.025616537 588.025616537 348 604 c 1
 196.515210216 604 76 524.652009843 76 378 c 0
 76 314.203732439 95.0715875816 257.880852263 133 234 c 1
 133 400 l 1
 508 400 l 1
 508 370 l 1
 419 370 l 1
 419 220 l 1
 508 220 l 1
 508 185 l 1
 419 185 l 1
 419 137 l 2
 419 28.5631761101 318.232982096 -2 197 -2 c 0
 99.9526363174 -2 19 45.3373944287 19 137 c 0
54 137 m 0
 54 65.8404576505 121.916689096 33 198 33 c 0
 255.863483363 33 289 77.8349215911 289 137 c 2
 289 185 l 1
 121 185 l 2
 85.9775779956 185 54 170.242525197 54 137 c 0
168 220 m 1
 289 220 l 1
 289 370 l 1
 168 370 l 1
 168 220 l 1
355 535 m 0
 355 506.232592547 370.433404748 472 398 472 c 0
 427.771592797 472 446 504.212040858 446 535 c 0
 446 567.803505304 428.511293067 604 398 604 c 0
 369.844903662 604 355 565.626530783 355 535 c 0
EndSplineSet
LCarets2: 1 0
Ligature2: "'abvs' Above Base Substitutions in Tamil lookup 2 subtable" uni0B9A uni0BC0
EndChar

StartChar: uni0B9C_uni0BC0
Encoding: 358 -1 103
Width: 769
GlyphClass: 2
Flags: HW
LayerCount: 2
Back
Fore
SplineSet
8 -64 m 0
 8 27.9566734745 115.0896674 85 212 85 c 2
 494 85 l 2
 567.585536931 85 621 155.674518282 621 231 c 0
 621 289.837645744 598.440480702 373 548 373 c 0
 503.810575907 373 477 318.395690824 477 271 c 2
 477 138 l 1
 347 138 l 1
 347 259 l 2
 347 329.682014676 265.482048178 373 190 373 c 0
 119.722483741 373 52 325.373284531 52 257 c 0
 52 208.000662968 78.2411457407 158.423329751 121 154 c 1
 96.3197734923 162.710668179 82 194.650400774 82 229 c 0
 82 291.468996133 126.051317658 330 189 330 c 256
 253.047850854 330 296 289.135600426 296 225 c 0
 296 160.090321857 236.771307249 127 168 127 c 0
 81.8996068428 127 17 174.775656308 17 258 c 0
 17 348.670047659 113.947211781 408 209 408 c 0
 298.393092686 408 371.412874363 374.039709301 407 320 c 1
 425.911609952 367.279024881 476.411311162 400.414272953 537 407 c 1
 527 429.666666667 522 455.333333333 522 484 c 0
 522 588.366561171 610.400496308 674 715 674 c 0
 830.431345196 674 919 640.076028459 919 535 c 0
 919 465.565146799 864.305970878 426 793 426 c 256
 721.727325015 426 668 466.024546271 668 535 c 0
 668 567.823877389 679.782644871 595.907272906 699 610 c 1
 625.559976892 610 557 556.621395765 557 485 c 0
 557 455 562 429.333333333 572 408 c 1
 668.547071918 404.138117123 751 327.150236134 751 228 c 0
 751 93.7125568872 639.721752315 50 493 50 c 2
 237 50 l 2
 171.942283273 50 117 -0.14677983364 117 -64 c 0
 117 -122.117334188 152.148242035 -183 207 -183 c 0
 227 -183 250.333333333 -174.666666667 277 -158 c 0
 303.666666667 -142 331.666666667 -118.666666667 361 -88 c 0
 408.490226834 -39.4544347918 475.536821837 9 560 9 c 0
 655.594033498 9 751 -26.8882519784 751 -114 c 0
 751 -196.949381563 651.63633994 -228 558 -228 c 0
 503.25076752 -228 458.545460935 -209.79752734 431 -181 c 1
 446 -157 l 1
 472.450331527 -178.41217314 510.911925819 -193 558 -193 c 0
 596.341527922 -193 621 -153.129617637 621 -113 c 0
 621 -68.7876076033 592.081893329 -26 549 -26 c 0
 502.333333333 -26 444.666666667 -58 376 -122 c 256
 307.333333333 -186 249.666666667 -218 203 -218 c 0
 96.562297264 -218 8 -165.958409491 8 -64 c 0
117 229 m 0
 117 198.29233592 133.274958873 162 161 162 c 0
 191.013266702 162 210 193.587822355 210 225 c 0
 210 258.354444963 191.316329261 295 161 295 c 0
 132.820553765 295 117 258.971318847 117 229 c 0
703 538 m 256
 703 507.967317362 718.594346777 471 746 471 c 256
 773.394772988 471 789 508.006822356 789 538 c 0
 789 568.032682638 773.405653223 605 746 605 c 256
 718.605227012 605 703 567.993177644 703 538 c 256
EndSplineSet
Ligature2: "'abvs' Above Base Substitutions in Tamil lookup 2 subtable" uni0B9C uni0BC0
EndChar

StartChar: uni0B9E_uni0BC0
Encoding: 359 -1 104
Width: 1016
GlyphClass: 2
Flags: HW
LayerCount: 2
Back
Fore
SplineSet
24 126 m 0
 24 240.338035328 84.6023207929 330.602320793 149 395 c 1
 169 373 l 1
 133.666666667 336.333333333 106.666666667 296.666666667 88 254 c 0
 68.6666666667 211.333333333 59 168.333333333 59 125 c 0
 59 24.3333333333 96.6666666667 -59 172 -125 c 0
 246.666666667 -191 341.333333333 -224 456 -224 c 0
 688.728200392 -224 868 -130.049344758 868 89 c 0
 868 145.261162297 832.665605843 202 779 202 c 0
 756.396217716 202 741 178.323828724 741 155 c 2
 741 0 l 1
 611 0 l 1
 611 370 l 1
 442 370 l 2
 376.666666667 370 320.666666667 352 274 316 c 0
 228 280 205 236.333333333 205 185 c 0
 205 123.521210297 227.727743711 71.8698607361 266 50 c 1
 251.83486737 65.4528719605 244 91.1334389096 244 120 c 0
 244 207.858369946 305.308532412 263 394 263 c 256
 480.437632111 263 544 213.791391955 544 130 c 0
 544 38.1817218283 461.385065823 -8 365 -8 c 0
 248.028581574 -8 170 67.2832260147 170 184 c 0
 170 246.666666667 196 298.333333333 248 339 c 0
 299.333333333 379.666666667 364.666666667 400 444 400 c 2
 632 400 l 1
 609.390867982 421.4191777 593 454.47684245 593 496 c 0
 593 545.333333333 612.333333333 587.333333333 651 622 c 0
 689 656.666666667 735.333333333 674 790 674 c 0
 898.483909568 674 999 629.691698752 999 530 c 0
 999 459.961122749 943.270175819 422 870 422 c 0
 797.419211372 422 742 463.004009301 742 534 c 0
 742 568.10505685 754.876827655 594.701462124 774 610 c 1
 703.110745238 610 628 565.537027697 628 498 c 0
 628 454.732937163 645.450981485 420.866665738 670 400 c 1
 837 400 l 1
 837 370 l 1
 741 370 l 1
 741 228 l 1
 771 244 798.666666667 252 824 252 c 0
 926.110354664 252 998 188.28850745 998 88 c 0
 998 -22 950.666666667 -107.333333333 856 -168 c 0
 760.666666667 -228.666666667 627.333333333 -259 456 -259 c 0
 331.333333333 -259 228 -222.666666667 146 -150 c 0
 64.6666666667 -77.3333333333 24 14.6666666667 24 126 c 0
279 117 m 0
 279 75.4876184379 305.762376963 32 346 32 c 256
 387.360903121 32 414 76.1376504441 414 119 c 0
 414 161.184827926 384.606940319 203 344 203 c 0
 304.039702149 203 279 159.188697535 279 117 c 0
777 536 m 0
 777 504.586153337 794.41063442 472 823 472 c 256
 852.051164806 472 869 504.288046918 869 535 c 0
 869 568.354444963 850.316329261 605 820 605 c 0
 791.844903662 605 777 566.626530783 777 536 c 0
EndSplineSet
Ligature2: "'abvs' Above Base Substitutions in Tamil lookup 2 subtable" uni0B9E uni0BC0
EndChar

StartChar: uni0B9F_uni0BC0
Encoding: 360 -1 105
Width: 802
GlyphClass: 2
Flags: HW
LayerCount: 2
Back
Fore
SplineSet
45 0 m 1
 45 400 l 1
 175 400 l 1
 175 30 l 1
 427 30 l 1
 370.135782061 58.4321089696 317 117.768591075 317 197 c 0
 317 251.666666667 339.333333333 298.333333333 384 337 c 256
 428.666666667 375.666666667 482.333333333 395 545 395 c 0
 644.120454638 395 729 347.329390242 729 253 c 0
 729 182.249444183 673.312771913 143 600 143 c 0
 527.456380118 143 472 182.704724864 472 253 c 0
 472 285.884737284 485.592612386 312.248699869 502 331 c 1
 427.271221301 323.994176997 352 272.251322687 352 195 c 0
 352 116.196331692 418.037440055 58.9474427317 478 30 c 1
 799 30 l 1
 799 0 l 1
 45 0 l 1
507 254 m 0
 507 225.910936209 523.249491646 193 550 193 c 0
 578.535680844 193 599 222.350160523 599 253 c 0
 599 286.354444963 580.316329261 323 550 323 c 0
 521.844903662 323 507 284.626530783 507 254 c 0
EndSplineSet
Ligature2: "'abvs' Above Base Substitutions in Tamil lookup 2 subtable" uni0B9F uni0BC0
EndChar

StartChar: uni0BA3_uni0BC0
Encoding: 361 -1 106
Width: 1229
GlyphClass: 2
Flags: HW
LayerCount: 2
Back
Fore
SplineSet
20 173 m 0
 20 324.386282681 147.173412165 405 306 405 c 0
 360 405 406 401 444 393 c 0
 482 385.666666667 510 374.666666667 528 360 c 1
 559.97993489 386.057724725 605.910127203 405 660 405 c 0
 732.067710337 405 792.621189624 387.957087954 833 357 c 1
 872.333333333 385.666666667 914.666666667 400 960 400 c 2
 1020 400 l 1
 1000.08608349 424.59954393 984 456.185581559 984 498 c 0
 984 606.723512285 1065.72197263 672 1177 672 c 0
 1293.07096755 672 1388 640.579915491 1388 535 c 0
 1388 465.457781571 1331.12174927 427 1258 427 c 256
 1185.24367603 427 1129 466.120400987 1129 536 c 0
 1129 568.32917372 1144.277054 594.787606382 1163 610 c 1
 1090.59407986 610 1019 561.935146867 1019 492 c 0
 1019 453.675699973 1034.44242719 421.858463736 1054 400 c 1
 1226 400 l 1
 1226 370 l 1
 1144 370 l 1
 1144 0 l 1
 1014 0 l 1
 1014 370 l 1
 963 370 l 2
 926.333333333 370 894.666666667 360 868 340 c 1
 900.666666667 310 925.666666667 277.333333333 943 242 c 0
 961 206.666666667 970 171.666666667 970 137 c 0
 970 58.4233895744 909.650863162 -11 831 -11 c 0
 752.908779867 -11 693 57.8904816538 693 137 c 0
 693 210.849532875 728.030133363 270.617651886 767 315 c 1
 740.25974328 343.968611446 703.395319703 370 653 370 c 0
 616.71867335 370 586.684043413 353.363273238 564 335 c 1
 616.248784439 289.149025901 667 223.114966679 667 137 c 0
 667 57.3062757762 603.590024698 -11 524 -11 c 256
 444.41495954 -11 381 57.3098336752 381 137 c 0
 381 211.261324883 411.226000975 272.051031307 450 312 c 1
 411.612591639 345.588982317 354.618875541 370 286 370 c 0
 222 370 167.666666667 351 123 313 c 0
 77.6666666667 275 55 229 55 175 c 0
 55 113.930946 77.8320248451 54.8282575567 121 39 c 1
 104.872384864 56.3682009148 95 85.5466133069 95 118 c 0
 95 199.830682702 148.483490342 254 230 254 c 0
 304.041410685 254 366 194.091498188 366 120 c 0
 366 31.6611959859 282.730109777 -11 189 -11 c 0
 93.2131107591 -11 20 75.2844492162 20 173 c 0
130 117 m 256
 130 83.5795235357 148.008182123 44 180 44 c 0
 213.834878832 44 236 81.2686054016 236 118 c 0
 236 153.361536841 213.441262257 189 180 189 c 0
 148.426729356 189 130 150.451592793 130 117 c 256
416 137 m 0
 416 94.9253162186 437.17184 44 476 44 c 256
 515.127236825 44 537 94.2921647411 537 137 c 0
 537 201.395406251 509.722043567 254.115127343 476 289 c 1
 442.495836139 253.185204148 416 200.479320871 416 137 c 0
728 137 m 0
 728 95.0488210897 747.932877399 44 786 44 c 0
 821.928120503 44 840 96.6579990845 840 137 c 0
 840 200.720997338 816.845018042 253.938499808 784 288 c 1
 750.60309772 254.60309772 728 201.164503601 728 137 c 0
1164 536 m 0
 1164 503.651509987 1178.96762612 477 1209 477 c 0
 1240.30783298 477 1258 502.19509613 1258 535 c 0
 1258 572.056515966 1242.88031319 605 1209 605 c 0
 1177.53818826 605 1164 570.876694736 1164 536 c 0
EndSplineSet
Ligature2: "'abvs' Above Base Substitutions in Tamil lookup 2 subtable" uni0BA3 uni0BC0
EndChar

StartChar: uni0BA4_uni0BC0
Encoding: 362 -1 107
Width: 639
GlyphClass: 2
Flags: HW
LayerCount: 2
Back
Fore
SplineSet
-6 -169 m 0
 -6 -107.830203651 52.6023017447 -63 116 -63 c 2
 342 -63 l 2
 425.348691687 -63 493 4.65360054314 493 88 c 0
 493 128.780445568 475.562138768 185 439 185 c 2
 414 185 l 1
 414 131 l 2
 414 87 394.333333333 54 355 32 c 0
 316.333333333 9.33333333333 258.666666667 -2 182 -2 c 0
 97.5707902813 -2 14 53.2355742672 14 134 c 0
 14 183.239414222 61.8205440104 217.601002147 111 220 c 1
 77.5313156526 258.249924968 53 314.167211302 53 382 c 0
 53 463.333333333 84 533 146 591 c 0
 207.333333333 648.333333333 281.666666667 677 369 677 c 0
 487.377194377 677 592 637.575536792 592 530 c 0
 592 460.425359167 536.483537922 422 464 422 c 256
 390.912775985 422 337 464.31396622 337 535 c 0
 337 564.44913787 349.436175345 586.212771821 365 604 c 1
 211.458766299 604 88 525.022438739 88 378 c 0
 88 317.236065652 105.245389358 265.675693911 134 233 c 1
 134 400 l 1
 523 400 l 1
 523 370 l 1
 414 370 l 1
 414 220 l 1
 485 220 l 2
 559.423054698 220 623 159.983395186 623 85 c 0
 623 -40.6600073036 498.430320536 -98 363 -98 c 2
 112 -98 l 2
 75.6646739852 -98 29 -114.1478085 29 -147 c 1
 37.1329488886 -140.028900953 47.135603539 -135 61 -135 c 0
 89.767407453 -135 124 -150.433404748 124 -178 c 256
 124 -206.10139717 86.5999632748 -222 56 -222 c 0
 24.4393353148 -222 -6 -199.898704008 -6 -169 c 0
49 135 m 0
 49 67.4527019034 110.883953125 33 183 33 c 0
 238.938943017 33 284 82.253429903 284 138 c 2
 284 185 l 1
 116 185 l 2
 83.8266117193 185 49 165.382807605 49 135 c 0
169 220 m 1
 284 220 l 1
 284 370 l 1
 169 370 l 1
 169 220 l 1
372 535 m 0
 372 504.4798817 386.630107264 467 414 467 c 0
 444.07869396 467 462 502.966138139 462 535 c 0
 462 567.803505304 444.511293067 604 414 604 c 0
 386.278508057 604 372 566.197087107 372 535 c 0
EndSplineSet
LCarets2: 1 0
Ligature2: "'abvs' Above Base Substitutions in Tamil lookup 2 subtable" uni0BA4 uni0BC0
EndChar

StartChar: uni0BA8_uni0BC0
Encoding: 363 -1 108
Width: 616
GlyphClass: 2
Flags: HW
LayerCount: 2
Back
Fore
SplineSet
7 -169 m 0
 7 -107.34834907 66.5526029438 -63 130 -63 c 2
 301 -63 l 2
 412.151326917 -63 468 -5.76496171956 468 105 c 0
 468 156.333533858 440.610496291 217 393 217 c 0
 371.638787411 217 346 204.547026515 346 184 c 2
 346 0 l 1
 216 0 l 1
 216 370 l 1
 80 370 l 1
 80 0 l 1
 45 0 l 1
 45 400 l 1
 240 400 l 1
 224 424 216 453.666666667 216 489 c 0
 216 592.929266119 306.051509344 674 411 674 c 0
 530.370947237 674 607 640.985950824 607 530 c 0
 607 460.565146799 552.305970878 421 481 421 c 0
 414.536740966 421 356 470.657549711 356 535 c 0
 356 567.278056496 367.824596611 595.719325908 386 610 c 1
 315.37587654 610 251 557.344113801 251 488 c 0
 251 449.526522573 263.245567624 418.437470216 283 400 c 1
 509 400 l 1
 509 370 l 1
 346 370 l 1
 346 235 l 1
 377.333333333 253 409.333333333 262 442 262 c 0
 528.384511984 262 598 189.525399277 598 104 c 0
 598 -43.2460601672 458.814042826 -98 298 -98 c 2
 126 -98 l 2
 89.8470142753 -98 56.0943104646 -115.041620234 49 -142 c 1
 76 -142 l 2
 92.6666666667 -142 107 -139.333333333 119 -148 c 0
 131 -157.333333333 137 -168.333333333 137 -181 c 0
 137 -207.232103227 98.6498189594 -220 69 -220 c 0
 37.4894679075 -220 7 -199.187378902 7 -169 c 0
391 538 m 256
 391 507.967317362 406.594346777 471 434 471 c 256
 461.394772988 471 477 508.006822356 477 538 c 0
 477 568.032682638 461.405653223 605 434 605 c 256
 406.605227012 605 391 567.993177644 391 538 c 256
EndSplineSet
LCarets2: 1 0
Ligature2: "'abvs' Above Base Substitutions in Tamil lookup 2 subtable" uni0BA8 uni0BC0
EndChar

StartChar: uni0BA9_uni0BC0
Encoding: 364 -1 109
Width: 926
GlyphClass: 2
Flags: HW
LayerCount: 2
Back
Fore
SplineSet
21 170 m 0
 21 324.338134393 142.190578451 412 302 412 c 0
 397.358896906 412 484.977788465 397.01698529 536 358 c 1
 559.521816156 385.67272489 607.088096369 400 660 400 c 2
 737 400 l 1
 719.666666667 430 711 459.666666667 711 489 c 0
 711 591.589262512 806.373900675 669 911 669 c 0
 1014.81915863 669 1111 625.528567633 1111 530 c 0
 1111 456.256317089 1057.84000957 412 983 412 c 256
 907.575190599 412 855 459.745854304 855 535 c 0
 855 567.57835936 866.757371245 597.854422747 887 610 c 1
 816.315561989 610 751 557.84017263 751 488 c 256
 751 454 759.333333333 424.666666667 776 400 c 1
 922 400 l 1
 922 367 l 1
 840 367 l 1
 840 0 l 1
 710 0 l 1
 710 367 l 1
 659 367 l 2
 622.343565654 367 590.599960658 355.953803784 573 337 c 1
 623.183807547 295.180160378 661 224.674914193 661 137 c 0
 661 53.091197931 607.052274769 -5 523 -5 c 256
 438.944111562 -5 385 53.0970442454 385 137 c 0
 385 214.934690374 411.239359269 280.45943936 453 317 c 1
 411.604865857 350.346080282 358.062674747 377 289 377 c 0
 155.513170271 377 56 301.410469567 56 172 c 0
 56 109.010159177 84.3309109217 49.1421482056 131 35 c 1
 107.909293718 50.8748605685 96 86.4726057227 96 127 c 0
 96 205.41156114 152.166449347 254 231 254 c 0
 311.749861691 254 367 204.909770919 367 125 c 256
 367 40.716413297 295.252118648 -5 207 -5 c 0
 98.1575297302 -5 21 62.5629606154 21 170 c 0
131 122 m 0
 131 86.7591256647 148.011409739 42 181 42 c 0
 215.767872232 42 237 82.6702333709 237 120 c 0
 237 158.102964156 216.218858573 199 181 199 c 0
 149.174571674 199 131 156.648724773 131 122 c 0
420 137 m 0
 420 97.5193320137 437.522261821 42 473 42 c 0
 510.958652606 42 531 95.2794969876 531 137 c 0
 531 202.997136187 509.466567504 259.045319552 473 289 c 1
 437.354517639 261.909433406 420 202.25932194 420 137 c 0
890 536 m 256
 890 505.419997212 905.29231844 466 933 466 c 0
 963.493251607 466 981 502.224250561 981 535 c 0
 981 567.705612062 963.034296235 605 933 605 c 0
 904.844903662 605 890 566.626530783 890 536 c 256
EndSplineSet
Ligature2: "'abvs' Above Base Substitutions in Tamil lookup 2 subtable" uni0BA9 uni0BC0
EndChar

StartChar: uni0BAA_uni0BC0
Encoding: 365 -1 110
Width: 692
GlyphClass: 2
Flags: HW
LayerCount: 2
Back
Fore
SplineSet
45 0 m 1
 45 400 l 1
 175 400 l 1
 175 30 l 1
 517 30 l 1
 517 307 l 1
 443.490137964 307 396 386.49386492 396 464 c 0
 396 522.666666667 417.333333333 573 460 615 c 0
 502.666666667 656.333333333 554 677 614 677 c 0
 721.597096112 677 827 637.297654685 827 540 c 0
 827 468.843154131 772.131066684 427 699 427 c 256
 626.419211372 427 571 468.004009301 571 539 c 0
 571 569.846210089 585.523070179 595.987494521 604 611 c 1
 513.937648286 611 431 547.331714777 431 460 c 0
 431 401.816299031 463.011592649 338 517 338 c 1
 517 400 l 1
 647 400 l 1
 647 0 l 1
 45 0 l 1
606 538 m 0
 606 507.518327089 620.920236312 467 649 467 c 0
 679.42585798 467 697 505.381124703 697 538 c 0
 697 569.413596702 679.158561197 604 649 604 c 0
 621.136801324 604 606 567.28662682 606 538 c 0
EndSplineSet
Ligature2: "'abvs' Above Base Substitutions in Tamil lookup 2 subtable" uni0BAA uni0BC0
EndChar

StartChar: uni0BAE_uni0BC0
Encoding: 366 -1 111
Width: 658
GlyphClass: 2
Flags: HW
LayerCount: 2
Back
Fore
SplineSet
45 0 m 1
 45 400 l 1
 175 400 l 1
 175 30 l 1
 319 30 l 1
 319 272 l 2
 319 342.107629271 382.101521451 391.543885329 446 402 c 1
 429.312919266 425.105188708 419 458.49399401 419 498 c 0
 419 612.364584094 502.990512636 682 620 682 c 0
 736.772754525 682 820 643.332207121 820 535 c 0
 820 467.420934348 762.655849294 432 692 432 c 256
 620.714269167 432 564 468.198451531 564 536 c 0
 564 568.008198973 573.402872009 596.463747699 591 610 c 1
 521.394494891 610 454 564.011514563 454 497 c 0
 454 456.018191427 466.312103045 422.671336144 485 399 c 1
 579.532115942 399 634 280.124283409 634 178 c 0
 634 89.9286292622 601.455120056 0 522 0 c 2
 45 0 l 1
449 30 m 1
 512 30 l 2
 575.189888159 30 599 108.568096584 599 180 c 0
 599 270.854467235 569.904840073 371 490 371 c 0
 459.891919966 371 449 311.311630247 449 275 c 2
 449 30 l 1
599 536 m 256
 599 502.447999187 611.199270713 467 642 467 c 0
 674.752399458 467 690 499.323831968 690 535 c 0
 690 571.411114802 675.57539044 605 642 605 c 0
 611.208123595 605 599 569.514828836 599 536 c 256
EndSplineSet
Ligature2: "'abvs' Above Base Substitutions in Tamil lookup 2 subtable" uni0BAE uni0BC0
EndChar

StartChar: uni0BAF_uni0BC0
Encoding: 367 -1 112
Width: 712
GlyphClass: 2
Flags: HW
LayerCount: 2
Back
Fore
SplineSet
40 119 m 2
 40 400 l 1
 170 400 l 1
 170 69 l 257
 175.333333333 57 190 51 198 51 c 0
 206.666666667 51 223 57 229 69 c 257
 229 400 l 1
 359 400 l 1
 359 30 l 1
 537 30 l 1
 537 307 l 1
 463.4423099 307 416 385.144275904 416 462 c 0
 416 520 437 569.333333333 479 610 c 0
 521.666666667 651.333333333 572.666666667 672 632 672 c 0
 744.756968449 672 847 636.316123952 847 535 c 0
 847 463.365526352 791.929529172 422 718 422 c 0
 645.419211372 422 590 463.004009301 590 534 c 0
 590 567.806899377 604.950622566 594.331794746 624 611 c 1
 533.937648286 611 451 547.331714777 451 460 c 0
 451 401.816299031 483.011592649 338 537 338 c 1
 537 400 l 1
 667 400 l 1
 667 0 l 1
 247 0 l 1
 247 66 l 1
 235.248130304 26.0436430371 198.910305398 -10 150 -10 c 0
 85.706381145 -10 40 52.9653503125 40 119 c 2
625 535 m 0
 625 506.232592547 640.433404748 472 668 472 c 0
 698.013266702 472 717 503.587822355 717 535 c 0
 717 568.451850809 698.796590987 604 668 604 c 0
 639.844903662 604 625 565.626530783 625 535 c 0
EndSplineSet
Ligature2: "'abvs' Above Base Substitutions in Tamil lookup 2 subtable" uni0BAF uni0BC0
EndChar

StartChar: uni0BB0_uni0BC0
Encoding: 368 -1 113
Width: 454
GlyphClass: 2
Flags: HW
LayerCount: 2
Back
Fore
SplineSet
38 -142 m 1
 224 0 l 1
 224 370 l 1
 80 370 l 1
 80 0 l 1
 45 0 l 1
 45 400 l 1
 241 400 l 1
 219.666666667 427.333333333 209 458.666666667 209 494 c 0
 209 546.666666667 229.666666667 591.333333333 271 628 c 0
 311.666666667 665.333333333 361 684 419 684 c 0
 522.771424904 684 614 637.483852703 614 540 c 0
 614 476.584300146 550.441164709 431 485 431 c 0
 413.714269167 431 357 467.198451531 357 535 c 0
 357 568.106096209 370.194083728 596.796055818 390 610 c 1
 317.148842265 610 244 562.376085026 244 493 c 0
 244 452.54636535 258.606799251 420.134777177 280 400 c 1
 451 400 l 1
 451 370 l 1
 354 370 l 1
 354 14 l 1
 57 -165 l 1
 38 -142 l 1
392 536 m 0
 392 506.601047494 407.515378582 471 435 471 c 0
 464.41721601 471 484 502.926810026 484 535 c 0
 484 568.354444963 465.316329261 605 435 605 c 0
 406.844903662 605 392 566.626530783 392 536 c 0
EndSplineSet
Ligature2: "'abvs' Above Base Substitutions in Tamil lookup 2 subtable" uni0BB0 uni0BC0
EndChar

StartChar: uni0BB1_uni0BC0
Encoding: 369 -1 114
Width: 645
GlyphClass: 2
Flags: HW
LayerCount: 2
Back
Fore
SplineSet
9 -169 m 0
 9 -108.787403904 65.100590515 -63 127 -63 c 2
 337 -63 l 2
 379.666666667 -63 416.333333333 -40 447 6 c 0
 477 52 492 107.333333333 492 172 c 0
 492 228 483.666666667 275.666666667 467 315 c 256
 450.333333333 354.333333333 430.333333333 374 407 374 c 0
 367.588203776 374 338 340.227609357 338 301 c 2
 338 0 l 1
 208 0 l 1
 208 305 l 2
 208 343.380091009 177.379082427 374 139 374 c 0
 103.455213212 374 76 341.125126689 76 304 c 2
 76 0 l 1
 41 0 l 1
 41 307 l 2
 41 365.526869948 96.9247390355 409 157 409 c 256
 221.789975729 409 274.557344198 377.106639507 293 331 c 1
 308.399527651 367.721950552 340.717206585 401.095627544 385 407 c 1
 374.333333333 427 369 453.333333333 369 486 c 0
 369 589.690750348 457.403318532 674 562 674 c 0
 676.086611195 674 762 639.369450574 762 535 c 0
 762 463.924383714 710.169050121 421 638 421 c 256
 565.901226787 421 515 464.414521867 515 535 c 0
 515 568.821788333 523.435476926 600.362897438 541 615 c 1
 467.231953124 615 404 557.985451656 404 485 c 0
 404 453 408.333333333 427.666666667 417 409 c 1
 473.666666667 408.333333333 522 384.666666667 562 338 c 0
 602 292 622 236.666666667 622 172 c 0
 622 97.3333333333 594.666666667 33.6666666667 540 -19 c 0
 484.666666667 -71.6666666667 418.333333333 -98 341 -98 c 2
 128 -98 l 2
 89.5955553468 -98 52.4965825957 -113.512986135 45 -142 c 1
 73 -142 l 2
 87 -142 99 -139.333333333 109 -148 c 0
 119 -157.333333333 124 -168.333333333 124 -181 c 0
 124 -204.628212726 96.9838076274 -220 71 -220 c 0
 39.4894679075 -220 9 -199.187378902 9 -169 c 0
550 536 m 0
 550 508.606637925 564.690073892 476 590 476 c 256
 616.351872134 476 632 507.008491653 632 535 c 0
 632 566.15807797 617.294985279 605 590 605 c 256
 562.99146935 605 550 565.768727908 550 536 c 0
EndSplineSet
Ligature2: "'abvs' Above Base Substitutions in Tamil lookup 2 subtable" uni0BB1 uni0BC0
EndChar

StartChar: uni0BB2_uni0BC0
Encoding: 370 -1 115
Width: 746
GlyphClass: 2
Flags: HW
LayerCount: 2
Back
Fore
SplineSet
19 180 m 0
 19 240.666666667 43 292.666666667 91 336 c 0
 139 378.666666667 196.666666667 400 264 400 c 0
 389.223920624 400 522 358.208199718 522 246 c 2
 522 117 l 2
 522 76.1285990588 549.716399688 36 589 36 c 0
 658.468086525 36 683 125.482129005 683 204 c 0
 683 246.675977884 663.35794946 281.141753372 643 309 c 1
 600.333333333 309 554.666666667 324 524 354 c 0
 494 384 479 420 479 462 c 0
 479 522.666666667 500.666666667 574.666666667 544 618 c 0
 588 660.666666667 640.666666667 682 702 682 c 0
 811.224846912 682 911 636.367719675 911 535 c 0
 911 460.764176059 857.650952412 417 782 417 c 0
 707.701606625 417 654 461.11070995 654 534 c 0
 654 567.491742912 667.539082115 595.188004218 687 611 c 1
 596.937648286 611 514 547.331714777 514 460 c 0
 514 393.849318542 559.664279899 333 624 333 c 1
 596 360 l 2
 588.587730298 367.412269702 583 377.700539126 583 392 c 0
 583 410.24548218 603.215771889 422 622 422 c 0
 648.666666667 422 671.333333333 400.666666667 690 358 c 256
 708.666666667 315.333333333 718 264 718 204 c 0
 718 78.6128761902 670.526245509 -4 552 -4 c 0
 466.369241537 -4 392 34.0920065568 392 114 c 2
 392 247 l 2
 392 322.196433563 337.69726837 369 261 369 c 0
 203.666666667 369 155 350.666666667 115 314 c 0
 74.3333333333 277.333333333 54 233.333333333 54 182 c 0
 54 118.672111664 83.8115484002 69.7174213628 123 44 c 1
 104.890973048 62.1090269522 92 88.9620576089 92 123 c 0
 92 203.470335938 145.125064876 258 226 258 c 256
 307.389388367 258 360 201.958208314 360 120 c 0
 360 39.1246649966 289.503453579 -4 204 -4 c 0
 102.673181123 -4 19 78.9703616916 19 180 c 0
127 114 m 0
 127 77.6646739852 143.1478085 31 176 31 c 0
 210.698544055 31 230 76.7498349424 230 114 c 0
 230 152.003077719 210.252957557 198 176 198 c 0
 143.625158397 198 127 151.022915722 127 114 c 0
689 535 m 0
 689 506.232592547 704.433404748 472 732 472 c 0
 762.013266702 472 781 503.587822355 781 535 c 0
 781 568.451850809 762.796590987 604 732 604 c 0
 703.844903662 604 689 565.626530783 689 535 c 0
EndSplineSet
Ligature2: "'abvs' Above Base Substitutions in Tamil lookup 2 subtable" uni0BB2 uni0BC0
EndChar

StartChar: uni0BB3_uni0BC0
Encoding: 371 -1 116
Width: 937
GlyphClass: 2
Flags: HW
LayerCount: 2
Back
Fore
SplineSet
19 193 m 0
 19 251 43 300.333333333 91 341 c 256
 139 381.666666667 196.666666667 402 264 402 c 0
 357.54532598 402 431.099398357 362.656290896 475 309 c 1
 475 400 l 1
 729 400 l 1
 711.225215395 422.853294493 700 453.935530061 700 494 c 0
 700 602.407064952 779.619631811 669 890 669 c 0
 993.001135404 669 1095 629.295946438 1095 535 c 0
 1095 461.426309599 1041.30721153 416 967 416 c 256
 892.679614725 416 839 461.424045198 839 535 c 0
 839 567.883578657 853.477546299 595.358159725 873 610 c 1
 802.128577744 610 735 561.552123877 735 493 c 0
 735 455.054369722 749.253182956 422.26184524 768 400 c 1
 933 400 l 1
 933 367 l 1
 844 367 l 1
 844 0 l 1
 714 0 l 1
 714 367 l 1
 582 367 l 1
 582 0 l 1
 452 0 l 1
 452 218 l 1
 425.282385446 292.586673965 357.209510392 367 264 367 c 0
 206 367 156.666666667 350.333333333 116 317 c 0
 74.6666666667 283 54 242.333333333 54 195 c 0
 54 124.727056599 83.387534772 57.8708217427 134 41 c 1
 116.672858166 59.6599988978 107 91.1799315821 107 127 c 0
 107 207.838702701 161.176504566 260 243 260 c 256
 325.354038676 260 379 205.019622154 379 122 c 0
 379 38.1478711249 295.318522678 -1 205 -1 c 0
 101.465536026 -1 19 88.3130092677 19 193 c 0
142 118 m 0
 142 80.8006005777 159.833761658 34 193 34 c 0
 228.883883349 34 249 79.7568644602 249 119 c 0
 249 155.702981916 227.848595855 195 193 195 c 0
 160.867413062 195 142 153.324513402 142 118 c 0
874 536 m 256
 874 504.049087501 889.997401588 466 919 466 c 256
 948.753691327 466 965 502.319719421 965 535 c 0
 965 567.621203801 948.312088362 605 919 605 c 256
 889.552417555 605 874 568.006155245 874 536 c 256
EndSplineSet
Ligature2: "'abvs' Above Base Substitutions in Tamil lookup 2 subtable" uni0BB3 uni0BC0
EndChar

StartChar: uni0BB4_uni0BC0
Encoding: 372 -1 117
Width: 667
GlyphClass: 2
Flags: HW
LayerCount: 2
Back
Fore
SplineSet
24 -173 m 0
 24 -107.830904539 90.8763021144 -63 159 -63 c 0
 203.089174298 -63 252 -85.5932876885 252 -126 c 0
 252 -157.488961891 219.758642207 -178 187 -178 c 256
 154.2242451 -178 122 -157.497658849 122 -126 c 0
 119.327616897 -113.974276034 123.642046438 -102.905302375 131 -98 c 1
 90.2781394619 -98 59 -133.465542284 59 -174 c 0
 59 -221.253251308 127.820988213 -245 180 -245 c 0
 227.102118111 -245 266 -206.806202744 266 -160 c 0
 266 -106.984361789 308.554133209 -63 362 -63 c 1
 335.563169699 -58.8257636367 319 -30.2651387044 319 0 c 1
 45 0 l 1
 45 400 l 1
 175 400 l 1
 175 30 l 1
 319 30 l 1
 319 267 l 2
 319 336.246404835 377.979057062 386.183937448 439 400 c 1
 426.333333333 422.666666667 420 451.333333333 420 486 c 0
 420 588.446713381 510.968946531 669 614 669 c 0
 723.010021635 669 817 630.879912696 817 530 c 0
 817 458.432888793 764.978818913 416 692 416 c 256
 618.420301271 416 567 461.906052179 567 535 c 0
 567 567.278056496 578.824596611 595.719325908 597 610 c 1
 523.559976892 610 455 556.621395765 455 485 c 0
 455 456.333333333 460.333333333 431.666666667 471 411 c 1
 482 411 l 2
 526.666666667 411 564.666666667 389.666666667 596 347 c 256
 627.333333333 304.333333333 643 253 643 193 c 0
 643 96.2259980513 607.607803396 0 521 0 c 2
 448 0 l 1
 448 -27.961416282 461.523886689 -63 488 -63 c 2
 586 -63 l 1
 586 -98 l 1
 488 -98 l 2
 438.296382915 -98 396 -136.205755751 396 -185 c 0
 396 -211 375 -233.333333333 333 -252 c 256
 291 -270.666666667 240.333333333 -280 181 -280 c 0
 100.215400116 -280 24 -247.628109103 24 -173 c 0
449 30 m 1
 522 30 l 2
 581.977401742 30 608 127.203700506 608 195 c 0
 608 272.010198993 570.969771847 370 500 370 c 0
 464.78350164 370 449 311.401798786 449 271 c 2
 449 30 l 1
602 536 m 0
 602 507.411382026 615.612631006 471 642 471 c 0
 670.302092121 471 687 504.251146132 687 535 c 0
 687 566.950912499 671.002598412 605 642 605 c 0
 614.99146935 605 602 565.768727908 602 536 c 0
EndSplineSet
Ligature2: "'abvs' Above Base Substitutions in Tamil lookup 2 subtable" uni0BB4 uni0BC0
EndChar

StartChar: uni0BB5_uni0BC0
Encoding: 373 -1 118
Width: 819
GlyphClass: 2
Flags: HW
LayerCount: 2
Back
Fore
SplineSet
21 182 m 0
 21 332.970159971 135.075501454 421 290 421 c 0
 440.776199824 421 560 342.128995621 560 198 c 0
 560 124.669579905 537.017017433 59.8185285007 495 30 c 1
 644 30 l 1
 644 307 l 1
 570.448175392 312.551081103 518 385.652239175 518 467 c 0
 518 522.333333333 539.333333333 569.333333333 582 608 c 0
 624.666666667 647.333333333 676.333333333 667 737 667 c 0
 845.226412532 667 952 627.216295162 952 530 c 0
 952 455.764176059 898.650952412 412 823 412 c 0
 747.04797193 412 695 459.287509415 695 534 c 0
 695 567.806899377 709.950622566 594.331794746 729 611 c 1
 640.047395211 611 553 550.159592978 553 465 c 0
 553 402.627936782 588.626817253 342.371567059 644 338 c 1
 644 400 l 1
 774 400 l 1
 774 0 l 1
 343 0 l 1
 343 27 l 1
 395.269554713 51.8280384883 430 119.441619893 430 196 c 0
 430 296.121368558 343.170882799 376 243 376 c 256
 139.625125489 376 56 286.146271905 56 182 c 0
 56 118.993207667 82.537814114 69.6414572572 121 44 c 1
 105.067241663 62.3839519271 95 90.7922669525 95 123 c 0
 95 203.470335938 148.125064876 258 229 258 c 256
 310.397014449 258 363 203.298373906 363 122 c 0
 363 39.5069023473 284.608821543 1 197 1 c 0
 89.2046311766 1 21 74.039175504 21 182 c 0
130 120 m 0
 130 82.9250204651 146.59574056 36 179 36 c 0
 213.698544055 36 233 81.7498349424 233 119 c 0
 233 155.797734333 213.001497623 198 179 198 c 0
 147.222068702 198 130 155.146960533 130 120 c 0
730 535 m 0
 730 505.051862277 745.209945759 467 773 467 c 0
 803.346675355 467 822 502.319228417 822 535 c 0
 822 568.451850809 803.796590987 604 773 604 c 0
 744.844903662 604 730 565.626530783 730 535 c 0
EndSplineSet
Ligature2: "'abvs' Above Base Substitutions in Tamil lookup 2 subtable" uni0BB5 uni0BC0
EndChar

StartChar: uni0BB7_uni0BC0
Encoding: 374 -1 119
Width: 1060
GlyphClass: 2
Flags: HW
LayerCount: 2
Back
Fore
SplineSet
20 185 m 0
 20 332.530893098 139.931062371 414 292 414 c 256
 441.553006537 414 564 338.436611036 564 195 c 0
 564 121.089510913 534.032569764 61.6415954146 491 30 c 1
 707 30 l 1
 707 164 l 1
 637.650910095 164 574 213.870178195 574 281 c 0
 574 341.707426278 620.643087471 389.415314531 675 397 c 1
 661.666666667 420.333333333 655 449.333333333 655 484 c 0
 655 586.899042155 743.952221207 669 848 669 c 0
 951.070809014 669 1052 628.911594338 1052 535 c 0
 1052 462.969705784 997.698968661 421 924 421 c 256
 850.284910229 421 796 462.959548651 796 535 c 0
 796 566.920250041 808.430836676 594.94071715 826 610 c 1
 754.725076512 610 690 555.676118222 690 485 c 0
 690 451 696.666666667 422.333333333 710 399 c 1
 769.239783361 395.646804715 837 361.475661975 837 304 c 2
 837 193 l 1
 859 193 881.333333333 203 904 223 c 0
 927.333333333 243 947.666666667 270 965 304 c 1
 1026 304 l 1
 1026 0 l 1
 837 0 l 1
 837 -242 l 1
 707 -242 l 1
 707 0 l 1
 347 0 l 1
 347 27 l 1
 397.676396701 54.8720181853 434 118.197040892 434 196 c 0
 434 303.715050547 354.35938504 369 244 369 c 256
 130.436139282 369 55 294.888884964 55 182 c 0
 55 120.506092943 85.4205099986 69.1869481827 125 44 c 1
 109.674685805 61.6830548403 99 87.5347551745 99 118 c 0
 99 195.226051609 154.270875977 243 233 243 c 256
 310.626589531 243 367 197.537982273 367 122 c 0
 367 37.0639785873 294.883309008 -9 206 -9 c 0
 102.465536026 -9 20 80.3130092677 20 185 c 0
134 120 m 0
 134 85.3100957536 151.915478067 46 183 46 c 0
 216.281905929 46 237 84.2010663559 237 119 c 0
 237 154.503100257 215.808113796 193 183 193 c 0
 151.470888817 193 134 153.956006132 134 120 c 0
609 281 m 0
 609 230.538330708 655.090569466 192 707 192 c 1
 707 302 l 2
 707 328.230177841 689.616064842 354 664 354 c 0
 629.80859105 354 609 316.435596163 609 281 c 0
831 536 m 0
 831 506.601047494 846.515378582 471 874 471 c 0
 903.278419484 471 922 503.544740217 922 535 c 0
 922 567.705612062 904.034296235 605 874 605 c 0
 845.844903662 605 831 566.626530783 831 536 c 0
837 30 m 1
 896 30 l 1
 896 179 l 1
 882.661143236 169.662800265 860.259102699 164 837 164 c 1
 837 30 l 1
EndSplineSet
Ligature2: "'abvs' Above Base Substitutions in Tamil lookup 2 subtable" uni0BB7 uni0BC0
EndChar

StartChar: uni0BB8_uni0BC0
Encoding: 375 -1 120
Width: 1050
GlyphClass: 2
Flags: HW
LayerCount: 2
Back
Fore
SplineSet
21 188 m 0
 21 328.543942353 127.487387085 411 271 411 c 0
 379.611402359 411 482.683337531 374.220658439 518 305 c 1
 534.157873281 363.416926473 592.846234417 411 665 411 c 0
 754.847387854 411 833 343.8625327 833 256 c 2
 833 117 l 2
 833 81.5463153695 853.79099111 44 888 44 c 0
 959.13295643 44 988 124.151798895 988 204 c 0
 988 241.333333333 976.666666667 274.666666667 954 304 c 1
 948.666666667 303.333333333 943 303 937 303 c 0
 854.122873954 303 789 374.344935868 789 458 c 0
 789 516 810.333333333 565.333333333 853 606 c 256
 895.666666667 646.666666667 947 667 1007 667 c 0
 1119.13242653 667 1220 631.401508981 1220 530 c 0
 1220 458.843154131 1165.13106669 417 1092 417 c 256
 1017.70160662 417 964 461.11070995 964 534 c 0
 964 567.491742912 977.539082115 595.188004218 997 611 c 1
 906.937648286 611 824 547.331714777 824 460 c 0
 824 398.847654146 863.587092695 335.972972972 922.791818849 335.972972972 c 0
 923.525200879 335.972972972 924.261261263 335.981981981 925 336 c 2
 901 360 l 2
 896.100760408 364.899239592 893 372.273441027 893 382 c 0
 893 403.288189782 908.346674551 422 928 422 c 0
 954 422 976.333333333 400.666666667 995 358 c 256
 1013.66666667 315.333333333 1023 264 1023 204 c 0
 1023 87.3513235138 967.848759887 -11 858 -11 c 0
 772.457039208 -11 703 31.7038131339 703 114 c 2
 703 257 l 2
 703 307.800621609 680.41591269 376 635 376 c 0
 587.409194967 376 559 319.729494049 559 269 c 2
 559 0 l 1
 429 0 l 1
 429 235 l 2
 429 315.35089638 353.240257039 376 270 376 c 0
 148.322853812 376 56 308.388614041 56 190 c 0
 56 123.044135274 83.0306414607 57.9303618372 131 41 c 1
 113.640023267 60.8399734101 103 88.2510144749 103 124 c 0
 103 204.361376891 160.496582088 255 242 255 c 256
 324.594641724 255 381 203.354796451 381 122 c 0
 381 46.2504972982 309.971684661 -11 232 -11 c 0
 107.300239448 -11 21 65.7900707314 21 188 c 0
138 122 m 0
 138 85.9420977884 158.40932014 44 192 44 c 0
 227.207500949 44 251 81.5803428464 251 119 c 0
 251 156.395402139 227.803376684 195 192 195 c 0
 158.718094071 195 138 156.798933644 138 122 c 0
999 535 m 0
 999 505.051862277 1014.20994576 467 1042 467 c 0
 1072.07869396 467 1090 502.966138139 1090 535 c 0
 1090 567.803505304 1072.51129307 604 1042 604 c 0
 1013.84490366 604 999 565.626530783 999 535 c 0
EndSplineSet
Ligature2: "'abvs' Above Base Substitutions in Tamil lookup 2 subtable" uni0BB8 uni0BC0
EndChar

StartChar: uni0BB9_uni0BC0
Encoding: 376 -1 121
Width: 1230
GlyphClass: 2
Flags: HW
LayerCount: 2
Back
Fore
SplineSet
20 -164 m 0
 20 -105.66460409 77.8686336503 -63 138 -63 c 2
 906 -63 l 2
 952 -63 991.333333333 -40.3333333333 1024 5 c 256
 1056.66666667 50.3333333333 1073 105.333333333 1073 170 c 0
 1073 230.666666667 1065.33333333 279 1050 315 c 0
 1034 351.666666667 1013 370 987 370 c 0
 950.516150822 370 926 331.440763749 926 294 c 2
 926 0 l 1
 796 0 l 1
 796 295 l 2
 796 332.440584258 772.224445787 370 737 370 c 0
 703.646617322 370 684 328.730552631 684 294 c 2
 684 0 l 1
 343 0 l 1
 343 30 l 1
 392.141706219 57.0279384202 430 116.664950661 430 191 c 0
 430 301.109443901 352.844265986 370 242 370 c 256
 128.08144876 370 55 292.159043097 55 177 c 0
 55 117.625516421 83.0694637914 68.4713136825 121 44 c 1
 105.051962243 59.9480377569 95 89.477257034 95 122 c 0
 95 199.36163439 149.725863194 248 229 248 c 256
 308.286646789 248 363 199.371257743 363 122 c 0
 363 41.7133269924 292.470974841 0 207 0 c 0
 106.818052352 0 20 79.8807879021 20 180 c 0
 20 331.000060705 135.036630332 420 290 420 c 256
 442.617441403 420 560 336.814428158 560 190 c 0
 560 120.248825248 537.098626537 59.4056594606 497 30 c 1
 649 30 l 1
 649 292 l 2
 649 359.240040924 697.255171841 400 766 400 c 0
 822.391571679 400 871.320991789 372.368114052 886 331 c 1
 898.886006423 369.658019269 944.160170621 395.116017062 993 400 c 1
 980.333333333 422 974 450.333333333 974 485 c 0
 974 588.415366281 1063.86233158 670 1168 670 c 0
 1282.02388944 670 1372 638.02380103 1372 535 c 0
 1372 463.432888793 1319.97881891 421 1247 421 c 0
 1174.82019231 421 1123 463.917571869 1123 535 c 0
 1123 567.278056499 1134.82459661 595.719325905 1153 610 c 1
 1078.72232195 610 1009 557.592156418 1009 485 c 0
 1009 449 1014.66666667 420.666666667 1026 400 c 1
 1143.65939761 400 1203 295.898100841 1203 172 c 0
 1203 -20.5118440249 1103.31728142 -98 906 -98 c 2
 139 -98 l 2
 102.778408495 -98 55 -112.73864483 55 -144 c 1
 88 -144 l 2
 99.3333333333 -144 109.333333333 -139.333333333 118 -148 c 0
 126 -157.333333333 130 -168.333333333 130 -181 c 0
 130 -204.250754106 106.697294093 -220 82 -220 c 0
 48.70617822 -220 20 -196.089738317 20 -164 c 0
130 122 m 0
 130 87.4537252244 147.119720278 46 179 46 c 0
 212.638452697 46 233 86.6093557337 233 122 c 0
 233 154.845725971 210.977786188 188 179 188 c 0
 148.597852608 188 130 154.035773069 130 122 c 0
1158 536 m 0
 1158 506.838463647 1171.02746418 471 1197 471 c 0
 1225.30209212 471 1242 504.251146132 1242 535 c 0
 1242 566.950912499 1226.00259841 605 1197 605 c 0
 1170.41240631 605 1158 566.345466552 1158 536 c 0
EndSplineSet
LCarets2: 1 0
Ligature2: "'abvs' Above Base Substitutions in Tamil lookup 2 subtable" uni0BB9 uni0BC0
EndChar

StartChar: uni0B95_uni0BC1
Encoding: 377 -1 122
Width: 803
GlyphClass: 2
Flags: HW
LayerCount: 2
Back
Fore
SplineSet
23 96 m 0
 23 234.311475723 95.8138972987 347.942133404 194 392 c 1
 209 364 l 1
 120.867480857 324.404230529 58 222.200083774 58 97 c 0
 58 19 87.3333333333 -47.3333333333 146 -102 c 0
 204.666666667 -157.333333333 275.333333333 -185 358 -185 c 0
 521.288269724 -185 659 -107.053205437 659 48 c 0
 659 122.607260056 646.650095287 185 582 185 c 2
 553 185 l 1
 553 137 l 2
 553 91 532.333333333 56.3333333333 491 33 c 0
 449 9.66666666667 387.333333333 -2 306 -2 c 0
 226.041194756 -2 153 57.8842506537 153 137 c 0
 153 191.102073584 197.739772381 220 253 220 c 2
 278 220 l 1
 278 400 l 1
 661 400 l 1
 661 370 l 1
 553 370 l 1
 553 220 l 1
 581 220 l 2
 697.29187743 220 789 158.407049826 789 47 c 0
 789 -39.6666666667 754 -109.333333333 684 -162 c 0
 614.666666667 -214 522 -240 406 -240 c 0
 300 -240 209.666666667 -207.333333333 135 -142 c 0
 60.3333333333 -76 23 3.33333333333 23 96 c 0
188 137 m 0
 188 71.488405748 238.744357205 33 307 33 c 0
 368.241227143 33 423 77.4460831126 423 137 c 2
 423 185 l 1
 255 185 l 2
 219.977577996 185 188 170.242525197 188 137 c 0
313 220 m 1
 423 220 l 1
 423 370 l 1
 313 370 l 1
 313 220 l 1
EndSplineSet
LCarets2: 1 0
Ligature2: "'blws' Below Base Substitutions in Tamil lookup 3 subtable" uni0B95 uni0BC1
EndChar

StartChar: uni0B99_uni0BC1
Encoding: 378 -1 123
Width: 790
GlyphClass: 2
Flags: HW
LayerCount: 2
Back
Fore
SplineSet
45 0 m 1
 45 400 l 1
 509 400 l 1
 509 370 l 1
 348 370 l 1
 348 257 l 1
 376 275.666666667 407.333333333 285 442 285 c 0
 522.709022824 285 574 228.950351982 574 147 c 0
 574 89.8005415924 533.789062699 47.285156329 490 30 c 1
 615 30 l 1
 615 400 l 1
 745 400 l 1
 745 -231 l 1
 615 -231 l 1
 615 0 l 1
 218 0 l 1
 218 30 l 1
 384 30 l 1
 419.332035575 48.9278762004 444 93.4261450333 444 147 c 256
 444 189.753618046 422.153715003 240 383 240 c 0
 373.666666667 240 355.333333333 235.666666667 348 227 c 1
 348 110 l 1
 218 110 l 1
 218 370 l 1
 80 370 l 1
 80 0 l 1
 45 0 l 1
EndSplineSet
Ligature2: "'blws' Below Base Substitutions in Tamil lookup 3 subtable" uni0B99 uni0BC1
EndChar

StartChar: uni0B9A_uni0BC1
Encoding: 379 -1 124
Width: 700
GlyphClass: 2
Flags: HW
LayerCount: 2
Back
Fore
SplineSet
14 137 m 0
 14 191.102073584 58.7397723807 220 114 220 c 2
 129 220 l 1
 129 400 l 1
 564 400 l 1
 564 370 l 1
 414 370 l 1
 414 220 l 1
 696 220 l 1
 696 185 l 1
 600 185 l 1
 600 0 l 1
 470 0 l 1
 470 185 l 1
 414 185 l 1
 414 137 l 2
 414 28.9251107892 313.49668482 -2 193 -2 c 0
 95.9594122207 -2 14 44.8960913682 14 137 c 0
49 137 m 0
 49 66.3187709098 117.247720289 33 194 33 c 0
 251.687653541 33 284 78.4137858266 284 137 c 2
 284 185 l 1
 117 185 l 2
 81.297046426 185 49 169.766146309 49 137 c 0
164 220 m 1
 284 220 l 1
 284 370 l 1
 164 370 l 1
 164 220 l 1
EndSplineSet
Ligature2: "'blws' Below Base Substitutions in Tamil lookup 3 subtable" uni0B9A uni0BC1
EndChar

StartChar: uni0B9E_uni0BC1
Encoding: 380 -1 125
Width: 1083
GlyphClass: 2
Flags: HW
LayerCount: 2
Back
Fore
SplineSet
-5 -112 m 0
 -5 -82.5406755557 25.5583987247 -63 57 -63 c 2
 685 -63 l 1
 710.333333333 -27 723 19 723 75 c 0
 723 136.324265416 693.198936397 209 637 209 c 0
 613.53705156 209 591 194.111880338 591 171 c 2
 591 0 l 1
 461 0 l 1
 461 370 l 1
 273 370 l 2
 216.333333333 370 165.666666667 351.333333333 121 314 c 0
 77 276 55 233 55 185 c 0
 55 124.534804481 78.1926932964 71.4109278366 117 50 c 1
 103.65588696 64.5572142261 95 88.6663103919 95 115 c 0
 95 204.628516974 154.699349638 263 245 263 c 256
 331.437632111 263 395 213.791391955 395 130 c 256
 395 39.0527007971 304.99039002 -3 206 -3 c 0
 93.9475191422 -3 20 71.6365052999 20 184 c 0
 20 243.333333333 45.3333333333 294.333333333 96 337 c 0
 146 379 206.666666667 400 278 400 c 2
 687 400 l 1
 687 370 l 1
 591 370 l 1
 591 228 l 1
 607.446546359 239.961124625 636.270249337 244 666 244 c 0
 774.53937693 244 853 179.952031996 853 73 c 0
 853 25 841.666666667 -20.3333333333 819 -63 c 1
 908 -63 l 1
 908 400 l 1
 1038 400 l 1
 1038 -98 l 1
 793 -98 l 1
 727.261921789 -217.245816289 523.997895191 -267 325 -267 c 0
 233.666666667 -267 156 -252 92 -222 c 0
 27.3333333333 -191.333333333 -5 -154.666666667 -5 -112 c 0
30 -117 m 0
 30 -142.333333333 62 -167.666666667 126 -193 c 0
 190 -219 253.333333333 -232 316 -232 c 0
 466.656787383 -232 606.383969326 -185.924046011 665 -98 c 1
 38 -98 l 1
 32.6666666667 -101.333333333 30 -111.666666667 30 -117 c 0
130 117 m 0
 130 75.5495632586 155.462383126 32 195 32 c 0
 237.072883188 32 265 76.0705242386 265 119 c 0
 265 161.184827926 235.606940319 203 195 203 c 0
 155.039702149 203 130 159.188697535 130 117 c 0
EndSplineSet
Ligature2: "'blws' Below Base Substitutions in Tamil lookup 3 subtable" uni0B9E uni0BC1
EndChar

StartChar: uni0B9F_uni0BC1
Encoding: 381 -1 126
Width: 752
GlyphClass: 2
Flags: HW
LayerCount: 2
Back
Fore
SplineSet
36 210 m 0
 36 347.333333333 66.6666666667 457.666666667 128 541 c 0
 189.333333333 623.666666667 270.666666667 665 372 665 c 0
 474 665 555.666666667 626.333333333 617 549 c 0
 678.333333333 471 709 367.666666667 709 239 c 2
 709 0 l 1
 674 0 l 1
 674 239 l 2
 674 427.006942934 557.669919916 557 372 557 c 256
 180.273999527 557 71 409.36373868 71 212 c 0
 71 87.3333333333 94 -9.33333333333 140 -78 c 0
 186 -147.333333333 250.333333333 -182 333 -182 c 0
 451.420376189 -182 510 -73.9462431805 510 52 c 0
 510 94.6666666667 504 128.666666667 492 154 c 256
 480 179.333333333 464.333333333 192 445 192 c 0
 418.236234524 192 398 155.494958272 398 128 c 2
 398 0 l 1
 268 0 l 1
 268 400 l 1
 398 400 l 1
 398 200 l 1
 413.692554169 218.106793271 436.902031637 232 469 232 c 0
 574.994919359 232 640 157.323599435 640 51 c 0
 640 -127.802933229 516.083741131 -217 331 -217 c 0
 127.559236774 -217 36 -10.2985447823 36 210 c 0
EndSplineSet
Ligature2: "'blws' Below Base Substitutions in Tamil lookup 3 subtable" uni0B9F uni0BC1
EndChar

StartChar: uni0BA3_uni0BC1
Encoding: 382 -1 127
Width: 1435
GlyphClass: 2
Flags: HW
LayerCount: 2
Back
Fore
SplineSet
4 -112 m 0
 4 -78.5541679789 53.5074568374 -63 91 -63 c 2
 973 -63 l 1
 1016.14603433 -9.7019575984 1043 68.6793027234 1043 163 c 0
 1043 255.170299362 999.771344066 373 917 373 c 0
 897.35651289 373 880.441667459 361.485834203 870 350 c 1
 922.977655913 301.347050692 972 227.25300463 972 137 c 0
 972 60.0625020407 910.116880551 -6 833 -6 c 0
 756.442635141 -6 695 59.5306112256 695 137 c 0
 695 213.31375255 721.635459937 276.608921218 759 320 c 1
 734.647049504 346.470598366 699.646418912 373 655 373 c 0
 625.666666667 373 599.333333333 363.666666667 576 345 c 1
 626.9039705 301.368025286 664 227.793162762 664 137 c 0
 664 58.9846416473 600.346382375 -6 523 -6 c 256
 445.765965555 -6 383 59.526770191 383 137 c 0
 383 215.753127747 411.628369796 280.404987062 452 322 c 1
 415.626599078 354.476250823 356.656610208 373 288 373 c 0
 224 373 169.333333333 353.666666667 124 315 c 256
 78.6666666667 276.333333333 56 229.666666667 56 175 c 0
 56 114.192937536 80.6828927341 54.3705864489 124 39 c 1
 107.933472462 57.5383010042 97 84.9788149473 97 118 c 0
 97 197.869500965 152.246058413 249 233 249 c 256
 313.749861691 249 369 199.909770919 369 120 c 256
 369 35.4746699515 299.220886099 -11 211 -11 c 0
 97.8632122498 -11 21 61.1032607758 21 173 c 0
 21 326.459908148 148.488960079 408 308 408 c 0
 396.755571576 408 478.257892589 392.977962272 525 355 c 1
 559.678395492 383.176196337 605.895967769 408 661 408 c 0
 728.729795901 408 786.554811239 391.165315613 825 362 c 1
 845.666666667 376.666666667 865.666666667 388 885 396 c 0
 903.666666667 404 921 408 937 408 c 0
 1080.78135193 408 1173 309.693363248 1173 164 c 0
 1173 71.0233519013 1156.89299491 -11.9901991555 1119 -63 c 1
 1260 -63 l 1
 1260 400 l 1
 1390 400 l 1
 1390 -98 l 1
 1102 -98 l 1
 1055.33333333 -149.333333333 975 -189.333333333 861 -218 c 0
 746.333333333 -246 607.666666667 -260 445 -260 c 0
 335.666666667 -260 235 -244.333333333 143 -213 c 0
 50.3333333333 -182.333333333 4 -148.666666667 4 -112 c 0
39 -112 m 0
 39 -136.666666667 84.6666666667 -161.666666667 176 -187 c 256
 267.333333333 -212.333333333 358 -225 448 -225 c 0
 648.894471337 -225 833.553976169 -186.707581882 938 -98 c 1
 55 -98 l 1
 44.3333333333 -100 39 -107.333333333 39 -112 c 0
132 117 m 0
 132 79.3777755775 149.183820666 29 183 29 c 0
 219.595301212 29 239 77.4772118627 239 118 c 0
 239 156.750887547 218.159378868 199 183 199 c 0
 149.775832717 199 132 153.521374661 132 117 c 0
418 137 m 0
 418 95.0488210897 437.932877399 44 476 44 c 256
 514.040927468 44 534 95.0998562267 534 137 c 0
 534 201.395406251 506.722043567 254.115127343 473 289 c 1
 440.474351783 255.223365313 418 202.216454528 418 137 c 0
730 137 m 0
 730 97.3187302781 747.425174644 44 783 44 c 0
 821.369238268 44 842 94.4068887784 842 137 c 0
 842 204.08992427 817.046166919 257.737898549 783 293 c 1
 750.247377599 260.247377599 730 202.409642118 730 137 c 0
EndSplineSet
Ligature2: "'blws' Below Base Substitutions in Tamil lookup 3 subtable" uni0BA3 uni0BC1
EndChar

StartChar: uni0BA4_uni0BC1
Encoding: 383 -1 128
Width: 867
GlyphClass: 2
Flags: HW
LayerCount: 2
Back
Fore
SplineSet
-7 -118 m 0
 -7 -85.6155090794 24.5933669916 -63 58 -63 c 2
 466 -63 l 1
 483.491018512 -34.3783333435 488 14.9689235776 488 64 c 0
 488 110.915513359 473.142000239 185 433 185 c 2
 413 185 l 1
 413 137 l 2
 413 26.9795616927 305.655832978 -2 182 -2 c 0
 96.8921808044 -2 13 54.1700310403 13 137 c 0
 13 192.750950493 64.2855236772 220 123 220 c 2
 138 220 l 1
 138 400 l 1
 523 400 l 1
 523 370 l 1
 413 370 l 1
 413 220 l 1
 475 220 l 2
 556.06374861 220 618 145.613203625 618 63 c 0
 618 13 610 -29 594 -63 c 1
 692 -63 l 1
 692 400 l 1
 822 400 l 1
 822 -98 l 1
 582 -98 l 1
 518.265412227 -201.060184485 369.24486324 -260 200 -260 c 0
 103.743396953 -260 -7 -207.415460008 -7 -118 c 0
28 -121 m 0
 28 -147 45.6666666667 -170.666666667 81 -192 c 0
 117 -214 156 -225 198 -225 c 0
 315.025881965 -225 415.357133886 -175.974508378 453 -98 c 1
 36 -98 l 1
 30.6666666667 -102 28 -114.333333333 28 -121 c 0
48 137 m 0
 48 67.8570929845 109.667274207 33 183 33 c 0
 238.903417482 33 283 80.5595054231 283 137 c 2
 283 185 l 1
 116 185 l 2
 83.9411992352 185 48 167.095351859 48 137 c 0
173 220 m 1
 283 220 l 1
 283 370 l 1
 173 370 l 1
 173 220 l 1
EndSplineSet
Ligature2: "'blws' Below Base Substitutions in Tamil lookup 3 subtable" uni0BA4 uni0BC1
EndChar

StartChar: uni0BA8_uni0BC1
Encoding: 384 -1 129
Width: 841
GlyphClass: 2
Flags: HW
LayerCount: 2
Back
Fore
SplineSet
2 -114 m 0
 2 -83.8217671948 32.5061434199 -63 64 -63 c 2
 421 -63 l 1
 451 -11 466 44.6666666667 466 104 c 0
 466 155.313049887 440.084700107 218 392 218 c 0
 368.842282624 218 349 199.483658514 349 177 c 2
 349 0 l 1
 219 0 l 1
 219 370 l 1
 80 370 l 1
 80 0 l 1
 45 0 l 1
 45 400 l 1
 441 400 l 1
 441 370 l 1
 349 370 l 1
 349 228 l 1
 367.614704425 246.614704425 401.143923701 258 439 258 c 0
 524.963253687 258 596 186.96077808 596 101 c 0
 596 31.6666666667 584 -23 560 -63 c 1
 666 -63 l 1
 666 400 l 1
 796 400 l 1
 796 -98 l 1
 549 -98 l 1
 492.472448202 -195.638498562 366.735765545 -262 215 -262 c 0
 114.811688505 -262 2 -207.538062201 2 -114 c 0
37 -117 m 0
 37 -186.351846077 121.255016617 -227 196 -227 c 0
 291.166700487 -227 362.251310408 -164.426325016 401 -98 c 1
 45 -98 l 1
 39.6666666667 -101.333333333 37 -111.666666667 37 -117 c 0
EndSplineSet
Ligature2: "'blws' Below Base Substitutions in Tamil lookup 3 subtable" uni0BA8 uni0BC1
EndChar

StartChar: uni0BA9_uni0BC1
Encoding: 385 -1 130
Width: 1136
GlyphClass: 2
Flags: HW
LayerCount: 2
Back
Fore
SplineSet
1 -115 m 0
 1 -82.6462184543 37.9958222751 -63 72 -63 c 2
 723 -63 l 1
 756.079432176 -12.6617336442 771 64.5900229505 771 152 c 0
 771 259.637622323 735.740099139 377 640 377 c 0
 614.159585914 377 592.30598903 363.523653867 579 348 c 1
 632.129995096 303.322504123 671 230.178342387 671 137 c 0
 671 50.6906040291 618.558808332 -10 533 -10 c 256
 447.443347624 -10 395 50.7035681251 395 137 c 0
 395 215.721798857 424.343187101 279.579874657 468 317 c 1
 430.506915037 353.243315463 370.881728921 377 300 377 c 0
 162.830538933 377 56 303.676421848 56 172 c 0
 56 107.025716854 90.5722251506 49.5975137723 141 35 c 1
 118.690238819 50.3379608113 106 83.0226158863 106 122 c 0
 106 202.203710341 160.537018411 254 241 254 c 0
 322.303910477 254 377 201.393453524 377 120 c 0
 377 36.0819214431 308.21633763 -10 222 -10 c 0
 106.10880849 -10 21 56.618604534 21 170 c 0
 21 324.338134393 142.190578451 412 302 412 c 0
 359.333333333 412 408.333333333 407.666666667 449 399 c 0
 490.333333333 391 521 379 541 363 c 1
 568.943472221 390.943472221 611.56615467 412 665 412 c 0
 812.71679594 412 901 301.869242652 901 150 c 0
 901 69.3333333333 883.333333333 -1.66666666667 848 -63 c 1
 961 -63 l 1
 961 400 l 1
 1091 400 l 1
 1091 -98 l 1
 819 -98 l 1
 735.283847497 -212.55894553 537.329428739 -264 328 -264 c 0
 238 -264 161 -249.333333333 97 -220 c 0
 33 -191.333333333 1 -156.333333333 1 -115 c 0
36 -117 m 0
 36 -147.666666667 64.6666666667 -174 122 -196 c 256
 179.333333333 -218 248.333333333 -229 329 -229 c 0
 483.493912179 -229 628.686049345 -186.928774749 687 -98 c 1
 47 -98 l 1
 39.6666666667 -101.333333333 36 -111.666666667 36 -117 c 0
141 122 m 0
 141 86.1319623083 158.10061943 40 191 40 c 0
 226.610230344 40 247 81.9709968454 247 120 c 0
 247 158.102964156 226.218858573 199 191 199 c 0
 159.174571674 199 141 156.648724773 141 122 c 0
430 137 m 0
 430 96.9608753976 446.838980365 40 483 40 c 0
 521.696899423 40 541 94.6741744955 541 137 c 0
 541 202.997136187 519.466567504 259.045319552 483 289 c 1
 449.120866865 259.186362841 430 201.652409715 430 137 c 0
EndSplineSet
Ligature2: "'blws' Below Base Substitutions in Tamil lookup 3 subtable" uni0BA9 uni0BC1
EndChar

StartChar: uni0BAA_uni0BC1
Encoding: 386 -1 131
Width: 692
GlyphClass: 2
Flags: HW
LayerCount: 2
Back
Fore
SplineSet
45 0 m 1
 45 400 l 1
 175 400 l 1
 175 30 l 1
 517 30 l 1
 517 400 l 1
 647 400 l 1
 647 -230 l 1
 517 -230 l 1
 517 0 l 1
 45 0 l 1
EndSplineSet
Ligature2: "'blws' Below Base Substitutions in Tamil lookup 3 subtable" uni0BAA uni0BC1
EndChar

StartChar: uni0BAE_uni0BC1
Encoding: 387 -1 132
Width: 920
GlyphClass: 2
Flags: HW
LayerCount: 2
Back
Fore
SplineSet
22 95 m 0
 22 237.034756778 110.027927153 345.840105275 213 392 c 1
 223 364 l 1
 132.303021632 322.2316547 57 223.646191676 57 97 c 0
 57 12.3333333333 86.6666666667 -60 146 -120 c 0
 204.666666667 -180 276 -210 360 -210 c 0
 418 -210 467.666666667 -194 509 -162 c 0
 550.333333333 -129.333333333 571 -90.3333333333 571 -45 c 2
 571 0 l 1
 297 0 l 1
 297 400 l 1
 427 400 l 1
 427 30 l 1
 571 30 l 1
 571 272 l 2
 571 351.381388007 651.120631331 406 734 406 c 0
 844.642038683 406 895 296.557150505 895 178 c 0
 895 86.3699602738 857.882560395 0 774 0 c 2
 701 0 l 1
 701 -43 l 2
 701 -99 668 -146.666666667 602 -186 c 0
 535.333333333 -225.333333333 455.333333333 -245 362 -245 c 0
 268 -245 188 -211.666666667 122 -145 c 0
 55.3333333333 -79 22 1 22 95 c 0
701 30 m 1
 764 30 l 2
 832.434572331 30 860 104.806609076 860 180 c 0
 860 265.657445744 831.8642155 356 756 356 c 0
 721.151267061 356 701 313.06058256 701 275 c 2
 701 30 l 1
EndSplineSet
Ligature2: "'blws' Below Base Substitutions in Tamil lookup 3 subtable" uni0BAE uni0BC1
EndChar

StartChar: uni0BAF_uni0BC1
Encoding: 388 -1 133
Width: 710
GlyphClass: 2
Flags: HW
LayerCount: 2
Back
Fore
SplineSet
40 110 m 2
 40 400 l 1
 170 400 l 1
 170 69 l 1
 174.666666667 57 188.666666667 51 196 51 c 0
 204.666666667 51 221 57 227 69 c 1
 227 400 l 1
 357 400 l 1
 357 30 l 1
 535 30 l 1
 535 400 l 1
 665 400 l 1
 665 -230 l 1
 535 -230 l 1
 535 0 l 1
 245 0 l 1
 245 66 l 1
 233.365189377 26.4416438831 195.739620421 -10 147 -10 c 0
 85.6525428001 -10 40 46.6701630453 40 110 c 2
EndSplineSet
Ligature2: "'blws' Below Base Substitutions in Tamil lookup 3 subtable" uni0BAF uni0BC1
EndChar

StartChar: uni0BB0_uni0BC1
Encoding: 389 -1 134
Width: 827
GlyphClass: 2
Flags: HW
LayerCount: 2
Back
Fore
SplineSet
24 100 m 0
 24 235.611488702 96.5772877068 346.386783863 192 391 c 1
 192 368 l 1
 148 342.666666667 122.333333333 306.333333333 97 259 c 0
 71.6666666667 211 59 158.666666667 59 102 c 0
 59 -103.579724946 189.924014213 -242 394 -242 c 0
 569.84698495 -242 681 -119.923433045 681 58 c 0
 681 120.19231139 670.197873098 184 618 184 c 0
 596.674309107 184 573 174.148145455 573 155 c 2
 573 0 l 1
 443 0 l 1
 443 370 l 1
 301 370 l 1
 301 0 l 1
 266 0 l 1
 266 400 l 1
 671 400 l 1
 671 370 l 1
 573 370 l 1
 573 205 l 1
 589.636888369 220.357127724 617.490591524 229 649 229 c 0
 749.328203139 229 811 158.423975894 811 57 c 0
 811 -44.3333333333 773.333333333 -125.333333333 698 -186 c 256
 622.666666667 -246.666666667 522.333333333 -277 397 -277 c 0
 284.333333333 -277 194 -242.666666667 126 -174 c 256
 58 -105.333333333 24 -14 24 100 c 0
EndSplineSet
Ligature2: "'blws' Below Base Substitutions in Tamil lookup 3 subtable" uni0BB0 uni0BC1
EndChar

StartChar: uni0BB1_uni0BC1
Encoding: 390 -1 135
Width: 855
GlyphClass: 2
Flags: HW
LayerCount: 2
Back
Fore
SplineSet
-14 -119 m 0
 -14 -86.4743074184 18.357652296 -63 53 -63 c 2
 461 -63 l 1
 480.333333333 -17.6666666667 490 53 490 149 c 0
 490 216.333333333 481.333333333 270.333333333 464 311 c 0
 447.333333333 351.666666667 424.666666667 372 396 372 c 0
 361.682119931 372 337 336.993893949 337 301 c 2
 337 0 l 1
 207 0 l 1
 207 300 l 2
 207 338.041332223 177.922462637 372 140 372 c 0
 102.278837645 372 75 337.067570708 75 299 c 2
 75 0 l 1
 40 0 l 1
 40 302 l 2
 40 363.21370296 102.470189341 407 166 407 c 0
 227.488763812 407 280.853131804 375.84565528 298 331 c 1
 312.393805498 375.489944268 360.923043574 407 419 407 c 0
 563.695704897 407 620 303.304776638 620 150 c 0
 620 72.6666666667 607 1.66666666667 581 -63 c 1
 680 -63 l 1
 680 400 l 1
 810 400 l 1
 810 -98 l 1
 562 -98 l 1
 504.96226792 -196.519719049 374.822499449 -262 220 -262 c 0
 155.333333333 -262 100.333333333 -248 55 -220 c 0
 9 -192 -14 -158.333333333 -14 -119 c 0
21 -117 m 0
 21 -190.750706349 127.065267965 -227 209 -227 c 0
 314.687891842 -227 397.099555747 -166.117311892 444 -98 c 1
 31 -98 l 1
 24.3333333333 -101.333333333 21 -111.666666667 21 -117 c 0
EndSplineSet
Ligature2: "'blws' Below Base Substitutions in Tamil lookup 3 subtable" uni0BB1 uni0BC1
EndChar

StartChar: uni0BB2_uni0BC1
Encoding: 391 -1 136
Width: 995
GlyphClass: 2
Flags: HW
LayerCount: 2
Back
Fore
SplineSet
-11 -118 m 0
 -11 -86.5421081742 16.7295213878 -63 48 -63 c 2
 492 -63 l 1
 498 -51.6666666667 503.666666667 -29.6666666667 509 3 c 1
 450.8700347 9.97559583601 392 52.2068665183 392 114 c 2
 392 247 l 2
 392 322.196433563 337.69726837 369 261 369 c 0
 203.666666667 369 155 350.666666667 115 314 c 0
 74.3333333333 277.333333333 54 233.333333333 54 182 c 0
 54 120.373577023 79.6878558436 68.2643579658 118 44 c 1
 101.925559097 60.0744409028 92 90.4751792088 92 123 c 0
 92 196.940704229 152.439387343 258 226 258 c 0
 307.389388367 258 360 201.958208314 360 120 c 0
 360 38.4594458379 277.343713069 1 189 1 c 0
 93.8529521436 1 19 84.2141991605 19 180 c 0
 19 240.666666667 43 292.666666667 91 336 c 0
 139 378.666666667 196.666666667 400 264 400 c 0
 389.223920624 400 522 358.208199718 522 246 c 2
 522 117 l 2
 522 76.1285990588 549.716399688 36 589 36 c 0
 658.053010345 36 682 124.918183375 682 204 c 0
 682 226.666666667 674.666666667 251.333333333 660 278 c 0
 644.666666667 305.333333333 623.333333333 332.666666667 596 360 c 0
 588.334791889 366.570178381 582 379.086576331 582 392 c 0
 582 407.843686005 596.15686413 422 612 422 c 0
 640.666666667 422 665.333333333 400.666666667 686 358 c 256
 706.666666667 315.333333333 717 264 717 204 c 0
 717 114.183460043 677.600179899 20.7083708124 607 6 c 1
 605 -20.6666666667 600 -43.6666666667 592 -63 c 1
 820 -63 l 1
 820 400 l 1
 950 400 l 1
 950 -98 l 1
 575 -98 l 1
 519.701448854 -201.853376544 377.309302264 -264 217 -264 c 0
 154.333333333 -264 100.666666667 -249.666666667 56 -221 c 256
 11.3333333333 -192.333333333 -11 -158 -11 -118 c 0
24 -117 m 0
 24 -190.989068659 128.548768437 -229 210 -229 c 0
 327.580121467 -229 423.876789338 -175.106019993 465 -98 c 1
 32 -98 l 1
 26.6666666667 -101.333333333 24 -111.666666667 24 -117 c 0
127 124 m 0
 127 86.5197884632 142.962932484 36 176 36 c 0
 210.698544055 36 230 81.7498349424 230 119 c 0
 230 155.797734333 210.001497623 198 176 198 c 0
 144.941289492 198 127 158.655549563 127 124 c 0
EndSplineSet
Ligature2: "'blws' Below Base Substitutions in Tamil lookup 3 subtable" uni0BB2 uni0BC1
EndChar

StartChar: uni0BB3_uni0BC1
Encoding: 392 -1 137
Width: 1239
GlyphClass: 2
Flags: HW
LayerCount: 2
Back
Fore
SplineSet
25 129 m 0
 25 243.896401616 84.5340376923 335.180633923 151 395 c 1
 170 373 l 1
 110.159544661 317.67580544 60 233.028278294 60 128 c 0
 60 21.3333333333 105.333333333 -64.3333333333 196 -129 c 0
 287.333333333 -193 408.333333333 -225 559 -225 c 0
 720.333333333 -225 849.333333333 -197.333333333 946 -142 c 0
 1043.33333333 -86 1092 -12 1092 80 c 0
 1092 132.851250174 1069.67894459 202 1023 202 c 0
 1000.68725156 202 984 181.224011288 984 158 c 2
 984 0 l 1
 854 0 l 1
 854 367 l 1
 722 367 l 1
 722 0 l 1
 592 0 l 1
 592 218 l 1
 565.102878233 293.087798267 497.140174391 367 403 367 c 0
 291.186434286 367 194 280.913343315 194 170 c 0
 194 108.719665721 227.513890563 56.5952375216 273 41 c 1
 256.306357583 58.9777687563 246 87.8187698281 246 122 c 0
 246 209.291488819 294.155549433 252 382 252 c 0
 462.311524432 252 519 202.242926769 519 122 c 0
 519 35.5049007392 436.282692437 -6 344 -6 c 0
 244.872970766 -6 159 70.1925907564 159 168 c 0
 159 232.666666667 182.666666667 287.666666667 230 333 c 0
 278 379 335.666666667 402 403 402 c 0
 497.295558566 402 570.844054246 362.968378143 615 309 c 1
 615 400 l 1
 1072 400 l 1
 1072 367 l 1
 984 367 l 1
 984 230 l 1
 1008 241.333333333 1032.33333333 247 1057 247 c 0
 1102.33333333 247 1141.33333333 230.666666667 1174 198 c 0
 1206 164.666666667 1222 124.666666667 1222 78 c 0
 1222 -24 1162 -106 1042 -168 c 0
 922.666666667 -229.333333333 763.333333333 -260 564 -260 c 0
 400.666666667 -260 270 -224.666666667 172 -154 c 256
 74 -83.3333333333 25 11 25 129 c 0
281 118 m 0
 281 79.6768576994 297.826693768 29 332 29 c 0
 369.412759424 29 389 79.1369637781 389 119 c 0
 389 155.145451253 367.298595304 195 332 195 c 0
 299.867413062 195 281 153.324513402 281 118 c 0
EndSplineSet
Ligature2: "'blws' Below Base Substitutions in Tamil lookup 3 subtable" uni0BB3 uni0BC1
EndChar

StartChar: uni0BB4_uni0BC1
Encoding: 393 -1 138
Width: 882
GlyphClass: 2
Flags: HW
LayerCount: 2
Back
Fore
SplineSet
24 95 m 0
 24 230.531466072 84.7874016104 342.161360283 174 390 c 1
 185 364 l 1
 106.955062376 322.286326442 59 217.061638915 59 96 c 0
 59 0 97.6666666667 -81.6666666667 175 -149 c 0
 253 -217 346.666666667 -251 456 -251 c 0
 567.231882298 -251 717 -204.868179264 717 -106 c 0
 717 -89.9285818182 706.060732663 -74 690 -74 c 256
 682.666666667 -74 668.666666667 -76.3333333333 664 -81 c 1
 664 -159 l 1
 534 -159 l 1
 534 0 l 1
 260 0 l 1
 260 400 l 1
 390 400 l 1
 390 30 l 1
 534 30 l 1
 534 272 l 2
 534 350.647973615 603.432716781 411 682 411 c 0
 730.666666667 411 772 389.666666667 806 347 c 0
 840.666666667 304.333333333 858 253 858 193 c 0
 858 96.2259980513 822.607803396 0 736 0 c 2
 664 0 l 1
 664 -50 l 1
 686.666666667 -36 711.333333333 -29 738 -29 c 0
 788.84644276 -29 847 -57.998019022 847 -106 c 0
 847 -156 808.666666667 -198.333333333 732 -233 c 0
 656 -268.333333333 564 -286 456 -286 c 0
 336.666666667 -286 235 -248.666666667 151 -174 c 0
 66.3333333333 -100 24 -10.3333333333 24 95 c 0
664 30 m 1
 737 30 l 2
 796.977401742 30 823 127.203700506 823 195 c 0
 823 269.458835697 787.382125658 361 720 361 c 0
 683.022954325 361 664 311.435641276 664 271 c 2
 664 30 l 1
EndSplineSet
Ligature2: "'blws' Below Base Substitutions in Tamil lookup 3 subtable" uni0BB4 uni0BC1
EndChar

StartChar: uni0BB5_uni0BC1
Encoding: 394 -1 139
Width: 819
GlyphClass: 2
Flags: HW
LayerCount: 2
Back
Fore
SplineSet
21 182 m 0
 21 332.970159971 135.075501454 421 290 421 c 0
 440.776199824 421 560 342.128995621 560 198 c 0
 560 124.669579905 537.017017433 59.8185285007 495 30 c 1
 644 30 l 1
 644 400 l 1
 774 400 l 1
 774 -155 l 1
 644 -155 l 1
 644 0 l 1
 343 0 l 1
 343 27 l 1
 395.269554713 51.8280384883 430 119.441619893 430 196 c 0
 430 296.121368558 343.170882799 376 243 376 c 256
 139.625125489 376 56 286.146271905 56 182 c 0
 56 118.993207667 82.537814114 69.6414572572 121 44 c 1
 105.067241663 62.3839519271 95 90.7922669525 95 123 c 0
 95 203.470335938 148.125064876 258 229 258 c 256
 310.397014449 258 363 203.298373906 363 122 c 0
 363 39.5069023473 284.608821543 1 197 1 c 0
 89.2046311766 1 21 74.039175504 21 182 c 0
130 120 m 0
 130 82.9250204651 146.59574056 36 179 36 c 0
 213.698544055 36 233 81.7498349424 233 119 c 0
 233 155.797734333 213.001497623 198 179 198 c 0
 147.222068702 198 130 155.146960533 130 120 c 0
EndSplineSet
Ligature2: "'blws' Below Base Substitutions in Tamil lookup 3 subtable" uni0BB5 uni0BC1
EndChar

StartChar: uni0B95_uni0BC2
Encoding: 395 -1 140
Width: 926
GlyphClass: 2
Flags: HW
LayerCount: 2
Back
Fore
SplineSet
13 137 m 0
 13 191.102073584 57.7397723807 220 113 220 c 2
 138 220 l 1
 138 400 l 1
 523 400 l 1
 523 370 l 1
 413 370 l 1
 413 220 l 1
 526 220 l 2
 564.642502454 220 612 201.025890647 612 166 c 1
 632.374593462 197.835302284 671.927969385 220 723 220 c 0
 791.252772618 220 863 178.847547309 863 114 c 0
 863 77.1954408004 841.66471181 47.4268958373 819 28 c 1
 923 28 l 1
 923 0 l 1
 666 0 l 1
 666 29 l 1
 701.848858007 37.364733535 733 70.6631337184 733 113 c 0
 733 139.124967565 708.653969098 160 682 160 c 0
 645.430045981 160 612 133.407467832 612 98 c 2
 612 0 l 1
 482 0 l 1
 482 175 l 1
 474.666666667 181.666666667 456.333333333 185 447 185 c 2
 413 185 l 1
 413 137 l 2
 413 91 392.333333333 56.3333333333 351 33 c 256
 309.666666667 9.66666666667 248.333333333 -2 167 -2 c 0
 86.2421783206 -2 13 57.3868533124 13 137 c 0
48 137 m 0
 48 71.0108275606 99.6812968975 33 168 33 c 0
 229.176672163 33 283 77.9459185087 283 137 c 2
 283 185 l 1
 116 185 l 2
 80.297046426 185 48 169.766146309 48 137 c 0
173 220 m 1
 283 220 l 1
 283 370 l 1
 173 370 l 1
 173 220 l 1
EndSplineSet
Ligature2: "'blws' Below Base Substitutions in Tamil lookup 3 subtable" uni0B95 uni0BC2
EndChar

StartChar: uni0B99_uni0BC2
Encoding: 396 -1 141
Width: 956
GlyphClass: 2
Flags: HW
LayerCount: 2
Back
Fore
SplineSet
20 -123 m 0
 20 -97.6666666667 40.3333333333 -77.3333333333 81 -62 c 256
 121.666666667 -46.6666666667 176 -39 244 -39 c 0
 325.333333333 -39 413.333333333 -54.3333333333 508 -85 c 1
 508 -116 l 1
 403.333333333 -88 315 -74 243 -74 c 0
 186.333333333 -74 140.666666667 -78.6666666667 106 -88 c 0
 72 -96.6666666667 55 -108.666666667 55 -124 c 0
 55 -146 96.3333333333 -164.666666667 179 -180 c 0
 261.666666667 -196 361 -204 477 -204 c 0
 584.333333333 -204 670 -189.666666667 734 -161 c 0
 798.666666667 -131.666666667 831 -93 831 -45 c 0
 831 -14.9889204052 807.460601626 12 778 12 c 0
 768.666666667 12 751 8.66666666667 745 2 c 1
 745 -120 l 1
 615 -120 l 1
 615 0 l 1
 218 0 l 1
 218 30 l 1
 384 30 l 1
 419.332035575 48.9278762004 444 93.4261450333 444 147 c 256
 444 189.753618046 422.153715003 240 383 240 c 0
 373.666666667 240 355.333333333 235.666666667 348 227 c 1
 348 110 l 1
 218 110 l 1
 218 370 l 1
 80 370 l 1
 80 0 l 1
 45 0 l 1
 45 400 l 1
 508 400 l 1
 508 370 l 1
 348 370 l 1
 348 257 l 1
 376 275.666666667 407.333333333 285 442 285 c 0
 522.709022824 285 574 228.950351982 574 147 c 0
 574 89.8005415924 533.789062699 47.285156329 490 30 c 1
 615 30 l 1
 615 400 l 1
 745 400 l 1
 745 42 l 1
 769.666666667 58.6666666667 801.666666667 67 841 67 c 0
 911.615543365 67 961 23.0934373773 961 -47 c 0
 961 -105 917.333333333 -151.666666667 830 -187 c 0
 742 -221.666666667 625.333333333 -239 480 -239 c 0
 328 -239 213.333333333 -229.333333333 136 -210 c 0
 58.6666666667 -190 20 -161 20 -123 c 0
EndSplineSet
Ligature2: "'blws' Below Base Substitutions in Tamil lookup 3 subtable" uni0B99 uni0BC2
EndChar

StartChar: uni0B9A_uni0BC2
Encoding: 397 -1 142
Width: 988
GlyphClass: 2
Flags: HW
LayerCount: 2
Back
Fore
SplineSet
24 116 m 0
 24 241.652877516 84.2750775438 340.623907107 167 387 c 1
 179 364 l 1
 108.700503825 320.062814891 59 228.471683662 59 117 c 0
 59 19.6666666667 97.6666666667 -60.6666666667 175 -124 c 256
 252.333333333 -187.333333333 350.333333333 -219 469 -219 c 0
 589 -219 682 -199 748 -159 c 0
 814.666666667 -119 848 -63 848 9 c 0
 848 56.4580573623 839.865167835 96 799 96 c 0
 778.969935168 96 761 82.8273900975 761 64 c 2
 761 0 l 1
 631 0 l 1
 631 185 l 1
 564 185 l 1
 564 137 l 2
 564 27.5849899412 459.410410483 -2 337 -2 c 0
 242.042164636 -2 164 45.6850803392 164 137 c 0
 164 191.998590008 211.329400173 220 268 220 c 2
 279 220 l 1
 279 400 l 1
 715 400 l 1
 715 370 l 1
 564 370 l 1
 564 220 l 1
 870 220 l 1
 870 185 l 1
 761 185 l 1
 761 113 l 1
 772.351954891 134.082201939 817.142228019 141 853 141 c 0
 930.739048364 141 978 86.1641734792 978 8 c 0
 978 -71.3333333333 931.666666667 -134.666666667 839 -182 c 0
 747 -230 624 -254 470 -254 c 0
 346.666666667 -254 241.666666667 -218 155 -146 c 0
 67.6666666667 -73.3333333333 24 14 24 116 c 0
199 137 m 0
 199 67.0446711745 263.265330669 33 338 33 c 0
 398.46411598 33 434 76.1081012181 434 137 c 2
 434 185 l 1
 267 185 l 2
 231.297046426 185 199 169.766146309 199 137 c 0
314 220 m 1
 434 220 l 1
 434 370 l 1
 314 370 l 1
 314 220 l 1
EndSplineSet
Ligature2: "'blws' Below Base Substitutions in Tamil lookup 3 subtable" uni0B9A uni0BC2
EndChar

StartChar: uni0B9E_uni0BC2
Encoding: 398 -1 143
Width: 1279
GlyphClass: 2
Flags: HW
LayerCount: 2
Back
Fore
SplineSet
-6 -112 m 0
 -6 -82.5406755557 24.5583987247 -63 56 -63 c 2
 684 -63 l 1
 709.333333333 -27 722 19 722 75 c 0
 722 136.324265416 692.198936397 209 636 209 c 0
 612.53705156 209 590 194.111880338 590 171 c 2
 590 0 l 1
 460 0 l 1
 460 370 l 1
 272 370 l 2
 215.333333333 370 164.666666667 351.333333333 120 314 c 0
 76 276 54 233 54 185 c 0
 54 124.534804481 77.1926932964 71.4109278366 116 50 c 1
 102.65588696 64.5572142261 94 88.6663103919 94 115 c 0
 94 204.628516974 153.699349638 263 244 263 c 256
 330.437632111 263 394 213.791391955 394 130 c 256
 394 40.534111641 310.621764253 -3 215 -3 c 0
 99.0631308201 -3 19 69.5744145116 19 184 c 0
 19 243.333333333 44.3333333333 294.333333333 95 337 c 0
 145 379 205.666666667 400 277 400 c 2
 686 400 l 1
 686 370 l 1
 590 370 l 1
 590 228 l 1
 606.446546359 239.961124625 635.270249337 244 665 244 c 0
 773.53937693 244 852 179.952031996 852 73 c 0
 852 25.6666666667 840 -19.6666666667 816 -63 c 1
 907 -63 l 1
 907 400 l 1
 1276 400 l 1
 1276 370 l 1
 1189 370 l 1
 1189 -98 l 1
 1059 -98 l 1
 1059 370 l 1
 942 370 l 1
 942 -98 l 1
 793 -98 l 1
 705.592419749 -208.993752699 527.82970117 -267 324 -267 c 0
 232.666666667 -267 155 -252 91 -222 c 0
 26.3333333333 -191.333333333 -6 -154.666666667 -6 -112 c 0
29 -117 m 0
 29 -142.333333333 61 -167.666666667 125 -193 c 0
 189 -219 252.333333333 -232 315 -232 c 0
 465.656787383 -232 605.383969326 -185.924046011 664 -98 c 1
 37 -98 l 1
 31.6666666667 -101.333333333 29 -111.666666667 29 -117 c 0
129 117 m 0
 129 75.5495632586 154.462383126 32 194 32 c 0
 236.072883188 32 264 76.0705242386 264 119 c 0
 264 161.184827926 234.606940319 203 194 203 c 0
 154.039702149 203 129 159.188697535 129 117 c 0
EndSplineSet
Ligature2: "'blws' Below Base Substitutions in Tamil lookup 3 subtable" uni0B9E uni0BC2
EndChar

StartChar: uni0B9F_uni0BC2
Encoding: 399 -1 144
Width: 718
GlyphClass: 2
Flags: HW
LayerCount: 2
Back
Fore
SplineSet
35 208 m 0
 35 322.666666667 68.6666666667 420.666666667 136 502 c 256
 203.333333333 583.333333333 284.333333333 624 379 624 c 0
 550.195439079 624 709 553.620863791 709 396 c 0
 709 317.108273091 654.819485702 267 575 267 c 0
 497.379667045 267 442 314.109554802 442 391 c 0
 442 445.256466512 465.730179963 503.893817925 510 510 c 1
 480.604802908 536.722906446 431.513428064 552 375 552 c 0
 287 552 214 519.333333333 156 454 c 0
 98.6666666667 389.333333333 70 307.333333333 70 208 c 0
 70 85.3333333333 93.3333333333 -12.6666666667 140 -86 c 0
 186.666666667 -160 248.666666667 -197 326 -197 c 0
 451.277629859 -197 513 -82.4644498925 513 51 c 0
 513 113.247454345 495.604036239 188 441 188 c 0
 414.709816647 188 399 155.63218552 399 127 c 2
 399 0 l 1
 269 0 l 1
 269 400 l 1
 399 400 l 1
 399 200 l 1
 416.253146095 221.234641347 451.627104329 233 490 233 c 0
 588.769042846 233 643 151.298144529 643 49 c 0
 643 -135.299354566 518.384563622 -232 329 -232 c 0
 236.333333333 -232 164 -193.333333333 112 -116 c 0
 60.6666666667 -39.3333333333 35 68.6666666667 35 208 c 0
477 391 m 0
 477 356.978704455 494.224774891 317 525 317 c 0
 558.569813749 317 579 358.974120081 579 395 c 0
 579 431.057902212 558.59067986 473 525 473 c 0
 492.897493706 473 477 426.680611354 477 391 c 0
EndSplineSet
Ligature2: "'blws' Below Base Substitutions in Tamil lookup 3 subtable" uni0B9F uni0BC2
EndChar

StartChar: uni0BA3_uni0BC2
Encoding: 400 -1 145
Width: 1621
GlyphClass: 2
Flags: HW
LayerCount: 2
Back
Fore
SplineSet
3 -112 m 0
 3 -78.5541679789 52.5074568374 -63 90 -63 c 2
 972 -63 l 1
 1015.14603433 -9.7019575984 1042 68.6793027234 1042 163 c 0
 1042 255.170299362 998.771344066 373 916 373 c 0
 894.06197034 373 876.084909911 358.091985738 864 345 c 1
 898 313 924.333333333 279 943 243 c 256
 961.666666667 207 971 171.666666667 971 137 c 0
 971 60.0625020407 909.116880551 -6 832 -6 c 0
 755.442635141 -6 694 59.5306112256 694 137 c 0
 694 213.31375255 720.635459937 276.608921218 758 320 c 1
 733.647049504 346.470598366 698.646418912 373 654 373 c 0
 618.536255762 373 592.064114715 357.651291773 570 340 c 1
 620.771563128 294.997932682 663 226.244225571 663 137 c 0
 663 58.9846416473 599.346382375 -6 522 -6 c 256
 444.765965555 -6 382 59.526770191 382 137 c 0
 382 215.753127747 410.628369796 280.404987062 451 322 c 1
 414.626599078 354.476250823 355.656610208 373 287 373 c 0
 223 373 168.333333333 353.666666667 123 315 c 256
 77.6666666667 276.333333333 55 229.666666667 55 175 c 0
 55 114.192937536 79.6828927341 54.3705864489 123 39 c 1
 106.933472462 57.5383010042 96 84.9788149473 96 118 c 0
 96 197.869500965 151.246058413 249 232 249 c 256
 312.749861691 249 368 199.909770919 368 120 c 0
 368 37.1184771099 297.513437236 -6 210 -6 c 0
 98.48799589 -6 20 62.8959093068 20 173 c 0
 20 326.459908148 147.488960079 408 307 408 c 0
 395.755571576 408 477.257892589 392.977962272 524 355 c 1
 558.678395492 383.176196337 604.895967769 408 660 408 c 0
 727.729795901 408 785.554811239 391.165315613 824 362 c 1
 844.666666667 376.666666667 864.666666667 388 884 396 c 0
 902.666666667 404 920 408 936 408 c 0
 1079.78135193 408 1172 309.693363248 1172 164 c 0
 1172 68 1154 -7.66666666667 1118 -63 c 1
 1245 -63 l 1
 1245 400 l 1
 1618 400 l 1
 1618 370 l 1
 1532 370 l 1
 1532 -98 l 1
 1402 -98 l 1
 1402 370 l 1
 1280 370 l 1
 1280 -98 l 1
 1100 -98 l 1
 1055.33333333 -149.333333333 976 -189.333333333 862 -218 c 0
 748.666666667 -246 611 -260 449 -260 c 0
 338.333333333 -260 236.333333333 -244.333333333 143 -213 c 0
 49.6666666667 -182.333333333 3 -148.666666667 3 -112 c 0
38 -112 m 0
 38 -136.666666667 83.6666666667 -161.666666667 175 -187 c 256
 266.333333333 -212.333333333 357 -225 447 -225 c 0
 647.894471337 -225 832.553976169 -186.707581882 937 -98 c 1
 54 -98 l 1
 43.3333333333 -100 38 -107.333333333 38 -112 c 0
131 117 m 0
 131 80.5297876687 148.376205608 34 182 34 c 0
 217.482118997 34 238 78.6937900015 238 118 c 0
 238 154.702981916 216.848595855 194 182 194 c 0
 149.867413062 194 131 152.324513402 131 117 c 0
417 137 m 0
 417 95.0488210897 436.932877399 44 475 44 c 256
 513.040927468 44 533 95.0998562267 533 137 c 0
 533 201.395406251 505.722043567 254.115127343 472 289 c 1
 439.474351783 255.223365313 417 202.216454528 417 137 c 0
729 137 m 0
 729 97.3187302781 746.425174644 44 782 44 c 0
 820.369238268 44 841 94.4068887784 841 137 c 0
 841 204.08992427 816.046166919 257.737898549 782 293 c 1
 749.247377599 260.247377599 729 202.409642118 729 137 c 0
EndSplineSet
Ligature2: "'blws' Below Base Substitutions in Tamil lookup 3 subtable" uni0BA3 uni0BC2
EndChar

